G04 #@! TF.GenerationSoftware,KiCad,Pcbnew,5.1.6*
G04 #@! TF.CreationDate,2020-06-26T00:36:41+09:00*
G04 #@! TF.ProjectId,firststep12,66697273-7473-4746-9570-31322e6b6963,rev?*
G04 #@! TF.SameCoordinates,Original*
G04 #@! TF.FileFunction,Legend,Top*
G04 #@! TF.FilePolarity,Positive*
%FSLAX46Y46*%
G04 Gerber Fmt 4.6, Leading zero omitted, Abs format (unit mm)*
G04 Created by KiCad (PCBNEW 5.1.6) date 2020-06-26 00:36:41*
%MOMM*%
%LPD*%
G01*
G04 APERTURE LIST*
%ADD10C,0.300000*%
%ADD11C,0.120000*%
%ADD12C,0.150000*%
%ADD13C,0.100000*%
%ADD14C,0.125000*%
%ADD15C,4.900000*%
%ADD16C,4.100000*%
%ADD17C,2.000000*%
G04 APERTURE END LIST*
D10*
X89625714Y-71582857D02*
X89125714Y-71582857D01*
X89125714Y-72368571D02*
X89125714Y-70868571D01*
X89840000Y-70868571D01*
X90411428Y-72368571D02*
X90411428Y-71368571D01*
X90411428Y-70868571D02*
X90340000Y-70940000D01*
X90411428Y-71011428D01*
X90482857Y-70940000D01*
X90411428Y-70868571D01*
X90411428Y-71011428D01*
X91125714Y-72368571D02*
X91125714Y-71368571D01*
X91125714Y-71654285D02*
X91197142Y-71511428D01*
X91268571Y-71440000D01*
X91411428Y-71368571D01*
X91554285Y-71368571D01*
X91982857Y-72297142D02*
X92125714Y-72368571D01*
X92411428Y-72368571D01*
X92554285Y-72297142D01*
X92625714Y-72154285D01*
X92625714Y-72082857D01*
X92554285Y-71940000D01*
X92411428Y-71868571D01*
X92197142Y-71868571D01*
X92054285Y-71797142D01*
X91982857Y-71654285D01*
X91982857Y-71582857D01*
X92054285Y-71440000D01*
X92197142Y-71368571D01*
X92411428Y-71368571D01*
X92554285Y-71440000D01*
X93054285Y-71368571D02*
X93625714Y-71368571D01*
X93268571Y-70868571D02*
X93268571Y-72154285D01*
X93340000Y-72297142D01*
X93482857Y-72368571D01*
X93625714Y-72368571D01*
X94054285Y-72297142D02*
X94268571Y-72368571D01*
X94625714Y-72368571D01*
X94768571Y-72297142D01*
X94840000Y-72225714D01*
X94911428Y-72082857D01*
X94911428Y-71940000D01*
X94840000Y-71797142D01*
X94768571Y-71725714D01*
X94625714Y-71654285D01*
X94340000Y-71582857D01*
X94197142Y-71511428D01*
X94125714Y-71440000D01*
X94054285Y-71297142D01*
X94054285Y-71154285D01*
X94125714Y-71011428D01*
X94197142Y-70940000D01*
X94340000Y-70868571D01*
X94697142Y-70868571D01*
X94911428Y-70940000D01*
X95340000Y-71368571D02*
X95911428Y-71368571D01*
X95554285Y-70868571D02*
X95554285Y-72154285D01*
X95625714Y-72297142D01*
X95768571Y-72368571D01*
X95911428Y-72368571D01*
X96982857Y-72297142D02*
X96840000Y-72368571D01*
X96554285Y-72368571D01*
X96411428Y-72297142D01*
X96340000Y-72154285D01*
X96340000Y-71582857D01*
X96411428Y-71440000D01*
X96554285Y-71368571D01*
X96840000Y-71368571D01*
X96982857Y-71440000D01*
X97054285Y-71582857D01*
X97054285Y-71725714D01*
X96340000Y-71868571D01*
X97697142Y-71368571D02*
X97697142Y-72868571D01*
X97697142Y-71440000D02*
X97840000Y-71368571D01*
X98125714Y-71368571D01*
X98268571Y-71440000D01*
X98340000Y-71511428D01*
X98411428Y-71654285D01*
X98411428Y-72082857D01*
X98340000Y-72225714D01*
X98268571Y-72297142D01*
X98125714Y-72368571D01*
X97840000Y-72368571D01*
X97697142Y-72297142D01*
X99840000Y-72368571D02*
X98982857Y-72368571D01*
X99411428Y-72368571D02*
X99411428Y-70868571D01*
X99268571Y-71082857D01*
X99125714Y-71225714D01*
X98982857Y-71297142D01*
X100411428Y-71011428D02*
X100482857Y-70940000D01*
X100625714Y-70868571D01*
X100982857Y-70868571D01*
X101125714Y-70940000D01*
X101197142Y-71011428D01*
X101268571Y-71154285D01*
X101268571Y-71297142D01*
X101197142Y-71511428D01*
X100340000Y-72368571D01*
X101268571Y-72368571D01*
X102911428Y-71368571D02*
X103268571Y-72368571D01*
X103625714Y-71368571D01*
X104982857Y-72368571D02*
X104125714Y-72368571D01*
X104554285Y-72368571D02*
X104554285Y-70868571D01*
X104411428Y-71082857D01*
X104268571Y-71225714D01*
X104125714Y-71297142D01*
X105625714Y-72225714D02*
X105697142Y-72297142D01*
X105625714Y-72368571D01*
X105554285Y-72297142D01*
X105625714Y-72225714D01*
X105625714Y-72368571D01*
X106625714Y-70868571D02*
X106768571Y-70868571D01*
X106911428Y-70940000D01*
X106982857Y-71011428D01*
X107054285Y-71154285D01*
X107125714Y-71440000D01*
X107125714Y-71797142D01*
X107054285Y-72082857D01*
X106982857Y-72225714D01*
X106911428Y-72297142D01*
X106768571Y-72368571D01*
X106625714Y-72368571D01*
X106482857Y-72297142D01*
X106411428Y-72225714D01*
X106340000Y-72082857D01*
X106268571Y-71797142D01*
X106268571Y-71440000D01*
X106340000Y-71154285D01*
X106411428Y-71011428D01*
X106482857Y-70940000D01*
X106625714Y-70868571D01*
X85304285Y-74918571D02*
X85304285Y-73418571D01*
X85875714Y-73418571D01*
X86018571Y-73490000D01*
X86090000Y-73561428D01*
X86161428Y-73704285D01*
X86161428Y-73918571D01*
X86090000Y-74061428D01*
X86018571Y-74132857D01*
X85875714Y-74204285D01*
X85304285Y-74204285D01*
X87661428Y-74775714D02*
X87590000Y-74847142D01*
X87375714Y-74918571D01*
X87232857Y-74918571D01*
X87018571Y-74847142D01*
X86875714Y-74704285D01*
X86804285Y-74561428D01*
X86732857Y-74275714D01*
X86732857Y-74061428D01*
X86804285Y-73775714D01*
X86875714Y-73632857D01*
X87018571Y-73490000D01*
X87232857Y-73418571D01*
X87375714Y-73418571D01*
X87590000Y-73490000D01*
X87661428Y-73561428D01*
X88804285Y-74132857D02*
X89018571Y-74204285D01*
X89090000Y-74275714D01*
X89161428Y-74418571D01*
X89161428Y-74632857D01*
X89090000Y-74775714D01*
X89018571Y-74847142D01*
X88875714Y-74918571D01*
X88304285Y-74918571D01*
X88304285Y-73418571D01*
X88804285Y-73418571D01*
X88947142Y-73490000D01*
X89018571Y-73561428D01*
X89090000Y-73704285D01*
X89090000Y-73847142D01*
X89018571Y-73990000D01*
X88947142Y-74061428D01*
X88804285Y-74132857D01*
X88304285Y-74132857D01*
X91590000Y-74918571D02*
X91590000Y-73418571D01*
X91590000Y-74847142D02*
X91447142Y-74918571D01*
X91161428Y-74918571D01*
X91018571Y-74847142D01*
X90947142Y-74775714D01*
X90875714Y-74632857D01*
X90875714Y-74204285D01*
X90947142Y-74061428D01*
X91018571Y-73990000D01*
X91161428Y-73918571D01*
X91447142Y-73918571D01*
X91590000Y-73990000D01*
X92875714Y-74847142D02*
X92732857Y-74918571D01*
X92447142Y-74918571D01*
X92304285Y-74847142D01*
X92232857Y-74704285D01*
X92232857Y-74132857D01*
X92304285Y-73990000D01*
X92447142Y-73918571D01*
X92732857Y-73918571D01*
X92875714Y-73990000D01*
X92947142Y-74132857D01*
X92947142Y-74275714D01*
X92232857Y-74418571D01*
X93518571Y-74847142D02*
X93661428Y-74918571D01*
X93947142Y-74918571D01*
X94090000Y-74847142D01*
X94161428Y-74704285D01*
X94161428Y-74632857D01*
X94090000Y-74490000D01*
X93947142Y-74418571D01*
X93732857Y-74418571D01*
X93590000Y-74347142D01*
X93518571Y-74204285D01*
X93518571Y-74132857D01*
X93590000Y-73990000D01*
X93732857Y-73918571D01*
X93947142Y-73918571D01*
X94090000Y-73990000D01*
X94804285Y-74918571D02*
X94804285Y-73918571D01*
X94804285Y-73418571D02*
X94732857Y-73490000D01*
X94804285Y-73561428D01*
X94875714Y-73490000D01*
X94804285Y-73418571D01*
X94804285Y-73561428D01*
X96161428Y-73918571D02*
X96161428Y-75132857D01*
X96090000Y-75275714D01*
X96018571Y-75347142D01*
X95875714Y-75418571D01*
X95661428Y-75418571D01*
X95518571Y-75347142D01*
X96161428Y-74847142D02*
X96018571Y-74918571D01*
X95732857Y-74918571D01*
X95590000Y-74847142D01*
X95518571Y-74775714D01*
X95447142Y-74632857D01*
X95447142Y-74204285D01*
X95518571Y-74061428D01*
X95590000Y-73990000D01*
X95732857Y-73918571D01*
X96018571Y-73918571D01*
X96161428Y-73990000D01*
X96875714Y-73918571D02*
X96875714Y-74918571D01*
X96875714Y-74061428D02*
X96947142Y-73990000D01*
X97090000Y-73918571D01*
X97304285Y-73918571D01*
X97447142Y-73990000D01*
X97518571Y-74132857D01*
X97518571Y-74918571D01*
X98804285Y-74847142D02*
X98661428Y-74918571D01*
X98375714Y-74918571D01*
X98232857Y-74847142D01*
X98161428Y-74704285D01*
X98161428Y-74132857D01*
X98232857Y-73990000D01*
X98375714Y-73918571D01*
X98661428Y-73918571D01*
X98804285Y-73990000D01*
X98875714Y-74132857D01*
X98875714Y-74275714D01*
X98161428Y-74418571D01*
X100161428Y-74918571D02*
X100161428Y-73418571D01*
X100161428Y-74847142D02*
X100018571Y-74918571D01*
X99732857Y-74918571D01*
X99590000Y-74847142D01*
X99518571Y-74775714D01*
X99447142Y-74632857D01*
X99447142Y-74204285D01*
X99518571Y-74061428D01*
X99590000Y-73990000D01*
X99732857Y-73918571D01*
X100018571Y-73918571D01*
X100161428Y-73990000D01*
X102018571Y-74918571D02*
X102018571Y-73418571D01*
X102018571Y-73990000D02*
X102161428Y-73918571D01*
X102447142Y-73918571D01*
X102590000Y-73990000D01*
X102661428Y-74061428D01*
X102732857Y-74204285D01*
X102732857Y-74632857D01*
X102661428Y-74775714D01*
X102590000Y-74847142D01*
X102447142Y-74918571D01*
X102161428Y-74918571D01*
X102018571Y-74847142D01*
X103232857Y-73918571D02*
X103590000Y-74918571D01*
X103947142Y-73918571D02*
X103590000Y-74918571D01*
X103447142Y-75275714D01*
X103375714Y-75347142D01*
X103232857Y-75418571D01*
X105661428Y-74918571D02*
X105661428Y-73418571D01*
X105804285Y-74347142D02*
X106232857Y-74918571D01*
X106232857Y-73918571D02*
X105661428Y-74490000D01*
X107518571Y-74918571D02*
X107518571Y-74132857D01*
X107447142Y-73990000D01*
X107304285Y-73918571D01*
X107018571Y-73918571D01*
X106875714Y-73990000D01*
X107518571Y-74847142D02*
X107375714Y-74918571D01*
X107018571Y-74918571D01*
X106875714Y-74847142D01*
X106804285Y-74704285D01*
X106804285Y-74561428D01*
X106875714Y-74418571D01*
X107018571Y-74347142D01*
X107375714Y-74347142D01*
X107518571Y-74275714D01*
X108232857Y-74918571D02*
X108232857Y-73918571D01*
X108232857Y-74061428D02*
X108304285Y-73990000D01*
X108447142Y-73918571D01*
X108661428Y-73918571D01*
X108804285Y-73990000D01*
X108875714Y-74132857D01*
X108875714Y-74918571D01*
X108875714Y-74132857D02*
X108947142Y-73990000D01*
X109089999Y-73918571D01*
X109304285Y-73918571D01*
X109447142Y-73990000D01*
X109518571Y-74132857D01*
X109518571Y-74918571D01*
X110447142Y-74918571D02*
X110304285Y-74847142D01*
X110232857Y-74775714D01*
X110161428Y-74632857D01*
X110161428Y-74204285D01*
X110232857Y-74061428D01*
X110304285Y-73990000D01*
X110447142Y-73918571D01*
X110661428Y-73918571D01*
X110804285Y-73990000D01*
X110875714Y-74061428D01*
X110947142Y-74204285D01*
X110947142Y-74632857D01*
X110875714Y-74775714D01*
X110804285Y-74847142D01*
X110661428Y-74918571D01*
X110447142Y-74918571D01*
D11*
X116090000Y-47965000D02*
X130590000Y-47965000D01*
D12*
X128256666Y-58679285D02*
X128161428Y-58774523D01*
X127875714Y-58869761D01*
X127685238Y-58869761D01*
X127399523Y-58774523D01*
X127209047Y-58584047D01*
X127113809Y-58393571D01*
X127018571Y-58012619D01*
X127018571Y-57726904D01*
X127113809Y-57345952D01*
X127209047Y-57155476D01*
X127399523Y-56965000D01*
X127685238Y-56869761D01*
X127875714Y-56869761D01*
X128161428Y-56965000D01*
X128256666Y-57060238D01*
X129970952Y-57536428D02*
X129970952Y-58869761D01*
X129494761Y-56774523D02*
X129018571Y-58203095D01*
X130256666Y-58203095D01*
X121256666Y-63679285D02*
X121161428Y-63774523D01*
X120875714Y-63869761D01*
X120685238Y-63869761D01*
X120399523Y-63774523D01*
X120209047Y-63584047D01*
X120113809Y-63393571D01*
X120018571Y-63012619D01*
X120018571Y-62726904D01*
X120113809Y-62345952D01*
X120209047Y-62155476D01*
X120399523Y-61965000D01*
X120685238Y-61869761D01*
X120875714Y-61869761D01*
X121161428Y-61965000D01*
X121256666Y-62060238D01*
X122018571Y-62060238D02*
X122113809Y-61965000D01*
X122304285Y-61869761D01*
X122780476Y-61869761D01*
X122970952Y-61965000D01*
X123066190Y-62060238D01*
X123161428Y-62250714D01*
X123161428Y-62441190D01*
X123066190Y-62726904D01*
X121923333Y-63869761D01*
X123161428Y-63869761D01*
D11*
X130590000Y-66965000D02*
X116090000Y-66965000D01*
D12*
X117756666Y-66179285D02*
X117661428Y-66274523D01*
X117375714Y-66369761D01*
X117185238Y-66369761D01*
X116899523Y-66274523D01*
X116709047Y-66084047D01*
X116613809Y-65893571D01*
X116518571Y-65512619D01*
X116518571Y-65226904D01*
X116613809Y-64845952D01*
X116709047Y-64655476D01*
X116899523Y-64465000D01*
X117185238Y-64369761D01*
X117375714Y-64369761D01*
X117661428Y-64465000D01*
X117756666Y-64560238D01*
X119661428Y-66369761D02*
X118518571Y-66369761D01*
X119090000Y-66369761D02*
X119090000Y-64369761D01*
X118899523Y-64655476D01*
X118709047Y-64845952D01*
X118518571Y-64941190D01*
D11*
X116090000Y-47965000D02*
X116090000Y-66965000D01*
D12*
X124756666Y-61179285D02*
X124661428Y-61274523D01*
X124375714Y-61369761D01*
X124185238Y-61369761D01*
X123899523Y-61274523D01*
X123709047Y-61084047D01*
X123613809Y-60893571D01*
X123518571Y-60512619D01*
X123518571Y-60226904D01*
X123613809Y-59845952D01*
X123709047Y-59655476D01*
X123899523Y-59465000D01*
X124185238Y-59369761D01*
X124375714Y-59369761D01*
X124661428Y-59465000D01*
X124756666Y-59560238D01*
X125423333Y-59369761D02*
X126661428Y-59369761D01*
X125994761Y-60131666D01*
X126280476Y-60131666D01*
X126470952Y-60226904D01*
X126566190Y-60322142D01*
X126661428Y-60512619D01*
X126661428Y-60988809D01*
X126566190Y-61179285D01*
X126470952Y-61274523D01*
X126280476Y-61369761D01*
X125709047Y-61369761D01*
X125518571Y-61274523D01*
X125423333Y-61179285D01*
D11*
X130590000Y-66965000D02*
X130590000Y-47965000D01*
D12*
X119566190Y-50369761D02*
X118899523Y-49417380D01*
X118423333Y-50369761D02*
X118423333Y-48369761D01*
X119185238Y-48369761D01*
X119375714Y-48465000D01*
X119470952Y-48560238D01*
X119566190Y-48750714D01*
X119566190Y-49036428D01*
X119470952Y-49226904D01*
X119375714Y-49322142D01*
X119185238Y-49417380D01*
X118423333Y-49417380D01*
X120804285Y-48369761D02*
X121185238Y-48369761D01*
X121375714Y-48465000D01*
X121566190Y-48655476D01*
X121661428Y-49036428D01*
X121661428Y-49703095D01*
X121566190Y-50084047D01*
X121375714Y-50274523D01*
X121185238Y-50369761D01*
X120804285Y-50369761D01*
X120613809Y-50274523D01*
X120423333Y-50084047D01*
X120328095Y-49703095D01*
X120328095Y-49036428D01*
X120423333Y-48655476D01*
X120613809Y-48465000D01*
X120804285Y-48369761D01*
X122328095Y-48369761D02*
X122804285Y-50369761D01*
X123185238Y-48941190D01*
X123566190Y-50369761D01*
X124042380Y-48369761D01*
X124613809Y-48369761D02*
X125851904Y-48369761D01*
X125185238Y-49131666D01*
X125470952Y-49131666D01*
X125661428Y-49226904D01*
X125756666Y-49322142D01*
X125851904Y-49512619D01*
X125851904Y-49988809D01*
X125756666Y-50179285D01*
X125661428Y-50274523D01*
X125470952Y-50369761D01*
X124899523Y-50369761D01*
X124709047Y-50274523D01*
X124613809Y-50179285D01*
D11*
X101090000Y-47965000D02*
X115590000Y-47965000D01*
D12*
X113256666Y-58679285D02*
X113161428Y-58774523D01*
X112875714Y-58869761D01*
X112685238Y-58869761D01*
X112399523Y-58774523D01*
X112209047Y-58584047D01*
X112113809Y-58393571D01*
X112018571Y-58012619D01*
X112018571Y-57726904D01*
X112113809Y-57345952D01*
X112209047Y-57155476D01*
X112399523Y-56965000D01*
X112685238Y-56869761D01*
X112875714Y-56869761D01*
X113161428Y-56965000D01*
X113256666Y-57060238D01*
X114970952Y-57536428D02*
X114970952Y-58869761D01*
X114494761Y-56774523D02*
X114018571Y-58203095D01*
X115256666Y-58203095D01*
X106256666Y-63679285D02*
X106161428Y-63774523D01*
X105875714Y-63869761D01*
X105685238Y-63869761D01*
X105399523Y-63774523D01*
X105209047Y-63584047D01*
X105113809Y-63393571D01*
X105018571Y-63012619D01*
X105018571Y-62726904D01*
X105113809Y-62345952D01*
X105209047Y-62155476D01*
X105399523Y-61965000D01*
X105685238Y-61869761D01*
X105875714Y-61869761D01*
X106161428Y-61965000D01*
X106256666Y-62060238D01*
X107018571Y-62060238D02*
X107113809Y-61965000D01*
X107304285Y-61869761D01*
X107780476Y-61869761D01*
X107970952Y-61965000D01*
X108066190Y-62060238D01*
X108161428Y-62250714D01*
X108161428Y-62441190D01*
X108066190Y-62726904D01*
X106923333Y-63869761D01*
X108161428Y-63869761D01*
D11*
X115590000Y-66965000D02*
X101090000Y-66965000D01*
D12*
X102756666Y-66179285D02*
X102661428Y-66274523D01*
X102375714Y-66369761D01*
X102185238Y-66369761D01*
X101899523Y-66274523D01*
X101709047Y-66084047D01*
X101613809Y-65893571D01*
X101518571Y-65512619D01*
X101518571Y-65226904D01*
X101613809Y-64845952D01*
X101709047Y-64655476D01*
X101899523Y-64465000D01*
X102185238Y-64369761D01*
X102375714Y-64369761D01*
X102661428Y-64465000D01*
X102756666Y-64560238D01*
X104661428Y-66369761D02*
X103518571Y-66369761D01*
X104090000Y-66369761D02*
X104090000Y-64369761D01*
X103899523Y-64655476D01*
X103709047Y-64845952D01*
X103518571Y-64941190D01*
D11*
X101090000Y-47965000D02*
X101090000Y-66965000D01*
D12*
X109756666Y-61179285D02*
X109661428Y-61274523D01*
X109375714Y-61369761D01*
X109185238Y-61369761D01*
X108899523Y-61274523D01*
X108709047Y-61084047D01*
X108613809Y-60893571D01*
X108518571Y-60512619D01*
X108518571Y-60226904D01*
X108613809Y-59845952D01*
X108709047Y-59655476D01*
X108899523Y-59465000D01*
X109185238Y-59369761D01*
X109375714Y-59369761D01*
X109661428Y-59465000D01*
X109756666Y-59560238D01*
X110423333Y-59369761D02*
X111661428Y-59369761D01*
X110994761Y-60131666D01*
X111280476Y-60131666D01*
X111470952Y-60226904D01*
X111566190Y-60322142D01*
X111661428Y-60512619D01*
X111661428Y-60988809D01*
X111566190Y-61179285D01*
X111470952Y-61274523D01*
X111280476Y-61369761D01*
X110709047Y-61369761D01*
X110518571Y-61274523D01*
X110423333Y-61179285D01*
D11*
X115590000Y-66965000D02*
X115590000Y-47965000D01*
D12*
X104566190Y-50369761D02*
X103899523Y-49417380D01*
X103423333Y-50369761D02*
X103423333Y-48369761D01*
X104185238Y-48369761D01*
X104375714Y-48465000D01*
X104470952Y-48560238D01*
X104566190Y-48750714D01*
X104566190Y-49036428D01*
X104470952Y-49226904D01*
X104375714Y-49322142D01*
X104185238Y-49417380D01*
X103423333Y-49417380D01*
X105804285Y-48369761D02*
X106185238Y-48369761D01*
X106375714Y-48465000D01*
X106566190Y-48655476D01*
X106661428Y-49036428D01*
X106661428Y-49703095D01*
X106566190Y-50084047D01*
X106375714Y-50274523D01*
X106185238Y-50369761D01*
X105804285Y-50369761D01*
X105613809Y-50274523D01*
X105423333Y-50084047D01*
X105328095Y-49703095D01*
X105328095Y-49036428D01*
X105423333Y-48655476D01*
X105613809Y-48465000D01*
X105804285Y-48369761D01*
X107328095Y-48369761D02*
X107804285Y-50369761D01*
X108185238Y-48941190D01*
X108566190Y-50369761D01*
X109042380Y-48369761D01*
X109709047Y-48560238D02*
X109804285Y-48465000D01*
X109994761Y-48369761D01*
X110470952Y-48369761D01*
X110661428Y-48465000D01*
X110756666Y-48560238D01*
X110851904Y-48750714D01*
X110851904Y-48941190D01*
X110756666Y-49226904D01*
X109613809Y-50369761D01*
X110851904Y-50369761D01*
X89566190Y-50369761D02*
X88899523Y-49417380D01*
X88423333Y-50369761D02*
X88423333Y-48369761D01*
X89185238Y-48369761D01*
X89375714Y-48465000D01*
X89470952Y-48560238D01*
X89566190Y-48750714D01*
X89566190Y-49036428D01*
X89470952Y-49226904D01*
X89375714Y-49322142D01*
X89185238Y-49417380D01*
X88423333Y-49417380D01*
X90804285Y-48369761D02*
X91185238Y-48369761D01*
X91375714Y-48465000D01*
X91566190Y-48655476D01*
X91661428Y-49036428D01*
X91661428Y-49703095D01*
X91566190Y-50084047D01*
X91375714Y-50274523D01*
X91185238Y-50369761D01*
X90804285Y-50369761D01*
X90613809Y-50274523D01*
X90423333Y-50084047D01*
X90328095Y-49703095D01*
X90328095Y-49036428D01*
X90423333Y-48655476D01*
X90613809Y-48465000D01*
X90804285Y-48369761D01*
X92328095Y-48369761D02*
X92804285Y-50369761D01*
X93185238Y-48941190D01*
X93566190Y-50369761D01*
X94042380Y-48369761D01*
X95851904Y-50369761D02*
X94709047Y-50369761D01*
X95280476Y-50369761D02*
X95280476Y-48369761D01*
X95090000Y-48655476D01*
X94899523Y-48845952D01*
X94709047Y-48941190D01*
X98256666Y-58679285D02*
X98161428Y-58774523D01*
X97875714Y-58869761D01*
X97685238Y-58869761D01*
X97399523Y-58774523D01*
X97209047Y-58584047D01*
X97113809Y-58393571D01*
X97018571Y-58012619D01*
X97018571Y-57726904D01*
X97113809Y-57345952D01*
X97209047Y-57155476D01*
X97399523Y-56965000D01*
X97685238Y-56869761D01*
X97875714Y-56869761D01*
X98161428Y-56965000D01*
X98256666Y-57060238D01*
X99970952Y-57536428D02*
X99970952Y-58869761D01*
X99494761Y-56774523D02*
X99018571Y-58203095D01*
X100256666Y-58203095D01*
X94756666Y-61179285D02*
X94661428Y-61274523D01*
X94375714Y-61369761D01*
X94185238Y-61369761D01*
X93899523Y-61274523D01*
X93709047Y-61084047D01*
X93613809Y-60893571D01*
X93518571Y-60512619D01*
X93518571Y-60226904D01*
X93613809Y-59845952D01*
X93709047Y-59655476D01*
X93899523Y-59465000D01*
X94185238Y-59369761D01*
X94375714Y-59369761D01*
X94661428Y-59465000D01*
X94756666Y-59560238D01*
X95423333Y-59369761D02*
X96661428Y-59369761D01*
X95994761Y-60131666D01*
X96280476Y-60131666D01*
X96470952Y-60226904D01*
X96566190Y-60322142D01*
X96661428Y-60512619D01*
X96661428Y-60988809D01*
X96566190Y-61179285D01*
X96470952Y-61274523D01*
X96280476Y-61369761D01*
X95709047Y-61369761D01*
X95518571Y-61274523D01*
X95423333Y-61179285D01*
X91256666Y-63679285D02*
X91161428Y-63774523D01*
X90875714Y-63869761D01*
X90685238Y-63869761D01*
X90399523Y-63774523D01*
X90209047Y-63584047D01*
X90113809Y-63393571D01*
X90018571Y-63012619D01*
X90018571Y-62726904D01*
X90113809Y-62345952D01*
X90209047Y-62155476D01*
X90399523Y-61965000D01*
X90685238Y-61869761D01*
X90875714Y-61869761D01*
X91161428Y-61965000D01*
X91256666Y-62060238D01*
X92018571Y-62060238D02*
X92113809Y-61965000D01*
X92304285Y-61869761D01*
X92780476Y-61869761D01*
X92970952Y-61965000D01*
X93066190Y-62060238D01*
X93161428Y-62250714D01*
X93161428Y-62441190D01*
X93066190Y-62726904D01*
X91923333Y-63869761D01*
X93161428Y-63869761D01*
X87756666Y-66179285D02*
X87661428Y-66274523D01*
X87375714Y-66369761D01*
X87185238Y-66369761D01*
X86899523Y-66274523D01*
X86709047Y-66084047D01*
X86613809Y-65893571D01*
X86518571Y-65512619D01*
X86518571Y-65226904D01*
X86613809Y-64845952D01*
X86709047Y-64655476D01*
X86899523Y-64465000D01*
X87185238Y-64369761D01*
X87375714Y-64369761D01*
X87661428Y-64465000D01*
X87756666Y-64560238D01*
X89661428Y-66369761D02*
X88518571Y-66369761D01*
X89090000Y-66369761D02*
X89090000Y-64369761D01*
X88899523Y-64655476D01*
X88709047Y-64845952D01*
X88518571Y-64941190D01*
D11*
X86090000Y-47965000D02*
X86090000Y-66965000D01*
X100590000Y-66965000D02*
X86090000Y-66965000D01*
X100590000Y-66965000D02*
X100590000Y-47965000D01*
X86090000Y-47965000D02*
X100590000Y-47965000D01*
D12*
G04 #@! TO.C,D1*
X88090000Y-59565000D02*
X88590000Y-60465000D01*
X88590000Y-60465000D02*
X87590000Y-60465000D01*
X87590000Y-60465000D02*
X88090000Y-59565000D01*
X88590000Y-59465000D02*
X87590000Y-59465000D01*
G04 #@! TO.C,D2*
X92090000Y-56965000D02*
X91090000Y-56965000D01*
X91090000Y-57965000D02*
X91590000Y-57065000D01*
X92090000Y-57965000D02*
X91090000Y-57965000D01*
X91590000Y-57065000D02*
X92090000Y-57965000D01*
G04 #@! TO.C,D3*
X95590000Y-54465000D02*
X94590000Y-54465000D01*
X94590000Y-55465000D02*
X95090000Y-54565000D01*
X95590000Y-55465000D02*
X94590000Y-55465000D01*
X95090000Y-54565000D02*
X95590000Y-55465000D01*
G04 #@! TO.C,D4*
X98590000Y-52065000D02*
X99090000Y-52965000D01*
X99090000Y-52965000D02*
X98090000Y-52965000D01*
X98090000Y-52965000D02*
X98590000Y-52065000D01*
X99090000Y-51965000D02*
X98090000Y-51965000D01*
G04 #@! TO.C,D5*
X103090000Y-59565000D02*
X103590000Y-60465000D01*
X103590000Y-60465000D02*
X102590000Y-60465000D01*
X102590000Y-60465000D02*
X103090000Y-59565000D01*
X103590000Y-59465000D02*
X102590000Y-59465000D01*
G04 #@! TO.C,D6*
X107090000Y-56965000D02*
X106090000Y-56965000D01*
X106090000Y-57965000D02*
X106590000Y-57065000D01*
X107090000Y-57965000D02*
X106090000Y-57965000D01*
X106590000Y-57065000D02*
X107090000Y-57965000D01*
G04 #@! TO.C,D7*
X110090000Y-54565000D02*
X110590000Y-55465000D01*
X110590000Y-55465000D02*
X109590000Y-55465000D01*
X109590000Y-55465000D02*
X110090000Y-54565000D01*
X110590000Y-54465000D02*
X109590000Y-54465000D01*
G04 #@! TO.C,D8*
X114090000Y-51965000D02*
X113090000Y-51965000D01*
X113090000Y-52965000D02*
X113590000Y-52065000D01*
X114090000Y-52965000D02*
X113090000Y-52965000D01*
X113590000Y-52065000D02*
X114090000Y-52965000D01*
G04 #@! TO.C,D9*
X118590000Y-59465000D02*
X117590000Y-59465000D01*
X117590000Y-60465000D02*
X118090000Y-59565000D01*
X118590000Y-60465000D02*
X117590000Y-60465000D01*
X118090000Y-59565000D02*
X118590000Y-60465000D01*
G04 #@! TO.C,D10*
X121590000Y-57065000D02*
X122090000Y-57965000D01*
X122090000Y-57965000D02*
X121090000Y-57965000D01*
X121090000Y-57965000D02*
X121590000Y-57065000D01*
X122090000Y-56965000D02*
X121090000Y-56965000D01*
G04 #@! TO.C,D11*
X125590000Y-54465000D02*
X124590000Y-54465000D01*
X124590000Y-55465000D02*
X125090000Y-54565000D01*
X125590000Y-55465000D02*
X124590000Y-55465000D01*
X125090000Y-54565000D02*
X125590000Y-55465000D01*
G04 #@! TO.C,D12*
X128590000Y-52065000D02*
X129090000Y-52965000D01*
X129090000Y-52965000D02*
X128090000Y-52965000D01*
X128090000Y-52965000D02*
X128590000Y-52065000D01*
X129090000Y-51965000D02*
X128090000Y-51965000D01*
G04 #@! TO.C,SW1*
X86090000Y-82965000D02*
X86090000Y-81965000D01*
X86090000Y-81965000D02*
X87090000Y-81965000D01*
X99090000Y-95965000D02*
X100090000Y-95965000D01*
X100090000Y-95965000D02*
X100090000Y-94965000D01*
X100090000Y-82965000D02*
X100090000Y-81965000D01*
X100090000Y-81965000D02*
X99090000Y-81965000D01*
X86090000Y-94965000D02*
X86090000Y-95965000D01*
X87090000Y-95965000D02*
X86090000Y-95965000D01*
G04 #@! TO.C,SW2*
X106140000Y-95965000D02*
X105140000Y-95965000D01*
X105140000Y-94965000D02*
X105140000Y-95965000D01*
X119140000Y-81965000D02*
X118140000Y-81965000D01*
X119140000Y-82965000D02*
X119140000Y-81965000D01*
X119140000Y-95965000D02*
X119140000Y-94965000D01*
X118140000Y-95965000D02*
X119140000Y-95965000D01*
X105140000Y-81965000D02*
X106140000Y-81965000D01*
X105140000Y-82965000D02*
X105140000Y-81965000D01*
G04 #@! TO.C,SW3*
X124190000Y-82965000D02*
X124190000Y-81965000D01*
X124190000Y-81965000D02*
X125190000Y-81965000D01*
X137190000Y-95965000D02*
X138190000Y-95965000D01*
X138190000Y-95965000D02*
X138190000Y-94965000D01*
X138190000Y-82965000D02*
X138190000Y-81965000D01*
X138190000Y-81965000D02*
X137190000Y-81965000D01*
X124190000Y-94965000D02*
X124190000Y-95965000D01*
X125190000Y-95965000D02*
X124190000Y-95965000D01*
G04 #@! TO.C,SW4*
X144240000Y-95965000D02*
X143240000Y-95965000D01*
X143240000Y-94965000D02*
X143240000Y-95965000D01*
X157240000Y-81965000D02*
X156240000Y-81965000D01*
X157240000Y-82965000D02*
X157240000Y-81965000D01*
X157240000Y-95965000D02*
X157240000Y-94965000D01*
X156240000Y-95965000D02*
X157240000Y-95965000D01*
X143240000Y-81965000D02*
X144240000Y-81965000D01*
X143240000Y-82965000D02*
X143240000Y-81965000D01*
G04 #@! TO.C,SW5*
X87090000Y-115015000D02*
X86090000Y-115015000D01*
X86090000Y-114015000D02*
X86090000Y-115015000D01*
X100090000Y-101015000D02*
X99090000Y-101015000D01*
X100090000Y-102015000D02*
X100090000Y-101015000D01*
X100090000Y-115015000D02*
X100090000Y-114015000D01*
X99090000Y-115015000D02*
X100090000Y-115015000D01*
X86090000Y-101015000D02*
X87090000Y-101015000D01*
X86090000Y-102015000D02*
X86090000Y-101015000D01*
G04 #@! TO.C,SW6*
X105140000Y-102015000D02*
X105140000Y-101015000D01*
X105140000Y-101015000D02*
X106140000Y-101015000D01*
X118140000Y-115015000D02*
X119140000Y-115015000D01*
X119140000Y-115015000D02*
X119140000Y-114015000D01*
X119140000Y-102015000D02*
X119140000Y-101015000D01*
X119140000Y-101015000D02*
X118140000Y-101015000D01*
X105140000Y-114015000D02*
X105140000Y-115015000D01*
X106140000Y-115015000D02*
X105140000Y-115015000D01*
G04 #@! TO.C,SW7*
X125190000Y-115015000D02*
X124190000Y-115015000D01*
X124190000Y-114015000D02*
X124190000Y-115015000D01*
X138190000Y-101015000D02*
X137190000Y-101015000D01*
X138190000Y-102015000D02*
X138190000Y-101015000D01*
X138190000Y-115015000D02*
X138190000Y-114015000D01*
X137190000Y-115015000D02*
X138190000Y-115015000D01*
X124190000Y-101015000D02*
X125190000Y-101015000D01*
X124190000Y-102015000D02*
X124190000Y-101015000D01*
G04 #@! TO.C,SW8*
X143240000Y-102015000D02*
X143240000Y-101015000D01*
X143240000Y-101015000D02*
X144240000Y-101015000D01*
X156240000Y-115015000D02*
X157240000Y-115015000D01*
X157240000Y-115015000D02*
X157240000Y-114015000D01*
X157240000Y-102015000D02*
X157240000Y-101015000D01*
X157240000Y-101015000D02*
X156240000Y-101015000D01*
X143240000Y-114015000D02*
X143240000Y-115015000D01*
X144240000Y-115015000D02*
X143240000Y-115015000D01*
G04 #@! TO.C,SW9*
X87090000Y-134065000D02*
X86090000Y-134065000D01*
X86090000Y-133065000D02*
X86090000Y-134065000D01*
X100090000Y-120065000D02*
X99090000Y-120065000D01*
X100090000Y-121065000D02*
X100090000Y-120065000D01*
X100090000Y-134065000D02*
X100090000Y-133065000D01*
X99090000Y-134065000D02*
X100090000Y-134065000D01*
X86090000Y-120065000D02*
X87090000Y-120065000D01*
X86090000Y-121065000D02*
X86090000Y-120065000D01*
G04 #@! TO.C,SW10*
X105140000Y-121065000D02*
X105140000Y-120065000D01*
X105140000Y-120065000D02*
X106140000Y-120065000D01*
X118140000Y-134065000D02*
X119140000Y-134065000D01*
X119140000Y-134065000D02*
X119140000Y-133065000D01*
X119140000Y-121065000D02*
X119140000Y-120065000D01*
X119140000Y-120065000D02*
X118140000Y-120065000D01*
X105140000Y-133065000D02*
X105140000Y-134065000D01*
X106140000Y-134065000D02*
X105140000Y-134065000D01*
G04 #@! TO.C,SW11*
X124190000Y-121065000D02*
X124190000Y-120065000D01*
X124190000Y-120065000D02*
X125190000Y-120065000D01*
X137190000Y-134065000D02*
X138190000Y-134065000D01*
X138190000Y-134065000D02*
X138190000Y-133065000D01*
X138190000Y-121065000D02*
X138190000Y-120065000D01*
X138190000Y-120065000D02*
X137190000Y-120065000D01*
X124190000Y-133065000D02*
X124190000Y-134065000D01*
X125190000Y-134065000D02*
X124190000Y-134065000D01*
G04 #@! TO.C,SW12*
X144240000Y-134065000D02*
X143240000Y-134065000D01*
X143240000Y-133065000D02*
X143240000Y-134065000D01*
X157240000Y-120065000D02*
X156240000Y-120065000D01*
X157240000Y-121065000D02*
X157240000Y-120065000D01*
X157240000Y-134065000D02*
X157240000Y-133065000D01*
X156240000Y-134065000D02*
X157240000Y-134065000D01*
X143240000Y-120065000D02*
X144240000Y-120065000D01*
X143240000Y-121065000D02*
X143240000Y-120065000D01*
G04 #@! TO.C,SW13*
X130590000Y-42715000D02*
X124590000Y-42715000D01*
X124590000Y-42715000D02*
X124590000Y-42965000D01*
X130590000Y-42715000D02*
X130590000Y-42965000D01*
X130590000Y-46215000D02*
X130590000Y-45965000D01*
X130590000Y-46215000D02*
X124590000Y-46215000D01*
X124590000Y-46215000D02*
X124590000Y-45965000D01*
G04 #@! TO.C,U1*
X166390000Y-57215000D02*
X166390000Y-57515000D01*
X166540000Y-57115000D02*
X166540000Y-57615000D01*
X166690000Y-57015000D02*
X166690000Y-57715000D01*
X166190000Y-57365000D02*
X166840000Y-56865000D01*
X166840000Y-57865000D02*
X166190000Y-57365000D01*
X166840000Y-56865000D02*
X166840000Y-57865000D01*
X167190000Y-61115000D02*
X167190000Y-53615000D01*
X165890000Y-61115000D02*
X167190000Y-61115000D01*
X165890000Y-53615000D02*
X165890000Y-61115000D01*
X167190000Y-53615000D02*
X165890000Y-53615000D01*
X164290000Y-48465000D02*
X163290000Y-48465000D01*
X164290000Y-66265000D02*
X163290000Y-66265000D01*
X164290000Y-48465000D02*
X164290000Y-49465000D01*
X164290000Y-66265000D02*
X164290000Y-65315000D01*
X132290000Y-48465000D02*
X131240000Y-48465000D01*
X132240000Y-66265000D02*
X131240000Y-66265000D01*
X131240000Y-48465000D02*
X131240000Y-49465000D01*
X131240000Y-66265000D02*
X131240000Y-65255000D01*
G04 #@! TD*
D13*
G04 #@! TO.C,D1*
X87441500Y-56316500D02*
X87441500Y-57613500D01*
X88738500Y-57613500D01*
X88738500Y-56316500D01*
X87441500Y-56316500D01*
X88738500Y-62965000D02*
G75*
G03*
X88738500Y-62965000I-648500J0D01*
G01*
G04 #@! TD*
G04 #@! TO.C,D2*
X92238500Y-60465000D02*
G75*
G03*
X92238500Y-60465000I-648500J0D01*
G01*
X90941500Y-53816500D02*
X90941500Y-55113500D01*
X92238500Y-55113500D01*
X92238500Y-53816500D01*
X90941500Y-53816500D01*
G04 #@! TD*
G04 #@! TO.C,D3*
X95738500Y-57965000D02*
G75*
G03*
X95738500Y-57965000I-648500J0D01*
G01*
X94441500Y-51316500D02*
X94441500Y-52613500D01*
X95738500Y-52613500D01*
X95738500Y-51316500D01*
X94441500Y-51316500D01*
G04 #@! TD*
G04 #@! TO.C,D4*
X97941500Y-48816500D02*
X97941500Y-50113500D01*
X99238500Y-50113500D01*
X99238500Y-48816500D01*
X97941500Y-48816500D01*
X99238500Y-55465000D02*
G75*
G03*
X99238500Y-55465000I-648500J0D01*
G01*
G04 #@! TD*
G04 #@! TO.C,D5*
X102441500Y-56316500D02*
X102441500Y-57613500D01*
X103738500Y-57613500D01*
X103738500Y-56316500D01*
X102441500Y-56316500D01*
X103738500Y-62965000D02*
G75*
G03*
X103738500Y-62965000I-648500J0D01*
G01*
G04 #@! TD*
G04 #@! TO.C,D6*
X107238500Y-60465000D02*
G75*
G03*
X107238500Y-60465000I-648500J0D01*
G01*
X105941500Y-53816500D02*
X105941500Y-55113500D01*
X107238500Y-55113500D01*
X107238500Y-53816500D01*
X105941500Y-53816500D01*
G04 #@! TD*
G04 #@! TO.C,D7*
X109441500Y-51316500D02*
X109441500Y-52613500D01*
X110738500Y-52613500D01*
X110738500Y-51316500D01*
X109441500Y-51316500D01*
X110738500Y-57965000D02*
G75*
G03*
X110738500Y-57965000I-648500J0D01*
G01*
G04 #@! TD*
G04 #@! TO.C,D8*
X114238500Y-55465000D02*
G75*
G03*
X114238500Y-55465000I-648500J0D01*
G01*
X112941500Y-48816500D02*
X112941500Y-50113500D01*
X114238500Y-50113500D01*
X114238500Y-48816500D01*
X112941500Y-48816500D01*
G04 #@! TD*
G04 #@! TO.C,D9*
X118738500Y-62965000D02*
G75*
G03*
X118738500Y-62965000I-648500J0D01*
G01*
X117441500Y-56316500D02*
X117441500Y-57613500D01*
X118738500Y-57613500D01*
X118738500Y-56316500D01*
X117441500Y-56316500D01*
G04 #@! TD*
G04 #@! TO.C,D10*
X120941500Y-53816500D02*
X120941500Y-55113500D01*
X122238500Y-55113500D01*
X122238500Y-53816500D01*
X120941500Y-53816500D01*
X122238500Y-60465000D02*
G75*
G03*
X122238500Y-60465000I-648500J0D01*
G01*
G04 #@! TD*
G04 #@! TO.C,D11*
X125738500Y-57965000D02*
G75*
G03*
X125738500Y-57965000I-648500J0D01*
G01*
X124441500Y-51316500D02*
X124441500Y-52613500D01*
X125738500Y-52613500D01*
X125738500Y-51316500D01*
X124441500Y-51316500D01*
G04 #@! TD*
G04 #@! TO.C,D12*
X127941500Y-48816500D02*
X127941500Y-50113500D01*
X129238500Y-50113500D01*
X129238500Y-48816500D01*
X127941500Y-48816500D01*
X129238500Y-55465000D02*
G75*
G03*
X129238500Y-55465000I-648500J0D01*
G01*
G04 #@! TD*
X95380000Y-84835000D02*
X95880000Y-84835000D01*
X95380000Y-82935000D02*
X95880000Y-82935000D01*
X95880000Y-84835000D02*
G75*
G03*
X95880000Y-82935000I0J950000D01*
G01*
X95380000Y-82935000D02*
G75*
G03*
X95380000Y-84835000I0J-950000D01*
G01*
X89030000Y-87375000D02*
X89530000Y-87375000D01*
X89030000Y-85475000D02*
X89530000Y-85475000D01*
X89530000Y-87375000D02*
G75*
G03*
X89530000Y-85475000I0J950000D01*
G01*
X89030000Y-85475000D02*
G75*
G03*
X89030000Y-87375000I0J-950000D01*
G01*
X108080000Y-87375000D02*
X108580000Y-87375000D01*
X108080000Y-85475000D02*
X108580000Y-85475000D01*
X108580000Y-87375000D02*
G75*
G03*
X108580000Y-85475000I0J950000D01*
G01*
X108080000Y-85475000D02*
G75*
G03*
X108080000Y-87375000I0J-950000D01*
G01*
X114430000Y-84835000D02*
X114930000Y-84835000D01*
X114430000Y-82935000D02*
X114930000Y-82935000D01*
X114930000Y-84835000D02*
G75*
G03*
X114930000Y-82935000I0J950000D01*
G01*
X114430000Y-82935000D02*
G75*
G03*
X114430000Y-84835000I0J-950000D01*
G01*
X133480000Y-84835000D02*
X133980000Y-84835000D01*
X133480000Y-82935000D02*
X133980000Y-82935000D01*
X133980000Y-84835000D02*
G75*
G03*
X133980000Y-82935000I0J950000D01*
G01*
X133480000Y-82935000D02*
G75*
G03*
X133480000Y-84835000I0J-950000D01*
G01*
X127130000Y-87375000D02*
X127630000Y-87375000D01*
X127130000Y-85475000D02*
X127630000Y-85475000D01*
X127630000Y-87375000D02*
G75*
G03*
X127630000Y-85475000I0J950000D01*
G01*
X127130000Y-85475000D02*
G75*
G03*
X127130000Y-87375000I0J-950000D01*
G01*
X146180000Y-87375000D02*
X146680000Y-87375000D01*
X146180000Y-85475000D02*
X146680000Y-85475000D01*
X146680000Y-87375000D02*
G75*
G03*
X146680000Y-85475000I0J950000D01*
G01*
X146180000Y-85475000D02*
G75*
G03*
X146180000Y-87375000I0J-950000D01*
G01*
X152530000Y-84835000D02*
X153030000Y-84835000D01*
X152530000Y-82935000D02*
X153030000Y-82935000D01*
X153030000Y-84835000D02*
G75*
G03*
X153030000Y-82935000I0J950000D01*
G01*
X152530000Y-82935000D02*
G75*
G03*
X152530000Y-84835000I0J-950000D01*
G01*
X89030000Y-106425000D02*
X89530000Y-106425000D01*
X89030000Y-104525000D02*
X89530000Y-104525000D01*
X89530000Y-106425000D02*
G75*
G03*
X89530000Y-104525000I0J950000D01*
G01*
X89030000Y-104525000D02*
G75*
G03*
X89030000Y-106425000I0J-950000D01*
G01*
X95380000Y-103885000D02*
X95880000Y-103885000D01*
X95380000Y-101985000D02*
X95880000Y-101985000D01*
X95880000Y-103885000D02*
G75*
G03*
X95880000Y-101985000I0J950000D01*
G01*
X95380000Y-101985000D02*
G75*
G03*
X95380000Y-103885000I0J-950000D01*
G01*
X114430000Y-103885000D02*
X114930000Y-103885000D01*
X114430000Y-101985000D02*
X114930000Y-101985000D01*
X114930000Y-103885000D02*
G75*
G03*
X114930000Y-101985000I0J950000D01*
G01*
X114430000Y-101985000D02*
G75*
G03*
X114430000Y-103885000I0J-950000D01*
G01*
X108080000Y-106425000D02*
X108580000Y-106425000D01*
X108080000Y-104525000D02*
X108580000Y-104525000D01*
X108580000Y-106425000D02*
G75*
G03*
X108580000Y-104525000I0J950000D01*
G01*
X108080000Y-104525000D02*
G75*
G03*
X108080000Y-106425000I0J-950000D01*
G01*
X127130000Y-106425000D02*
X127630000Y-106425000D01*
X127130000Y-104525000D02*
X127630000Y-104525000D01*
X127630000Y-106425000D02*
G75*
G03*
X127630000Y-104525000I0J950000D01*
G01*
X127130000Y-104525000D02*
G75*
G03*
X127130000Y-106425000I0J-950000D01*
G01*
X133480000Y-103885000D02*
X133980000Y-103885000D01*
X133480000Y-101985000D02*
X133980000Y-101985000D01*
X133980000Y-103885000D02*
G75*
G03*
X133980000Y-101985000I0J950000D01*
G01*
X133480000Y-101985000D02*
G75*
G03*
X133480000Y-103885000I0J-950000D01*
G01*
X152530000Y-103885000D02*
X153030000Y-103885000D01*
X152530000Y-101985000D02*
X153030000Y-101985000D01*
X153030000Y-103885000D02*
G75*
G03*
X153030000Y-101985000I0J950000D01*
G01*
X152530000Y-101985000D02*
G75*
G03*
X152530000Y-103885000I0J-950000D01*
G01*
X146180000Y-106425000D02*
X146680000Y-106425000D01*
X146180000Y-104525000D02*
X146680000Y-104525000D01*
X146680000Y-106425000D02*
G75*
G03*
X146680000Y-104525000I0J950000D01*
G01*
X146180000Y-104525000D02*
G75*
G03*
X146180000Y-106425000I0J-950000D01*
G01*
X89030000Y-125475000D02*
X89530000Y-125475000D01*
X89030000Y-123575000D02*
X89530000Y-123575000D01*
X89530000Y-125475000D02*
G75*
G03*
X89530000Y-123575000I0J950000D01*
G01*
X89030000Y-123575000D02*
G75*
G03*
X89030000Y-125475000I0J-950000D01*
G01*
X95380000Y-122935000D02*
X95880000Y-122935000D01*
X95380000Y-121035000D02*
X95880000Y-121035000D01*
X95880000Y-122935000D02*
G75*
G03*
X95880000Y-121035000I0J950000D01*
G01*
X95380000Y-121035000D02*
G75*
G03*
X95380000Y-122935000I0J-950000D01*
G01*
X114430000Y-122935000D02*
X114930000Y-122935000D01*
X114430000Y-121035000D02*
X114930000Y-121035000D01*
X114930000Y-122935000D02*
G75*
G03*
X114930000Y-121035000I0J950000D01*
G01*
X114430000Y-121035000D02*
G75*
G03*
X114430000Y-122935000I0J-950000D01*
G01*
X108080000Y-125475000D02*
X108580000Y-125475000D01*
X108080000Y-123575000D02*
X108580000Y-123575000D01*
X108580000Y-125475000D02*
G75*
G03*
X108580000Y-123575000I0J950000D01*
G01*
X108080000Y-123575000D02*
G75*
G03*
X108080000Y-125475000I0J-950000D01*
G01*
X133480000Y-122935000D02*
X133980000Y-122935000D01*
X133480000Y-121035000D02*
X133980000Y-121035000D01*
X133980000Y-122935000D02*
G75*
G03*
X133980000Y-121035000I0J950000D01*
G01*
X133480000Y-121035000D02*
G75*
G03*
X133480000Y-122935000I0J-950000D01*
G01*
X127130000Y-125475000D02*
X127630000Y-125475000D01*
X127130000Y-123575000D02*
X127630000Y-123575000D01*
X127630000Y-125475000D02*
G75*
G03*
X127630000Y-123575000I0J950000D01*
G01*
X127130000Y-123575000D02*
G75*
G03*
X127130000Y-125475000I0J-950000D01*
G01*
X146180000Y-125475000D02*
X146680000Y-125475000D01*
X146180000Y-123575000D02*
X146680000Y-123575000D01*
X146680000Y-125475000D02*
G75*
G03*
X146680000Y-123575000I0J950000D01*
G01*
X146180000Y-123575000D02*
G75*
G03*
X146180000Y-125475000I0J-950000D01*
G01*
X152530000Y-122935000D02*
X153030000Y-122935000D01*
X152530000Y-121035000D02*
X153030000Y-121035000D01*
X153030000Y-122935000D02*
G75*
G03*
X153030000Y-121035000I0J950000D01*
G01*
X152530000Y-121035000D02*
G75*
G03*
X152530000Y-122935000I0J-950000D01*
G01*
G04 #@! TO.C,SW13*
X125290000Y-44465000D02*
G75*
G03*
X125290000Y-44465000I-950000J0D01*
G01*
X131790000Y-44465000D02*
G75*
G03*
X131790000Y-44465000I-950000J0D01*
G01*
G04 #@! TD*
G04 #@! TO.C,U1*
X161180000Y-64976400D02*
G75*
G03*
X161180000Y-64976400I-712000J0D01*
G01*
X158640000Y-64976400D02*
G75*
G03*
X158640000Y-64976400I-712000J0D01*
G01*
X156100000Y-64976400D02*
G75*
G03*
X156100000Y-64976400I-712000J0D01*
G01*
X153560000Y-64976400D02*
G75*
G03*
X153560000Y-64976400I-712000J0D01*
G01*
X151020000Y-64976400D02*
G75*
G03*
X151020000Y-64976400I-712000J0D01*
G01*
X148480000Y-64976400D02*
G75*
G03*
X148480000Y-64976400I-712000J0D01*
G01*
X145940000Y-64976400D02*
G75*
G03*
X145940000Y-64976400I-712000J0D01*
G01*
X143400000Y-64976400D02*
G75*
G03*
X143400000Y-64976400I-712000J0D01*
G01*
X140860000Y-64976400D02*
G75*
G03*
X140860000Y-64976400I-712000J0D01*
G01*
X138320000Y-64976400D02*
G75*
G03*
X138320000Y-64976400I-712000J0D01*
G01*
X135780000Y-64976400D02*
G75*
G03*
X135780000Y-64976400I-712000J0D01*
G01*
X133240000Y-64976400D02*
G75*
G03*
X133240000Y-64976400I-712000J0D01*
G01*
X133240000Y-49756400D02*
G75*
G03*
X133240000Y-49756400I-712000J0D01*
G01*
X135780000Y-49756400D02*
G75*
G03*
X135780000Y-49756400I-712000J0D01*
G01*
X138320000Y-49756400D02*
G75*
G03*
X138320000Y-49756400I-712000J0D01*
G01*
X140860000Y-49756400D02*
G75*
G03*
X140860000Y-49756400I-712000J0D01*
G01*
X143400000Y-49756400D02*
G75*
G03*
X143400000Y-49756400I-712000J0D01*
G01*
X145940000Y-49756400D02*
G75*
G03*
X145940000Y-49756400I-712000J0D01*
G01*
X148480000Y-49756400D02*
G75*
G03*
X148480000Y-49756400I-712000J0D01*
G01*
X151020000Y-49756400D02*
G75*
G03*
X151020000Y-49756400I-712000J0D01*
G01*
X153560000Y-49756400D02*
G75*
G03*
X153560000Y-49756400I-712000J0D01*
G01*
X156100000Y-49756400D02*
G75*
G03*
X156100000Y-49756400I-712000J0D01*
G01*
X158640000Y-49756400D02*
G75*
G03*
X158640000Y-49756400I-712000J0D01*
G01*
X161180000Y-49756400D02*
G75*
G03*
X161180000Y-49756400I-712000J0D01*
G01*
G04 #@! TD*
G04 #@! TO.C,SW1*
D12*
X91756666Y-86269761D02*
X91899523Y-86317380D01*
X92137619Y-86317380D01*
X92232857Y-86269761D01*
X92280476Y-86222142D01*
X92328095Y-86126904D01*
X92328095Y-86031666D01*
X92280476Y-85936428D01*
X92232857Y-85888809D01*
X92137619Y-85841190D01*
X91947142Y-85793571D01*
X91851904Y-85745952D01*
X91804285Y-85698333D01*
X91756666Y-85603095D01*
X91756666Y-85507857D01*
X91804285Y-85412619D01*
X91851904Y-85365000D01*
X91947142Y-85317380D01*
X92185238Y-85317380D01*
X92328095Y-85365000D01*
X92661428Y-85317380D02*
X92899523Y-86317380D01*
X93090000Y-85603095D01*
X93280476Y-86317380D01*
X93518571Y-85317380D01*
X94423333Y-86317380D02*
X93851904Y-86317380D01*
X94137619Y-86317380D02*
X94137619Y-85317380D01*
X94042380Y-85460238D01*
X93947142Y-85555476D01*
X93851904Y-85603095D01*
G04 #@! TO.C,SW2*
X110806666Y-86269761D02*
X110949523Y-86317380D01*
X111187619Y-86317380D01*
X111282857Y-86269761D01*
X111330476Y-86222142D01*
X111378095Y-86126904D01*
X111378095Y-86031666D01*
X111330476Y-85936428D01*
X111282857Y-85888809D01*
X111187619Y-85841190D01*
X110997142Y-85793571D01*
X110901904Y-85745952D01*
X110854285Y-85698333D01*
X110806666Y-85603095D01*
X110806666Y-85507857D01*
X110854285Y-85412619D01*
X110901904Y-85365000D01*
X110997142Y-85317380D01*
X111235238Y-85317380D01*
X111378095Y-85365000D01*
X111711428Y-85317380D02*
X111949523Y-86317380D01*
X112140000Y-85603095D01*
X112330476Y-86317380D01*
X112568571Y-85317380D01*
X112901904Y-85412619D02*
X112949523Y-85365000D01*
X113044761Y-85317380D01*
X113282857Y-85317380D01*
X113378095Y-85365000D01*
X113425714Y-85412619D01*
X113473333Y-85507857D01*
X113473333Y-85603095D01*
X113425714Y-85745952D01*
X112854285Y-86317380D01*
X113473333Y-86317380D01*
G04 #@! TO.C,SW3*
X129856666Y-86269761D02*
X129999523Y-86317380D01*
X130237619Y-86317380D01*
X130332857Y-86269761D01*
X130380476Y-86222142D01*
X130428095Y-86126904D01*
X130428095Y-86031666D01*
X130380476Y-85936428D01*
X130332857Y-85888809D01*
X130237619Y-85841190D01*
X130047142Y-85793571D01*
X129951904Y-85745952D01*
X129904285Y-85698333D01*
X129856666Y-85603095D01*
X129856666Y-85507857D01*
X129904285Y-85412619D01*
X129951904Y-85365000D01*
X130047142Y-85317380D01*
X130285238Y-85317380D01*
X130428095Y-85365000D01*
X130761428Y-85317380D02*
X130999523Y-86317380D01*
X131190000Y-85603095D01*
X131380476Y-86317380D01*
X131618571Y-85317380D01*
X131904285Y-85317380D02*
X132523333Y-85317380D01*
X132190000Y-85698333D01*
X132332857Y-85698333D01*
X132428095Y-85745952D01*
X132475714Y-85793571D01*
X132523333Y-85888809D01*
X132523333Y-86126904D01*
X132475714Y-86222142D01*
X132428095Y-86269761D01*
X132332857Y-86317380D01*
X132047142Y-86317380D01*
X131951904Y-86269761D01*
X131904285Y-86222142D01*
G04 #@! TO.C,SW4*
X148906666Y-86269761D02*
X149049523Y-86317380D01*
X149287619Y-86317380D01*
X149382857Y-86269761D01*
X149430476Y-86222142D01*
X149478095Y-86126904D01*
X149478095Y-86031666D01*
X149430476Y-85936428D01*
X149382857Y-85888809D01*
X149287619Y-85841190D01*
X149097142Y-85793571D01*
X149001904Y-85745952D01*
X148954285Y-85698333D01*
X148906666Y-85603095D01*
X148906666Y-85507857D01*
X148954285Y-85412619D01*
X149001904Y-85365000D01*
X149097142Y-85317380D01*
X149335238Y-85317380D01*
X149478095Y-85365000D01*
X149811428Y-85317380D02*
X150049523Y-86317380D01*
X150240000Y-85603095D01*
X150430476Y-86317380D01*
X150668571Y-85317380D01*
X151478095Y-85650714D02*
X151478095Y-86317380D01*
X151240000Y-85269761D02*
X151001904Y-85984047D01*
X151620952Y-85984047D01*
G04 #@! TO.C,SW5*
X91756666Y-105319761D02*
X91899523Y-105367380D01*
X92137619Y-105367380D01*
X92232857Y-105319761D01*
X92280476Y-105272142D01*
X92328095Y-105176904D01*
X92328095Y-105081666D01*
X92280476Y-104986428D01*
X92232857Y-104938809D01*
X92137619Y-104891190D01*
X91947142Y-104843571D01*
X91851904Y-104795952D01*
X91804285Y-104748333D01*
X91756666Y-104653095D01*
X91756666Y-104557857D01*
X91804285Y-104462619D01*
X91851904Y-104415000D01*
X91947142Y-104367380D01*
X92185238Y-104367380D01*
X92328095Y-104415000D01*
X92661428Y-104367380D02*
X92899523Y-105367380D01*
X93090000Y-104653095D01*
X93280476Y-105367380D01*
X93518571Y-104367380D01*
X94375714Y-104367380D02*
X93899523Y-104367380D01*
X93851904Y-104843571D01*
X93899523Y-104795952D01*
X93994761Y-104748333D01*
X94232857Y-104748333D01*
X94328095Y-104795952D01*
X94375714Y-104843571D01*
X94423333Y-104938809D01*
X94423333Y-105176904D01*
X94375714Y-105272142D01*
X94328095Y-105319761D01*
X94232857Y-105367380D01*
X93994761Y-105367380D01*
X93899523Y-105319761D01*
X93851904Y-105272142D01*
G04 #@! TO.C,SW6*
X110712633Y-105319761D02*
X110849538Y-105367380D01*
X111087633Y-105367380D01*
X111188824Y-105319761D01*
X111242395Y-105272142D01*
X111301919Y-105176904D01*
X111313824Y-105081666D01*
X111278110Y-104986428D01*
X111236443Y-104938809D01*
X111147157Y-104891190D01*
X110962633Y-104843571D01*
X110873348Y-104795952D01*
X110831681Y-104748333D01*
X110795967Y-104653095D01*
X110807872Y-104557857D01*
X110867395Y-104462619D01*
X110920967Y-104415000D01*
X111022157Y-104367380D01*
X111260252Y-104367380D01*
X111397157Y-104415000D01*
X111736443Y-104367380D02*
X111849538Y-105367380D01*
X112129300Y-104653095D01*
X112230491Y-105367380D01*
X112593586Y-104367380D01*
X113403110Y-104367380D02*
X113212633Y-104367380D01*
X113111443Y-104415000D01*
X113057872Y-104462619D01*
X112944776Y-104605476D01*
X112873348Y-104795952D01*
X112825729Y-105176904D01*
X112861443Y-105272142D01*
X112903110Y-105319761D01*
X112992395Y-105367380D01*
X113182872Y-105367380D01*
X113284062Y-105319761D01*
X113337633Y-105272142D01*
X113397157Y-105176904D01*
X113426919Y-104938809D01*
X113391205Y-104843571D01*
X113349538Y-104795952D01*
X113260252Y-104748333D01*
X113069776Y-104748333D01*
X112968586Y-104795952D01*
X112915014Y-104843571D01*
X112855491Y-104938809D01*
G04 #@! TO.C,SW7*
X129856666Y-105319761D02*
X129999523Y-105367380D01*
X130237619Y-105367380D01*
X130332857Y-105319761D01*
X130380476Y-105272142D01*
X130428095Y-105176904D01*
X130428095Y-105081666D01*
X130380476Y-104986428D01*
X130332857Y-104938809D01*
X130237619Y-104891190D01*
X130047142Y-104843571D01*
X129951904Y-104795952D01*
X129904285Y-104748333D01*
X129856666Y-104653095D01*
X129856666Y-104557857D01*
X129904285Y-104462619D01*
X129951904Y-104415000D01*
X130047142Y-104367380D01*
X130285238Y-104367380D01*
X130428095Y-104415000D01*
X130761428Y-104367380D02*
X130999523Y-105367380D01*
X131190000Y-104653095D01*
X131380476Y-105367380D01*
X131618571Y-104367380D01*
X131904285Y-104367380D02*
X132570952Y-104367380D01*
X132142380Y-105367380D01*
G04 #@! TO.C,SW8*
X148906666Y-105319761D02*
X149049523Y-105367380D01*
X149287619Y-105367380D01*
X149382857Y-105319761D01*
X149430476Y-105272142D01*
X149478095Y-105176904D01*
X149478095Y-105081666D01*
X149430476Y-104986428D01*
X149382857Y-104938809D01*
X149287619Y-104891190D01*
X149097142Y-104843571D01*
X149001904Y-104795952D01*
X148954285Y-104748333D01*
X148906666Y-104653095D01*
X148906666Y-104557857D01*
X148954285Y-104462619D01*
X149001904Y-104415000D01*
X149097142Y-104367380D01*
X149335238Y-104367380D01*
X149478095Y-104415000D01*
X149811428Y-104367380D02*
X150049523Y-105367380D01*
X150240000Y-104653095D01*
X150430476Y-105367380D01*
X150668571Y-104367380D01*
X151192380Y-104795952D02*
X151097142Y-104748333D01*
X151049523Y-104700714D01*
X151001904Y-104605476D01*
X151001904Y-104557857D01*
X151049523Y-104462619D01*
X151097142Y-104415000D01*
X151192380Y-104367380D01*
X151382857Y-104367380D01*
X151478095Y-104415000D01*
X151525714Y-104462619D01*
X151573333Y-104557857D01*
X151573333Y-104605476D01*
X151525714Y-104700714D01*
X151478095Y-104748333D01*
X151382857Y-104795952D01*
X151192380Y-104795952D01*
X151097142Y-104843571D01*
X151049523Y-104891190D01*
X151001904Y-104986428D01*
X151001904Y-105176904D01*
X151049523Y-105272142D01*
X151097142Y-105319761D01*
X151192380Y-105367380D01*
X151382857Y-105367380D01*
X151478095Y-105319761D01*
X151525714Y-105272142D01*
X151573333Y-105176904D01*
X151573333Y-104986428D01*
X151525714Y-104891190D01*
X151478095Y-104843571D01*
X151382857Y-104795952D01*
G04 #@! TO.C,SW9*
X91756666Y-124369761D02*
X91899523Y-124417380D01*
X92137619Y-124417380D01*
X92232857Y-124369761D01*
X92280476Y-124322142D01*
X92328095Y-124226904D01*
X92328095Y-124131666D01*
X92280476Y-124036428D01*
X92232857Y-123988809D01*
X92137619Y-123941190D01*
X91947142Y-123893571D01*
X91851904Y-123845952D01*
X91804285Y-123798333D01*
X91756666Y-123703095D01*
X91756666Y-123607857D01*
X91804285Y-123512619D01*
X91851904Y-123465000D01*
X91947142Y-123417380D01*
X92185238Y-123417380D01*
X92328095Y-123465000D01*
X92661428Y-123417380D02*
X92899523Y-124417380D01*
X93090000Y-123703095D01*
X93280476Y-124417380D01*
X93518571Y-123417380D01*
X93947142Y-124417380D02*
X94137619Y-124417380D01*
X94232857Y-124369761D01*
X94280476Y-124322142D01*
X94375714Y-124179285D01*
X94423333Y-123988809D01*
X94423333Y-123607857D01*
X94375714Y-123512619D01*
X94328095Y-123465000D01*
X94232857Y-123417380D01*
X94042380Y-123417380D01*
X93947142Y-123465000D01*
X93899523Y-123512619D01*
X93851904Y-123607857D01*
X93851904Y-123845952D01*
X93899523Y-123941190D01*
X93947142Y-123988809D01*
X94042380Y-124036428D01*
X94232857Y-124036428D01*
X94328095Y-123988809D01*
X94375714Y-123941190D01*
X94423333Y-123845952D01*
G04 #@! TO.C,SW10*
X110330476Y-124369761D02*
X110473333Y-124417380D01*
X110711428Y-124417380D01*
X110806666Y-124369761D01*
X110854285Y-124322142D01*
X110901904Y-124226904D01*
X110901904Y-124131666D01*
X110854285Y-124036428D01*
X110806666Y-123988809D01*
X110711428Y-123941190D01*
X110520952Y-123893571D01*
X110425714Y-123845952D01*
X110378095Y-123798333D01*
X110330476Y-123703095D01*
X110330476Y-123607857D01*
X110378095Y-123512619D01*
X110425714Y-123465000D01*
X110520952Y-123417380D01*
X110759047Y-123417380D01*
X110901904Y-123465000D01*
X111235238Y-123417380D02*
X111473333Y-124417380D01*
X111663809Y-123703095D01*
X111854285Y-124417380D01*
X112092380Y-123417380D01*
X112997142Y-124417380D02*
X112425714Y-124417380D01*
X112711428Y-124417380D02*
X112711428Y-123417380D01*
X112616190Y-123560238D01*
X112520952Y-123655476D01*
X112425714Y-123703095D01*
X113616190Y-123417380D02*
X113711428Y-123417380D01*
X113806666Y-123465000D01*
X113854285Y-123512619D01*
X113901904Y-123607857D01*
X113949523Y-123798333D01*
X113949523Y-124036428D01*
X113901904Y-124226904D01*
X113854285Y-124322142D01*
X113806666Y-124369761D01*
X113711428Y-124417380D01*
X113616190Y-124417380D01*
X113520952Y-124369761D01*
X113473333Y-124322142D01*
X113425714Y-124226904D01*
X113378095Y-124036428D01*
X113378095Y-123798333D01*
X113425714Y-123607857D01*
X113473333Y-123512619D01*
X113520952Y-123465000D01*
X113616190Y-123417380D01*
G04 #@! TO.C,SW11*
X129380476Y-124369761D02*
X129523333Y-124417380D01*
X129761428Y-124417380D01*
X129856666Y-124369761D01*
X129904285Y-124322142D01*
X129951904Y-124226904D01*
X129951904Y-124131666D01*
X129904285Y-124036428D01*
X129856666Y-123988809D01*
X129761428Y-123941190D01*
X129570952Y-123893571D01*
X129475714Y-123845952D01*
X129428095Y-123798333D01*
X129380476Y-123703095D01*
X129380476Y-123607857D01*
X129428095Y-123512619D01*
X129475714Y-123465000D01*
X129570952Y-123417380D01*
X129809047Y-123417380D01*
X129951904Y-123465000D01*
X130285238Y-123417380D02*
X130523333Y-124417380D01*
X130713809Y-123703095D01*
X130904285Y-124417380D01*
X131142380Y-123417380D01*
X132047142Y-124417380D02*
X131475714Y-124417380D01*
X131761428Y-124417380D02*
X131761428Y-123417380D01*
X131666190Y-123560238D01*
X131570952Y-123655476D01*
X131475714Y-123703095D01*
X132999523Y-124417380D02*
X132428095Y-124417380D01*
X132713809Y-124417380D02*
X132713809Y-123417380D01*
X132618571Y-123560238D01*
X132523333Y-123655476D01*
X132428095Y-123703095D01*
G04 #@! TO.C,SW12*
X148430476Y-124369761D02*
X148573333Y-124417380D01*
X148811428Y-124417380D01*
X148906666Y-124369761D01*
X148954285Y-124322142D01*
X149001904Y-124226904D01*
X149001904Y-124131666D01*
X148954285Y-124036428D01*
X148906666Y-123988809D01*
X148811428Y-123941190D01*
X148620952Y-123893571D01*
X148525714Y-123845952D01*
X148478095Y-123798333D01*
X148430476Y-123703095D01*
X148430476Y-123607857D01*
X148478095Y-123512619D01*
X148525714Y-123465000D01*
X148620952Y-123417380D01*
X148859047Y-123417380D01*
X149001904Y-123465000D01*
X149335238Y-123417380D02*
X149573333Y-124417380D01*
X149763809Y-123703095D01*
X149954285Y-124417380D01*
X150192380Y-123417380D01*
X151097142Y-124417380D02*
X150525714Y-124417380D01*
X150811428Y-124417380D02*
X150811428Y-123417380D01*
X150716190Y-123560238D01*
X150620952Y-123655476D01*
X150525714Y-123703095D01*
X151478095Y-123512619D02*
X151525714Y-123465000D01*
X151620952Y-123417380D01*
X151859047Y-123417380D01*
X151954285Y-123465000D01*
X152001904Y-123512619D01*
X152049523Y-123607857D01*
X152049523Y-123703095D01*
X152001904Y-123845952D01*
X151430476Y-124417380D01*
X152049523Y-124417380D01*
G04 #@! TO.C,SW13*
X126137619Y-44917380D02*
X125804285Y-44441190D01*
X125566190Y-44917380D02*
X125566190Y-43917380D01*
X125947142Y-43917380D01*
X126042380Y-43965000D01*
X126090000Y-44012619D01*
X126137619Y-44107857D01*
X126137619Y-44250714D01*
X126090000Y-44345952D01*
X126042380Y-44393571D01*
X125947142Y-44441190D01*
X125566190Y-44441190D01*
X126566190Y-44393571D02*
X126899523Y-44393571D01*
X127042380Y-44917380D02*
X126566190Y-44917380D01*
X126566190Y-43917380D01*
X127042380Y-43917380D01*
X127423333Y-44869761D02*
X127566190Y-44917380D01*
X127804285Y-44917380D01*
X127899523Y-44869761D01*
X127947142Y-44822142D01*
X127994761Y-44726904D01*
X127994761Y-44631666D01*
X127947142Y-44536428D01*
X127899523Y-44488809D01*
X127804285Y-44441190D01*
X127613809Y-44393571D01*
X127518571Y-44345952D01*
X127470952Y-44298333D01*
X127423333Y-44203095D01*
X127423333Y-44107857D01*
X127470952Y-44012619D01*
X127518571Y-43965000D01*
X127613809Y-43917380D01*
X127851904Y-43917380D01*
X127994761Y-43965000D01*
X128423333Y-44393571D02*
X128756666Y-44393571D01*
X128899523Y-44917380D02*
X128423333Y-44917380D01*
X128423333Y-43917380D01*
X128899523Y-43917380D01*
X129185238Y-43917380D02*
X129756666Y-43917380D01*
X129470952Y-44917380D02*
X129470952Y-43917380D01*
G04 #@! TO.C,U1*
D11*
X165279285Y-59761428D02*
X164529285Y-59761428D01*
X165065000Y-59511428D01*
X164529285Y-59261428D01*
X165279285Y-59261428D01*
X165279285Y-58904285D02*
X164779285Y-58904285D01*
X164529285Y-58904285D02*
X164565000Y-58940000D01*
X164600714Y-58904285D01*
X164565000Y-58868571D01*
X164529285Y-58904285D01*
X164600714Y-58904285D01*
X165243571Y-58225714D02*
X165279285Y-58297142D01*
X165279285Y-58440000D01*
X165243571Y-58511428D01*
X165207857Y-58547142D01*
X165136428Y-58582857D01*
X164922142Y-58582857D01*
X164850714Y-58547142D01*
X164815000Y-58511428D01*
X164779285Y-58440000D01*
X164779285Y-58297142D01*
X164815000Y-58225714D01*
X165279285Y-57904285D02*
X164779285Y-57904285D01*
X164922142Y-57904285D02*
X164850714Y-57868571D01*
X164815000Y-57832857D01*
X164779285Y-57761428D01*
X164779285Y-57690000D01*
X165279285Y-57332857D02*
X165243571Y-57404285D01*
X165207857Y-57440000D01*
X165136428Y-57475714D01*
X164922142Y-57475714D01*
X164850714Y-57440000D01*
X164815000Y-57404285D01*
X164779285Y-57332857D01*
X164779285Y-57225714D01*
X164815000Y-57154285D01*
X164850714Y-57118571D01*
X164922142Y-57082857D01*
X165136428Y-57082857D01*
X165207857Y-57118571D01*
X165243571Y-57154285D01*
X165279285Y-57225714D01*
X165279285Y-57332857D01*
X164529285Y-56761428D02*
X165136428Y-56761428D01*
X165207857Y-56725714D01*
X165243571Y-56690000D01*
X165279285Y-56618571D01*
X165279285Y-56475714D01*
X165243571Y-56404285D01*
X165207857Y-56368571D01*
X165136428Y-56332857D01*
X164529285Y-56332857D01*
X165243571Y-56011428D02*
X165279285Y-55904285D01*
X165279285Y-55725714D01*
X165243571Y-55654285D01*
X165207857Y-55618571D01*
X165136428Y-55582857D01*
X165065000Y-55582857D01*
X164993571Y-55618571D01*
X164957857Y-55654285D01*
X164922142Y-55725714D01*
X164886428Y-55868571D01*
X164850714Y-55940000D01*
X164815000Y-55975714D01*
X164743571Y-56011428D01*
X164672142Y-56011428D01*
X164600714Y-55975714D01*
X164565000Y-55940000D01*
X164529285Y-55868571D01*
X164529285Y-55690000D01*
X164565000Y-55582857D01*
X164886428Y-55011428D02*
X164922142Y-54904285D01*
X164957857Y-54868571D01*
X165029285Y-54832857D01*
X165136428Y-54832857D01*
X165207857Y-54868571D01*
X165243571Y-54904285D01*
X165279285Y-54975714D01*
X165279285Y-55261428D01*
X164529285Y-55261428D01*
X164529285Y-55011428D01*
X164565000Y-54940000D01*
X164600714Y-54904285D01*
X164672142Y-54868571D01*
X164743571Y-54868571D01*
X164815000Y-54904285D01*
X164850714Y-54940000D01*
X164886428Y-55011428D01*
X164886428Y-55261428D01*
D14*
X135143571Y-61018511D02*
X135107857Y-61114226D01*
X135072142Y-61146130D01*
X135000714Y-61178035D01*
X134893571Y-61178035D01*
X134822142Y-61146130D01*
X134786428Y-61114226D01*
X134750714Y-61050416D01*
X134750714Y-60795178D01*
X135500714Y-60795178D01*
X135500714Y-61018511D01*
X135465000Y-61082321D01*
X135429285Y-61114226D01*
X135357857Y-61146130D01*
X135286428Y-61146130D01*
X135215000Y-61114226D01*
X135179285Y-61082321D01*
X135143571Y-61018511D01*
X135143571Y-60795178D01*
X135250714Y-61752321D02*
X134750714Y-61752321D01*
X135536428Y-61592797D02*
X135000714Y-61433273D01*
X135000714Y-61848035D01*
X135536428Y-62581845D02*
X134572142Y-62007559D01*
X135179285Y-62900892D02*
X135215000Y-62837083D01*
X135250714Y-62805178D01*
X135322142Y-62773273D01*
X135357857Y-62773273D01*
X135429285Y-62805178D01*
X135465000Y-62837083D01*
X135500714Y-62900892D01*
X135500714Y-63028511D01*
X135465000Y-63092321D01*
X135429285Y-63124226D01*
X135357857Y-63156130D01*
X135322142Y-63156130D01*
X135250714Y-63124226D01*
X135215000Y-63092321D01*
X135179285Y-63028511D01*
X135179285Y-62900892D01*
X135143571Y-62837083D01*
X135107857Y-62805178D01*
X135036428Y-62773273D01*
X134893571Y-62773273D01*
X134822142Y-62805178D01*
X134786428Y-62837083D01*
X134750714Y-62900892D01*
X134750714Y-63028511D01*
X134786428Y-63092321D01*
X134822142Y-63124226D01*
X134893571Y-63156130D01*
X135036428Y-63156130D01*
X135107857Y-63124226D01*
X135143571Y-63092321D01*
X135179285Y-63028511D01*
X157550714Y-59487083D02*
X158300714Y-59487083D01*
X158300714Y-59646607D01*
X158265000Y-59742321D01*
X158193571Y-59806130D01*
X158122142Y-59838035D01*
X157979285Y-59869940D01*
X157872142Y-59869940D01*
X157729285Y-59838035D01*
X157657857Y-59806130D01*
X157586428Y-59742321D01*
X157550714Y-59646607D01*
X157550714Y-59487083D01*
X158229285Y-60125178D02*
X158265000Y-60157083D01*
X158300714Y-60220892D01*
X158300714Y-60380416D01*
X158265000Y-60444226D01*
X158229285Y-60476130D01*
X158157857Y-60508035D01*
X158086428Y-60508035D01*
X157979285Y-60476130D01*
X157550714Y-60093273D01*
X157550714Y-60508035D01*
X158336428Y-61273750D02*
X157372142Y-60699464D01*
X157550714Y-61879940D02*
X157907857Y-61656607D01*
X157550714Y-61497083D02*
X158300714Y-61497083D01*
X158300714Y-61752321D01*
X158265000Y-61816130D01*
X158229285Y-61848035D01*
X158157857Y-61879940D01*
X158050714Y-61879940D01*
X157979285Y-61848035D01*
X157943571Y-61816130D01*
X157907857Y-61752321D01*
X157907857Y-61497083D01*
X158300714Y-62103273D02*
X157550714Y-62549940D01*
X158300714Y-62549940D02*
X157550714Y-62103273D01*
X157550714Y-63156130D02*
X157550714Y-62773273D01*
X157550714Y-62964702D02*
X158300714Y-62964702D01*
X158193571Y-62900892D01*
X158122142Y-62837083D01*
X158086428Y-62773273D01*
X132643571Y-61018511D02*
X132607857Y-61114226D01*
X132572142Y-61146130D01*
X132500714Y-61178035D01*
X132393571Y-61178035D01*
X132322142Y-61146130D01*
X132286428Y-61114226D01*
X132250714Y-61050416D01*
X132250714Y-60795178D01*
X133000714Y-60795178D01*
X133000714Y-61018511D01*
X132965000Y-61082321D01*
X132929285Y-61114226D01*
X132857857Y-61146130D01*
X132786428Y-61146130D01*
X132715000Y-61114226D01*
X132679285Y-61082321D01*
X132643571Y-61018511D01*
X132643571Y-60795178D01*
X133000714Y-61784226D02*
X133000714Y-61465178D01*
X132643571Y-61433273D01*
X132679285Y-61465178D01*
X132715000Y-61528988D01*
X132715000Y-61688511D01*
X132679285Y-61752321D01*
X132643571Y-61784226D01*
X132572142Y-61816130D01*
X132393571Y-61816130D01*
X132322142Y-61784226D01*
X132286428Y-61752321D01*
X132250714Y-61688511D01*
X132250714Y-61528988D01*
X132286428Y-61465178D01*
X132322142Y-61433273D01*
X133036428Y-62581845D02*
X132072142Y-62007559D01*
X132250714Y-62837083D02*
X132250714Y-62964702D01*
X132286428Y-63028511D01*
X132322142Y-63060416D01*
X132429285Y-63124226D01*
X132572142Y-63156130D01*
X132857857Y-63156130D01*
X132929285Y-63124226D01*
X132965000Y-63092321D01*
X133000714Y-63028511D01*
X133000714Y-62900892D01*
X132965000Y-62837083D01*
X132929285Y-62805178D01*
X132857857Y-62773273D01*
X132679285Y-62773273D01*
X132607857Y-62805178D01*
X132572142Y-62837083D01*
X132536428Y-62900892D01*
X132536428Y-63028511D01*
X132572142Y-63092321D01*
X132607857Y-63124226D01*
X132679285Y-63156130D01*
X142472142Y-61178035D02*
X142436428Y-61146130D01*
X142400714Y-61050416D01*
X142400714Y-60986607D01*
X142436428Y-60890892D01*
X142507857Y-60827083D01*
X142579285Y-60795178D01*
X142722142Y-60763273D01*
X142829285Y-60763273D01*
X142972142Y-60795178D01*
X143043571Y-60827083D01*
X143115000Y-60890892D01*
X143150714Y-60986607D01*
X143150714Y-61050416D01*
X143115000Y-61146130D01*
X143079285Y-61178035D01*
X143150714Y-61752321D02*
X143150714Y-61624702D01*
X143115000Y-61560892D01*
X143079285Y-61528988D01*
X142972142Y-61465178D01*
X142829285Y-61433273D01*
X142543571Y-61433273D01*
X142472142Y-61465178D01*
X142436428Y-61497083D01*
X142400714Y-61560892D01*
X142400714Y-61688511D01*
X142436428Y-61752321D01*
X142472142Y-61784226D01*
X142543571Y-61816130D01*
X142722142Y-61816130D01*
X142793571Y-61784226D01*
X142829285Y-61752321D01*
X142865000Y-61688511D01*
X142865000Y-61560892D01*
X142829285Y-61497083D01*
X142793571Y-61465178D01*
X142722142Y-61433273D01*
X143186428Y-62581845D02*
X142222142Y-62007559D01*
X143150714Y-63124226D02*
X143150714Y-62805178D01*
X142793571Y-62773273D01*
X142829285Y-62805178D01*
X142865000Y-62868988D01*
X142865000Y-63028511D01*
X142829285Y-63092321D01*
X142793571Y-63124226D01*
X142722142Y-63156130D01*
X142543571Y-63156130D01*
X142472142Y-63124226D01*
X142436428Y-63092321D01*
X142400714Y-63028511D01*
X142400714Y-62868988D01*
X142436428Y-62805178D01*
X142472142Y-62773273D01*
X147386428Y-58210892D02*
X147350714Y-58306607D01*
X147350714Y-58466130D01*
X147386428Y-58529940D01*
X147422142Y-58561845D01*
X147493571Y-58593750D01*
X147565000Y-58593750D01*
X147636428Y-58561845D01*
X147672142Y-58529940D01*
X147707857Y-58466130D01*
X147743571Y-58338511D01*
X147779285Y-58274702D01*
X147815000Y-58242797D01*
X147886428Y-58210892D01*
X147957857Y-58210892D01*
X148029285Y-58242797D01*
X148065000Y-58274702D01*
X148100714Y-58338511D01*
X148100714Y-58498035D01*
X148065000Y-58593750D01*
X147422142Y-59263750D02*
X147386428Y-59231845D01*
X147350714Y-59136130D01*
X147350714Y-59072321D01*
X147386428Y-58976607D01*
X147457857Y-58912797D01*
X147529285Y-58880892D01*
X147672142Y-58848988D01*
X147779285Y-58848988D01*
X147922142Y-58880892D01*
X147993571Y-58912797D01*
X148065000Y-58976607D01*
X148100714Y-59072321D01*
X148100714Y-59136130D01*
X148065000Y-59231845D01*
X148029285Y-59263750D01*
X147350714Y-59869940D02*
X147350714Y-59550892D01*
X148100714Y-59550892D01*
X148136428Y-60571845D02*
X147172142Y-59997559D01*
X147350714Y-60795178D02*
X148100714Y-60795178D01*
X148100714Y-60954702D01*
X148065000Y-61050416D01*
X147993571Y-61114226D01*
X147922142Y-61146130D01*
X147779285Y-61178035D01*
X147672142Y-61178035D01*
X147529285Y-61146130D01*
X147457857Y-61114226D01*
X147386428Y-61050416D01*
X147350714Y-60954702D01*
X147350714Y-60795178D01*
X148100714Y-61592797D02*
X148100714Y-61656607D01*
X148065000Y-61720416D01*
X148029285Y-61752321D01*
X147957857Y-61784226D01*
X147815000Y-61816130D01*
X147636428Y-61816130D01*
X147493571Y-61784226D01*
X147422142Y-61752321D01*
X147386428Y-61720416D01*
X147350714Y-61656607D01*
X147350714Y-61592797D01*
X147386428Y-61528988D01*
X147422142Y-61497083D01*
X147493571Y-61465178D01*
X147636428Y-61433273D01*
X147815000Y-61433273D01*
X147957857Y-61465178D01*
X148029285Y-61497083D01*
X148065000Y-61528988D01*
X148100714Y-61592797D01*
X148136428Y-62581845D02*
X147172142Y-62007559D01*
X148100714Y-62741369D02*
X148100714Y-63156130D01*
X147815000Y-62932797D01*
X147815000Y-63028511D01*
X147779285Y-63092321D01*
X147743571Y-63124226D01*
X147672142Y-63156130D01*
X147493571Y-63156130D01*
X147422142Y-63124226D01*
X147386428Y-63092321D01*
X147350714Y-63028511D01*
X147350714Y-62837083D01*
X147386428Y-62773273D01*
X147422142Y-62741369D01*
X149886428Y-58178988D02*
X149850714Y-58274702D01*
X149850714Y-58434226D01*
X149886428Y-58498035D01*
X149922142Y-58529940D01*
X149993571Y-58561845D01*
X150065000Y-58561845D01*
X150136428Y-58529940D01*
X150172142Y-58498035D01*
X150207857Y-58434226D01*
X150243571Y-58306607D01*
X150279285Y-58242797D01*
X150315000Y-58210892D01*
X150386428Y-58178988D01*
X150457857Y-58178988D01*
X150529285Y-58210892D01*
X150565000Y-58242797D01*
X150600714Y-58306607D01*
X150600714Y-58466130D01*
X150565000Y-58561845D01*
X149850714Y-58848988D02*
X150600714Y-58848988D01*
X150600714Y-59008511D01*
X150565000Y-59104226D01*
X150493571Y-59168035D01*
X150422142Y-59199940D01*
X150279285Y-59231845D01*
X150172142Y-59231845D01*
X150029285Y-59199940D01*
X149957857Y-59168035D01*
X149886428Y-59104226D01*
X149850714Y-59008511D01*
X149850714Y-58848988D01*
X150065000Y-59487083D02*
X150065000Y-59806130D01*
X149850714Y-59423273D02*
X150600714Y-59646607D01*
X149850714Y-59869940D01*
X150636428Y-60571845D02*
X149672142Y-59997559D01*
X149850714Y-60795178D02*
X150600714Y-60795178D01*
X150600714Y-60954702D01*
X150565000Y-61050416D01*
X150493571Y-61114226D01*
X150422142Y-61146130D01*
X150279285Y-61178035D01*
X150172142Y-61178035D01*
X150029285Y-61146130D01*
X149957857Y-61114226D01*
X149886428Y-61050416D01*
X149850714Y-60954702D01*
X149850714Y-60795178D01*
X149850714Y-61816130D02*
X149850714Y-61433273D01*
X149850714Y-61624702D02*
X150600714Y-61624702D01*
X150493571Y-61560892D01*
X150422142Y-61497083D01*
X150386428Y-61433273D01*
X150636428Y-62581845D02*
X149672142Y-62007559D01*
X150529285Y-62773273D02*
X150565000Y-62805178D01*
X150600714Y-62868988D01*
X150600714Y-63028511D01*
X150565000Y-63092321D01*
X150529285Y-63124226D01*
X150457857Y-63156130D01*
X150386428Y-63156130D01*
X150279285Y-63124226D01*
X149850714Y-62741369D01*
X149850714Y-63156130D01*
X144950714Y-60795178D02*
X145700714Y-60795178D01*
X145700714Y-60954702D01*
X145665000Y-61050416D01*
X145593571Y-61114226D01*
X145522142Y-61146130D01*
X145379285Y-61178035D01*
X145272142Y-61178035D01*
X145129285Y-61146130D01*
X145057857Y-61114226D01*
X144986428Y-61050416D01*
X144950714Y-60954702D01*
X144950714Y-60795178D01*
X145450714Y-61752321D02*
X144950714Y-61752321D01*
X145736428Y-61592797D02*
X145200714Y-61433273D01*
X145200714Y-61848035D01*
X145736428Y-62581845D02*
X144772142Y-62007559D01*
X145450714Y-63092321D02*
X144950714Y-63092321D01*
X145736428Y-62932797D02*
X145200714Y-62773273D01*
X145200714Y-63188035D01*
X160100714Y-59646607D02*
X160850714Y-59646607D01*
X160850714Y-59806130D01*
X160815000Y-59901845D01*
X160743571Y-59965654D01*
X160672142Y-59997559D01*
X160529285Y-60029464D01*
X160422142Y-60029464D01*
X160279285Y-59997559D01*
X160207857Y-59965654D01*
X160136428Y-59901845D01*
X160100714Y-59806130D01*
X160100714Y-59646607D01*
X160850714Y-60252797D02*
X160850714Y-60667559D01*
X160565000Y-60444226D01*
X160565000Y-60539940D01*
X160529285Y-60603750D01*
X160493571Y-60635654D01*
X160422142Y-60667559D01*
X160243571Y-60667559D01*
X160172142Y-60635654D01*
X160136428Y-60603750D01*
X160100714Y-60539940D01*
X160100714Y-60348511D01*
X160136428Y-60284702D01*
X160172142Y-60252797D01*
X160886428Y-61433273D02*
X159922142Y-60858988D01*
X160850714Y-61560892D02*
X160850714Y-61943750D01*
X160100714Y-61752321D02*
X160850714Y-61752321D01*
X160850714Y-62103273D02*
X160100714Y-62549940D01*
X160850714Y-62549940D02*
X160100714Y-62103273D01*
X160850714Y-62932797D02*
X160850714Y-62996607D01*
X160815000Y-63060416D01*
X160779285Y-63092321D01*
X160707857Y-63124226D01*
X160565000Y-63156130D01*
X160386428Y-63156130D01*
X160243571Y-63124226D01*
X160172142Y-63092321D01*
X160136428Y-63060416D01*
X160100714Y-62996607D01*
X160100714Y-62932797D01*
X160136428Y-62868988D01*
X160172142Y-62837083D01*
X160243571Y-62805178D01*
X160386428Y-62773273D01*
X160565000Y-62773273D01*
X160707857Y-62805178D01*
X160779285Y-62837083D01*
X160815000Y-62868988D01*
X160850714Y-62932797D01*
X153215000Y-61752321D02*
X153250714Y-61688511D01*
X153250714Y-61592797D01*
X153215000Y-61497083D01*
X153143571Y-61433273D01*
X153072142Y-61401369D01*
X152929285Y-61369464D01*
X152822142Y-61369464D01*
X152679285Y-61401369D01*
X152607857Y-61433273D01*
X152536428Y-61497083D01*
X152500714Y-61592797D01*
X152500714Y-61656607D01*
X152536428Y-61752321D01*
X152572142Y-61784226D01*
X152822142Y-61784226D01*
X152822142Y-61656607D01*
X152500714Y-62071369D02*
X153250714Y-62071369D01*
X152500714Y-62454226D01*
X153250714Y-62454226D01*
X152500714Y-62773273D02*
X153250714Y-62773273D01*
X153250714Y-62932797D01*
X153215000Y-63028511D01*
X153143571Y-63092321D01*
X153072142Y-63124226D01*
X152929285Y-63156130D01*
X152822142Y-63156130D01*
X152679285Y-63124226D01*
X152607857Y-63092321D01*
X152536428Y-63028511D01*
X152500714Y-62932797D01*
X152500714Y-62773273D01*
X155665000Y-61752321D02*
X155700714Y-61688511D01*
X155700714Y-61592797D01*
X155665000Y-61497083D01*
X155593571Y-61433273D01*
X155522142Y-61401369D01*
X155379285Y-61369464D01*
X155272142Y-61369464D01*
X155129285Y-61401369D01*
X155057857Y-61433273D01*
X154986428Y-61497083D01*
X154950714Y-61592797D01*
X154950714Y-61656607D01*
X154986428Y-61752321D01*
X155022142Y-61784226D01*
X155272142Y-61784226D01*
X155272142Y-61656607D01*
X154950714Y-62071369D02*
X155700714Y-62071369D01*
X154950714Y-62454226D01*
X155700714Y-62454226D01*
X154950714Y-62773273D02*
X155700714Y-62773273D01*
X155700714Y-62932797D01*
X155665000Y-63028511D01*
X155593571Y-63092321D01*
X155522142Y-63124226D01*
X155379285Y-63156130D01*
X155272142Y-63156130D01*
X155129285Y-63124226D01*
X155057857Y-63092321D01*
X154986428Y-63028511D01*
X154950714Y-62932797D01*
X154950714Y-62773273D01*
X139850714Y-60795178D02*
X140600714Y-60795178D01*
X140600714Y-60954702D01*
X140565000Y-61050416D01*
X140493571Y-61114226D01*
X140422142Y-61146130D01*
X140279285Y-61178035D01*
X140172142Y-61178035D01*
X140029285Y-61146130D01*
X139957857Y-61114226D01*
X139886428Y-61050416D01*
X139850714Y-60954702D01*
X139850714Y-60795178D01*
X140600714Y-61401369D02*
X140600714Y-61848035D01*
X139850714Y-61560892D01*
X140636428Y-62581845D02*
X139672142Y-62007559D01*
X140600714Y-63092321D02*
X140600714Y-62964702D01*
X140565000Y-62900892D01*
X140529285Y-62868988D01*
X140422142Y-62805178D01*
X140279285Y-62773273D01*
X139993571Y-62773273D01*
X139922142Y-62805178D01*
X139886428Y-62837083D01*
X139850714Y-62900892D01*
X139850714Y-63028511D01*
X139886428Y-63092321D01*
X139922142Y-63124226D01*
X139993571Y-63156130D01*
X140172142Y-63156130D01*
X140243571Y-63124226D01*
X140279285Y-63092321D01*
X140315000Y-63028511D01*
X140315000Y-62900892D01*
X140279285Y-62837083D01*
X140243571Y-62805178D01*
X140172142Y-62773273D01*
X137693571Y-60858988D02*
X137693571Y-61082321D01*
X137300714Y-61178035D02*
X137300714Y-60858988D01*
X138050714Y-60858988D01*
X138050714Y-61178035D01*
X138050714Y-61752321D02*
X138050714Y-61624702D01*
X138015000Y-61560892D01*
X137979285Y-61528988D01*
X137872142Y-61465178D01*
X137729285Y-61433273D01*
X137443571Y-61433273D01*
X137372142Y-61465178D01*
X137336428Y-61497083D01*
X137300714Y-61560892D01*
X137300714Y-61688511D01*
X137336428Y-61752321D01*
X137372142Y-61784226D01*
X137443571Y-61816130D01*
X137622142Y-61816130D01*
X137693571Y-61784226D01*
X137729285Y-61752321D01*
X137765000Y-61688511D01*
X137765000Y-61560892D01*
X137729285Y-61497083D01*
X137693571Y-61465178D01*
X137622142Y-61433273D01*
X138086428Y-62581845D02*
X137122142Y-62007559D01*
X138050714Y-62741369D02*
X138050714Y-63188035D01*
X137300714Y-62900892D01*
X134650714Y-51956726D02*
X134650714Y-51573869D01*
X134650714Y-51765297D02*
X135400714Y-51765297D01*
X135293571Y-51701488D01*
X135222142Y-51637678D01*
X135186428Y-51573869D01*
X135400714Y-52531011D02*
X135400714Y-52403392D01*
X135365000Y-52339583D01*
X135329285Y-52307678D01*
X135222142Y-52243869D01*
X135079285Y-52211964D01*
X134793571Y-52211964D01*
X134722142Y-52243869D01*
X134686428Y-52275773D01*
X134650714Y-52339583D01*
X134650714Y-52467202D01*
X134686428Y-52531011D01*
X134722142Y-52562916D01*
X134793571Y-52594821D01*
X134972142Y-52594821D01*
X135043571Y-52562916D01*
X135079285Y-52531011D01*
X135115000Y-52467202D01*
X135115000Y-52339583D01*
X135079285Y-52275773D01*
X135043571Y-52243869D01*
X134972142Y-52211964D01*
X135436428Y-53360535D02*
X134472142Y-52786250D01*
X135043571Y-53807202D02*
X135007857Y-53902916D01*
X134972142Y-53934821D01*
X134900714Y-53966726D01*
X134793571Y-53966726D01*
X134722142Y-53934821D01*
X134686428Y-53902916D01*
X134650714Y-53839107D01*
X134650714Y-53583869D01*
X135400714Y-53583869D01*
X135400714Y-53807202D01*
X135365000Y-53871011D01*
X135329285Y-53902916D01*
X135257857Y-53934821D01*
X135186428Y-53934821D01*
X135115000Y-53902916D01*
X135079285Y-53871011D01*
X135043571Y-53807202D01*
X135043571Y-53583869D01*
X135329285Y-54221964D02*
X135365000Y-54253869D01*
X135400714Y-54317678D01*
X135400714Y-54477202D01*
X135365000Y-54541011D01*
X135329285Y-54572916D01*
X135257857Y-54604821D01*
X135186428Y-54604821D01*
X135079285Y-54572916D01*
X134650714Y-54190059D01*
X134650714Y-54604821D01*
X132200714Y-51956726D02*
X132200714Y-51573869D01*
X132200714Y-51765297D02*
X132950714Y-51765297D01*
X132843571Y-51701488D01*
X132772142Y-51637678D01*
X132736428Y-51573869D01*
X132950714Y-52371488D02*
X132950714Y-52435297D01*
X132915000Y-52499107D01*
X132879285Y-52531011D01*
X132807857Y-52562916D01*
X132665000Y-52594821D01*
X132486428Y-52594821D01*
X132343571Y-52562916D01*
X132272142Y-52531011D01*
X132236428Y-52499107D01*
X132200714Y-52435297D01*
X132200714Y-52371488D01*
X132236428Y-52307678D01*
X132272142Y-52275773D01*
X132343571Y-52243869D01*
X132486428Y-52211964D01*
X132665000Y-52211964D01*
X132807857Y-52243869D01*
X132879285Y-52275773D01*
X132915000Y-52307678D01*
X132950714Y-52371488D01*
X132986428Y-53360535D02*
X132022142Y-52786250D01*
X132593571Y-53807202D02*
X132557857Y-53902916D01*
X132522142Y-53934821D01*
X132450714Y-53966726D01*
X132343571Y-53966726D01*
X132272142Y-53934821D01*
X132236428Y-53902916D01*
X132200714Y-53839107D01*
X132200714Y-53583869D01*
X132950714Y-53583869D01*
X132950714Y-53807202D01*
X132915000Y-53871011D01*
X132879285Y-53902916D01*
X132807857Y-53934821D01*
X132736428Y-53934821D01*
X132665000Y-53902916D01*
X132629285Y-53871011D01*
X132593571Y-53807202D01*
X132593571Y-53583869D01*
X132950714Y-54541011D02*
X132950714Y-54413392D01*
X132915000Y-54349583D01*
X132879285Y-54317678D01*
X132772142Y-54253869D01*
X132629285Y-54221964D01*
X132343571Y-54221964D01*
X132272142Y-54253869D01*
X132236428Y-54285773D01*
X132200714Y-54349583D01*
X132200714Y-54477202D01*
X132236428Y-54541011D01*
X132272142Y-54572916D01*
X132343571Y-54604821D01*
X132522142Y-54604821D01*
X132593571Y-54572916D01*
X132629285Y-54541011D01*
X132665000Y-54477202D01*
X132665000Y-54349583D01*
X132629285Y-54285773D01*
X132593571Y-54253869D01*
X132522142Y-54221964D01*
X137250714Y-51956726D02*
X137250714Y-51573869D01*
X137250714Y-51765297D02*
X138000714Y-51765297D01*
X137893571Y-51701488D01*
X137822142Y-51637678D01*
X137786428Y-51573869D01*
X137750714Y-52531011D02*
X137250714Y-52531011D01*
X138036428Y-52371488D02*
X137500714Y-52211964D01*
X137500714Y-52626726D01*
X138036428Y-53360535D02*
X137072142Y-52786250D01*
X137643571Y-53807202D02*
X137607857Y-53902916D01*
X137572142Y-53934821D01*
X137500714Y-53966726D01*
X137393571Y-53966726D01*
X137322142Y-53934821D01*
X137286428Y-53902916D01*
X137250714Y-53839107D01*
X137250714Y-53583869D01*
X138000714Y-53583869D01*
X138000714Y-53807202D01*
X137965000Y-53871011D01*
X137929285Y-53902916D01*
X137857857Y-53934821D01*
X137786428Y-53934821D01*
X137715000Y-53902916D01*
X137679285Y-53871011D01*
X137643571Y-53807202D01*
X137643571Y-53583869D01*
X138000714Y-54190059D02*
X138000714Y-54604821D01*
X137715000Y-54381488D01*
X137715000Y-54477202D01*
X137679285Y-54541011D01*
X137643571Y-54572916D01*
X137572142Y-54604821D01*
X137393571Y-54604821D01*
X137322142Y-54572916D01*
X137286428Y-54541011D01*
X137250714Y-54477202D01*
X137250714Y-54285773D01*
X137286428Y-54221964D01*
X137322142Y-54190059D01*
X139800714Y-51956726D02*
X139800714Y-51573869D01*
X139800714Y-51765297D02*
X140550714Y-51765297D01*
X140443571Y-51701488D01*
X140372142Y-51637678D01*
X140336428Y-51573869D01*
X140550714Y-52562916D02*
X140550714Y-52243869D01*
X140193571Y-52211964D01*
X140229285Y-52243869D01*
X140265000Y-52307678D01*
X140265000Y-52467202D01*
X140229285Y-52531011D01*
X140193571Y-52562916D01*
X140122142Y-52594821D01*
X139943571Y-52594821D01*
X139872142Y-52562916D01*
X139836428Y-52531011D01*
X139800714Y-52467202D01*
X139800714Y-52307678D01*
X139836428Y-52243869D01*
X139872142Y-52211964D01*
X140586428Y-53360535D02*
X139622142Y-52786250D01*
X140193571Y-53807202D02*
X140157857Y-53902916D01*
X140122142Y-53934821D01*
X140050714Y-53966726D01*
X139943571Y-53966726D01*
X139872142Y-53934821D01*
X139836428Y-53902916D01*
X139800714Y-53839107D01*
X139800714Y-53583869D01*
X140550714Y-53583869D01*
X140550714Y-53807202D01*
X140515000Y-53871011D01*
X140479285Y-53902916D01*
X140407857Y-53934821D01*
X140336428Y-53934821D01*
X140265000Y-53902916D01*
X140229285Y-53871011D01*
X140193571Y-53807202D01*
X140193571Y-53583869D01*
X139800714Y-54604821D02*
X139800714Y-54221964D01*
X139800714Y-54413392D02*
X140550714Y-54413392D01*
X140443571Y-54349583D01*
X140372142Y-54285773D01*
X140336428Y-54221964D01*
X142565000Y-51573869D02*
X142565000Y-51892916D01*
X142350714Y-51510059D02*
X143100714Y-51733392D01*
X142350714Y-51956726D01*
X143100714Y-52307678D02*
X143100714Y-52371488D01*
X143065000Y-52435297D01*
X143029285Y-52467202D01*
X142957857Y-52499107D01*
X142815000Y-52531011D01*
X142636428Y-52531011D01*
X142493571Y-52499107D01*
X142422142Y-52467202D01*
X142386428Y-52435297D01*
X142350714Y-52371488D01*
X142350714Y-52307678D01*
X142386428Y-52243869D01*
X142422142Y-52211964D01*
X142493571Y-52180059D01*
X142636428Y-52148154D01*
X142815000Y-52148154D01*
X142957857Y-52180059D01*
X143029285Y-52211964D01*
X143065000Y-52243869D01*
X143100714Y-52307678D01*
X143136428Y-53296726D02*
X142172142Y-52722440D01*
X142743571Y-53743392D02*
X142743571Y-53520059D01*
X142350714Y-53520059D02*
X143100714Y-53520059D01*
X143100714Y-53839107D01*
X143100714Y-54030535D02*
X143100714Y-54477202D01*
X142350714Y-54190059D01*
X145115000Y-51573869D02*
X145115000Y-51892916D01*
X144900714Y-51510059D02*
X145650714Y-51733392D01*
X144900714Y-51956726D01*
X144900714Y-52531011D02*
X144900714Y-52148154D01*
X144900714Y-52339583D02*
X145650714Y-52339583D01*
X145543571Y-52275773D01*
X145472142Y-52211964D01*
X145436428Y-52148154D01*
X145686428Y-53296726D02*
X144722142Y-52722440D01*
X145293571Y-53743392D02*
X145293571Y-53520059D01*
X144900714Y-53520059D02*
X145650714Y-53520059D01*
X145650714Y-53839107D01*
X145650714Y-54381488D02*
X145650714Y-54253869D01*
X145615000Y-54190059D01*
X145579285Y-54158154D01*
X145472142Y-54094345D01*
X145329285Y-54062440D01*
X145043571Y-54062440D01*
X144972142Y-54094345D01*
X144936428Y-54126250D01*
X144900714Y-54190059D01*
X144900714Y-54317678D01*
X144936428Y-54381488D01*
X144972142Y-54413392D01*
X145043571Y-54445297D01*
X145222142Y-54445297D01*
X145293571Y-54413392D01*
X145329285Y-54381488D01*
X145365000Y-54317678D01*
X145365000Y-54190059D01*
X145329285Y-54126250D01*
X145293571Y-54094345D01*
X145222142Y-54062440D01*
X147615000Y-51573869D02*
X147615000Y-51892916D01*
X147400714Y-51510059D02*
X148150714Y-51733392D01*
X147400714Y-51956726D01*
X148079285Y-52148154D02*
X148115000Y-52180059D01*
X148150714Y-52243869D01*
X148150714Y-52403392D01*
X148115000Y-52467202D01*
X148079285Y-52499107D01*
X148007857Y-52531011D01*
X147936428Y-52531011D01*
X147829285Y-52499107D01*
X147400714Y-52116250D01*
X147400714Y-52531011D01*
X148186428Y-53296726D02*
X147222142Y-52722440D01*
X147793571Y-53743392D02*
X147793571Y-53520059D01*
X147400714Y-53520059D02*
X148150714Y-53520059D01*
X148150714Y-53839107D01*
X148150714Y-54413392D02*
X148150714Y-54094345D01*
X147793571Y-54062440D01*
X147829285Y-54094345D01*
X147865000Y-54158154D01*
X147865000Y-54317678D01*
X147829285Y-54381488D01*
X147793571Y-54413392D01*
X147722142Y-54445297D01*
X147543571Y-54445297D01*
X147472142Y-54413392D01*
X147436428Y-54381488D01*
X147400714Y-54317678D01*
X147400714Y-54158154D01*
X147436428Y-54094345D01*
X147472142Y-54062440D01*
X150115000Y-51573869D02*
X150115000Y-51892916D01*
X149900714Y-51510059D02*
X150650714Y-51733392D01*
X149900714Y-51956726D01*
X150650714Y-52116250D02*
X150650714Y-52531011D01*
X150365000Y-52307678D01*
X150365000Y-52403392D01*
X150329285Y-52467202D01*
X150293571Y-52499107D01*
X150222142Y-52531011D01*
X150043571Y-52531011D01*
X149972142Y-52499107D01*
X149936428Y-52467202D01*
X149900714Y-52403392D01*
X149900714Y-52211964D01*
X149936428Y-52148154D01*
X149972142Y-52116250D01*
X150686428Y-53296726D02*
X149722142Y-52722440D01*
X150293571Y-53743392D02*
X150293571Y-53520059D01*
X149900714Y-53520059D02*
X150650714Y-53520059D01*
X150650714Y-53839107D01*
X150400714Y-54381488D02*
X149900714Y-54381488D01*
X150686428Y-54221964D02*
X150150714Y-54062440D01*
X150150714Y-54477202D01*
X153400714Y-51510059D02*
X152650714Y-51733392D01*
X153400714Y-51956726D01*
X152722142Y-52562916D02*
X152686428Y-52531011D01*
X152650714Y-52435297D01*
X152650714Y-52371488D01*
X152686428Y-52275773D01*
X152757857Y-52211964D01*
X152829285Y-52180059D01*
X152972142Y-52148154D01*
X153079285Y-52148154D01*
X153222142Y-52180059D01*
X153293571Y-52211964D01*
X153365000Y-52275773D01*
X153400714Y-52371488D01*
X153400714Y-52435297D01*
X153365000Y-52531011D01*
X153329285Y-52562916D01*
X152722142Y-53232916D02*
X152686428Y-53201011D01*
X152650714Y-53105297D01*
X152650714Y-53041488D01*
X152686428Y-52945773D01*
X152757857Y-52881964D01*
X152829285Y-52850059D01*
X152972142Y-52818154D01*
X153079285Y-52818154D01*
X153222142Y-52850059D01*
X153293571Y-52881964D01*
X153365000Y-52945773D01*
X153400714Y-53041488D01*
X153400714Y-53105297D01*
X153365000Y-53201011D01*
X153329285Y-53232916D01*
X155050714Y-51988630D02*
X155407857Y-51765297D01*
X155050714Y-51605773D02*
X155800714Y-51605773D01*
X155800714Y-51861011D01*
X155765000Y-51924821D01*
X155729285Y-51956726D01*
X155657857Y-51988630D01*
X155550714Y-51988630D01*
X155479285Y-51956726D01*
X155443571Y-51924821D01*
X155407857Y-51861011D01*
X155407857Y-51605773D01*
X155086428Y-52243869D02*
X155050714Y-52339583D01*
X155050714Y-52499107D01*
X155086428Y-52562916D01*
X155122142Y-52594821D01*
X155193571Y-52626726D01*
X155265000Y-52626726D01*
X155336428Y-52594821D01*
X155372142Y-52562916D01*
X155407857Y-52499107D01*
X155443571Y-52371488D01*
X155479285Y-52307678D01*
X155515000Y-52275773D01*
X155586428Y-52243869D01*
X155657857Y-52243869D01*
X155729285Y-52275773D01*
X155765000Y-52307678D01*
X155800714Y-52371488D01*
X155800714Y-52531011D01*
X155765000Y-52626726D01*
X155800714Y-52818154D02*
X155800714Y-53201011D01*
X155050714Y-53009583D02*
X155800714Y-53009583D01*
X158365000Y-51956726D02*
X158400714Y-51892916D01*
X158400714Y-51797202D01*
X158365000Y-51701488D01*
X158293571Y-51637678D01*
X158222142Y-51605773D01*
X158079285Y-51573869D01*
X157972142Y-51573869D01*
X157829285Y-51605773D01*
X157757857Y-51637678D01*
X157686428Y-51701488D01*
X157650714Y-51797202D01*
X157650714Y-51861011D01*
X157686428Y-51956726D01*
X157722142Y-51988630D01*
X157972142Y-51988630D01*
X157972142Y-51861011D01*
X157650714Y-52275773D02*
X158400714Y-52275773D01*
X157650714Y-52658630D01*
X158400714Y-52658630D01*
X157650714Y-52977678D02*
X158400714Y-52977678D01*
X158400714Y-53137202D01*
X158365000Y-53232916D01*
X158293571Y-53296726D01*
X158222142Y-53328630D01*
X158079285Y-53360535D01*
X157972142Y-53360535D01*
X157829285Y-53328630D01*
X157757857Y-53296726D01*
X157686428Y-53232916D01*
X157650714Y-53137202D01*
X157650714Y-52977678D01*
X160150714Y-51988630D02*
X160507857Y-51765297D01*
X160150714Y-51605773D02*
X160900714Y-51605773D01*
X160900714Y-51861011D01*
X160865000Y-51924821D01*
X160829285Y-51956726D01*
X160757857Y-51988630D01*
X160650714Y-51988630D01*
X160579285Y-51956726D01*
X160543571Y-51924821D01*
X160507857Y-51861011D01*
X160507857Y-51605773D01*
X160365000Y-52243869D02*
X160365000Y-52562916D01*
X160150714Y-52180059D02*
X160900714Y-52403392D01*
X160150714Y-52626726D01*
X160900714Y-52786250D02*
X160150714Y-52945773D01*
X160686428Y-53073392D01*
X160150714Y-53201011D01*
X160900714Y-53360535D01*
D12*
G04 #@! TD*
%LPC*%
D15*
G04 #@! TO.C,H2*
X83090000Y-67465000D03*
G04 #@! TD*
G04 #@! TO.C,H1*
X83090000Y-47465000D03*
G04 #@! TD*
G04 #@! TO.C,H4*
X160240000Y-78965000D03*
G04 #@! TD*
G04 #@! TO.C,H3*
X83090000Y-78965000D03*
G04 #@! TD*
G04 #@! TO.C,H6*
X160240000Y-137065000D03*
G04 #@! TD*
G04 #@! TO.C,H5*
X83090000Y-137065000D03*
G04 #@! TD*
D16*
G04 #@! TO.C,SW1*
X93090000Y-88965000D03*
D17*
X87590000Y-88965000D03*
X98590000Y-88965000D03*
G04 #@! TD*
G04 #@! TO.C,SW2*
X117640000Y-88965000D03*
X106640000Y-88965000D03*
D16*
X112140000Y-88965000D03*
G04 #@! TD*
G04 #@! TO.C,SW3*
X131190000Y-88965000D03*
D17*
X125690000Y-88965000D03*
X136690000Y-88965000D03*
G04 #@! TD*
G04 #@! TO.C,SW4*
X155740000Y-88965000D03*
X144740000Y-88965000D03*
D16*
X150240000Y-88965000D03*
G04 #@! TD*
D17*
G04 #@! TO.C,SW5*
X98590000Y-108015000D03*
X87590000Y-108015000D03*
D16*
X93090000Y-108015000D03*
G04 #@! TD*
G04 #@! TO.C,SW6*
X112140000Y-108015000D03*
D17*
X106640000Y-108015000D03*
X117640000Y-108015000D03*
G04 #@! TD*
G04 #@! TO.C,SW7*
X136690000Y-108015000D03*
X125690000Y-108015000D03*
D16*
X131190000Y-108015000D03*
G04 #@! TD*
G04 #@! TO.C,SW8*
X150240000Y-108015000D03*
D17*
X144740000Y-108015000D03*
X155740000Y-108015000D03*
G04 #@! TD*
G04 #@! TO.C,SW9*
X98590000Y-127065000D03*
X87590000Y-127065000D03*
D16*
X93090000Y-127065000D03*
G04 #@! TD*
G04 #@! TO.C,SW10*
X112140000Y-127065000D03*
D17*
X106640000Y-127065000D03*
X117640000Y-127065000D03*
G04 #@! TD*
D16*
G04 #@! TO.C,SW11*
X131190000Y-127065000D03*
D17*
X125690000Y-127065000D03*
X136690000Y-127065000D03*
G04 #@! TD*
G04 #@! TO.C,SW12*
X155740000Y-127065000D03*
X144740000Y-127065000D03*
D16*
X150240000Y-127065000D03*
G04 #@! TD*
M02*
