G04 #@! TF.GenerationSoftware,KiCad,Pcbnew,5.1.6*
G04 #@! TF.CreationDate,2020-06-26T00:36:41+09:00*
G04 #@! TF.ProjectId,firststep12,66697273-7473-4746-9570-31322e6b6963,rev?*
G04 #@! TF.SameCoordinates,Original*
G04 #@! TF.FileFunction,Legend,Bot*
G04 #@! TF.FilePolarity,Positive*
%FSLAX46Y46*%
G04 Gerber Fmt 4.6, Leading zero omitted, Abs format (unit mm)*
G04 Created by KiCad (PCBNEW 5.1.6) date 2020-06-26 00:36:41*
%MOMM*%
%LPD*%
G01*
G04 APERTURE LIST*
%ADD10C,0.120000*%
%ADD11C,0.150000*%
%ADD12C,0.300000*%
%ADD13C,4.900000*%
%ADD14R,1.700000X1.100000*%
%ADD15R,1.497000X1.497000*%
%ADD16C,1.497000*%
%ADD17C,4.100000*%
%ADD18C,2.000000*%
%ADD19O,2.600000X2.100000*%
%ADD20C,2.100000*%
%ADD21C,1.624000*%
G04 APERTURE END LIST*
D10*
X116090000Y-66965000D02*
X116090000Y-47965000D01*
X130590000Y-66965000D02*
X116090000Y-66965000D01*
X116090000Y-47965000D02*
X130590000Y-47965000D01*
X130590000Y-47965000D02*
X130590000Y-66965000D01*
D11*
X128923333Y-58679285D02*
X129018571Y-58774523D01*
X129304285Y-58869761D01*
X129494761Y-58869761D01*
X129780476Y-58774523D01*
X129970952Y-58584047D01*
X130066190Y-58393571D01*
X130161428Y-58012619D01*
X130161428Y-57726904D01*
X130066190Y-57345952D01*
X129970952Y-57155476D01*
X129780476Y-56965000D01*
X129494761Y-56869761D01*
X129304285Y-56869761D01*
X129018571Y-56965000D01*
X128923333Y-57060238D01*
X127209047Y-57536428D02*
X127209047Y-58869761D01*
X127685238Y-56774523D02*
X128161428Y-58203095D01*
X126923333Y-58203095D01*
X125423333Y-61179285D02*
X125518571Y-61274523D01*
X125804285Y-61369761D01*
X125994761Y-61369761D01*
X126280476Y-61274523D01*
X126470952Y-61084047D01*
X126566190Y-60893571D01*
X126661428Y-60512619D01*
X126661428Y-60226904D01*
X126566190Y-59845952D01*
X126470952Y-59655476D01*
X126280476Y-59465000D01*
X125994761Y-59369761D01*
X125804285Y-59369761D01*
X125518571Y-59465000D01*
X125423333Y-59560238D01*
X124756666Y-59369761D02*
X123518571Y-59369761D01*
X124185238Y-60131666D01*
X123899523Y-60131666D01*
X123709047Y-60226904D01*
X123613809Y-60322142D01*
X123518571Y-60512619D01*
X123518571Y-60988809D01*
X123613809Y-61179285D01*
X123709047Y-61274523D01*
X123899523Y-61369761D01*
X124470952Y-61369761D01*
X124661428Y-61274523D01*
X124756666Y-61179285D01*
X121923333Y-63679285D02*
X122018571Y-63774523D01*
X122304285Y-63869761D01*
X122494761Y-63869761D01*
X122780476Y-63774523D01*
X122970952Y-63584047D01*
X123066190Y-63393571D01*
X123161428Y-63012619D01*
X123161428Y-62726904D01*
X123066190Y-62345952D01*
X122970952Y-62155476D01*
X122780476Y-61965000D01*
X122494761Y-61869761D01*
X122304285Y-61869761D01*
X122018571Y-61965000D01*
X121923333Y-62060238D01*
X121161428Y-62060238D02*
X121066190Y-61965000D01*
X120875714Y-61869761D01*
X120399523Y-61869761D01*
X120209047Y-61965000D01*
X120113809Y-62060238D01*
X120018571Y-62250714D01*
X120018571Y-62441190D01*
X120113809Y-62726904D01*
X121256666Y-63869761D01*
X120018571Y-63869761D01*
X118423333Y-66179285D02*
X118518571Y-66274523D01*
X118804285Y-66369761D01*
X118994761Y-66369761D01*
X119280476Y-66274523D01*
X119470952Y-66084047D01*
X119566190Y-65893571D01*
X119661428Y-65512619D01*
X119661428Y-65226904D01*
X119566190Y-64845952D01*
X119470952Y-64655476D01*
X119280476Y-64465000D01*
X118994761Y-64369761D01*
X118804285Y-64369761D01*
X118518571Y-64465000D01*
X118423333Y-64560238D01*
X116518571Y-66369761D02*
X117661428Y-66369761D01*
X117090000Y-66369761D02*
X117090000Y-64369761D01*
X117280476Y-64655476D01*
X117470952Y-64845952D01*
X117661428Y-64941190D01*
X124613809Y-50369761D02*
X125280476Y-49417380D01*
X125756666Y-50369761D02*
X125756666Y-48369761D01*
X124994761Y-48369761D01*
X124804285Y-48465000D01*
X124709047Y-48560238D01*
X124613809Y-48750714D01*
X124613809Y-49036428D01*
X124709047Y-49226904D01*
X124804285Y-49322142D01*
X124994761Y-49417380D01*
X125756666Y-49417380D01*
X123375714Y-48369761D02*
X122994761Y-48369761D01*
X122804285Y-48465000D01*
X122613809Y-48655476D01*
X122518571Y-49036428D01*
X122518571Y-49703095D01*
X122613809Y-50084047D01*
X122804285Y-50274523D01*
X122994761Y-50369761D01*
X123375714Y-50369761D01*
X123566190Y-50274523D01*
X123756666Y-50084047D01*
X123851904Y-49703095D01*
X123851904Y-49036428D01*
X123756666Y-48655476D01*
X123566190Y-48465000D01*
X123375714Y-48369761D01*
X121851904Y-48369761D02*
X121375714Y-50369761D01*
X120994761Y-48941190D01*
X120613809Y-50369761D01*
X120137619Y-48369761D01*
X119566190Y-48369761D02*
X118328095Y-48369761D01*
X118994761Y-49131666D01*
X118709047Y-49131666D01*
X118518571Y-49226904D01*
X118423333Y-49322142D01*
X118328095Y-49512619D01*
X118328095Y-49988809D01*
X118423333Y-50179285D01*
X118518571Y-50274523D01*
X118709047Y-50369761D01*
X119280476Y-50369761D01*
X119470952Y-50274523D01*
X119566190Y-50179285D01*
D10*
X115590000Y-47965000D02*
X115590000Y-66965000D01*
X101090000Y-66965000D02*
X101090000Y-47965000D01*
X101090000Y-47965000D02*
X115590000Y-47965000D01*
X115590000Y-66965000D02*
X101090000Y-66965000D01*
D11*
X113923333Y-58679285D02*
X114018571Y-58774523D01*
X114304285Y-58869761D01*
X114494761Y-58869761D01*
X114780476Y-58774523D01*
X114970952Y-58584047D01*
X115066190Y-58393571D01*
X115161428Y-58012619D01*
X115161428Y-57726904D01*
X115066190Y-57345952D01*
X114970952Y-57155476D01*
X114780476Y-56965000D01*
X114494761Y-56869761D01*
X114304285Y-56869761D01*
X114018571Y-56965000D01*
X113923333Y-57060238D01*
X112209047Y-57536428D02*
X112209047Y-58869761D01*
X112685238Y-56774523D02*
X113161428Y-58203095D01*
X111923333Y-58203095D01*
X110423333Y-61179285D02*
X110518571Y-61274523D01*
X110804285Y-61369761D01*
X110994761Y-61369761D01*
X111280476Y-61274523D01*
X111470952Y-61084047D01*
X111566190Y-60893571D01*
X111661428Y-60512619D01*
X111661428Y-60226904D01*
X111566190Y-59845952D01*
X111470952Y-59655476D01*
X111280476Y-59465000D01*
X110994761Y-59369761D01*
X110804285Y-59369761D01*
X110518571Y-59465000D01*
X110423333Y-59560238D01*
X109756666Y-59369761D02*
X108518571Y-59369761D01*
X109185238Y-60131666D01*
X108899523Y-60131666D01*
X108709047Y-60226904D01*
X108613809Y-60322142D01*
X108518571Y-60512619D01*
X108518571Y-60988809D01*
X108613809Y-61179285D01*
X108709047Y-61274523D01*
X108899523Y-61369761D01*
X109470952Y-61369761D01*
X109661428Y-61274523D01*
X109756666Y-61179285D01*
X106923333Y-63679285D02*
X107018571Y-63774523D01*
X107304285Y-63869761D01*
X107494761Y-63869761D01*
X107780476Y-63774523D01*
X107970952Y-63584047D01*
X108066190Y-63393571D01*
X108161428Y-63012619D01*
X108161428Y-62726904D01*
X108066190Y-62345952D01*
X107970952Y-62155476D01*
X107780476Y-61965000D01*
X107494761Y-61869761D01*
X107304285Y-61869761D01*
X107018571Y-61965000D01*
X106923333Y-62060238D01*
X106161428Y-62060238D02*
X106066190Y-61965000D01*
X105875714Y-61869761D01*
X105399523Y-61869761D01*
X105209047Y-61965000D01*
X105113809Y-62060238D01*
X105018571Y-62250714D01*
X105018571Y-62441190D01*
X105113809Y-62726904D01*
X106256666Y-63869761D01*
X105018571Y-63869761D01*
X103423333Y-66179285D02*
X103518571Y-66274523D01*
X103804285Y-66369761D01*
X103994761Y-66369761D01*
X104280476Y-66274523D01*
X104470952Y-66084047D01*
X104566190Y-65893571D01*
X104661428Y-65512619D01*
X104661428Y-65226904D01*
X104566190Y-64845952D01*
X104470952Y-64655476D01*
X104280476Y-64465000D01*
X103994761Y-64369761D01*
X103804285Y-64369761D01*
X103518571Y-64465000D01*
X103423333Y-64560238D01*
X101518571Y-66369761D02*
X102661428Y-66369761D01*
X102090000Y-66369761D02*
X102090000Y-64369761D01*
X102280476Y-64655476D01*
X102470952Y-64845952D01*
X102661428Y-64941190D01*
X109613809Y-50369761D02*
X110280476Y-49417380D01*
X110756666Y-50369761D02*
X110756666Y-48369761D01*
X109994761Y-48369761D01*
X109804285Y-48465000D01*
X109709047Y-48560238D01*
X109613809Y-48750714D01*
X109613809Y-49036428D01*
X109709047Y-49226904D01*
X109804285Y-49322142D01*
X109994761Y-49417380D01*
X110756666Y-49417380D01*
X108375714Y-48369761D02*
X107994761Y-48369761D01*
X107804285Y-48465000D01*
X107613809Y-48655476D01*
X107518571Y-49036428D01*
X107518571Y-49703095D01*
X107613809Y-50084047D01*
X107804285Y-50274523D01*
X107994761Y-50369761D01*
X108375714Y-50369761D01*
X108566190Y-50274523D01*
X108756666Y-50084047D01*
X108851904Y-49703095D01*
X108851904Y-49036428D01*
X108756666Y-48655476D01*
X108566190Y-48465000D01*
X108375714Y-48369761D01*
X106851904Y-48369761D02*
X106375714Y-50369761D01*
X105994761Y-48941190D01*
X105613809Y-50369761D01*
X105137619Y-48369761D01*
X104470952Y-48560238D02*
X104375714Y-48465000D01*
X104185238Y-48369761D01*
X103709047Y-48369761D01*
X103518571Y-48465000D01*
X103423333Y-48560238D01*
X103328095Y-48750714D01*
X103328095Y-48941190D01*
X103423333Y-49226904D01*
X104566190Y-50369761D01*
X103328095Y-50369761D01*
D10*
X100590000Y-66965000D02*
X86090000Y-66965000D01*
X100590000Y-47965000D02*
X100590000Y-66965000D01*
X86090000Y-47965000D02*
X100590000Y-47965000D01*
X86090000Y-67015000D02*
X86090000Y-48015000D01*
D11*
X94613809Y-50369761D02*
X95280476Y-49417380D01*
X95756666Y-50369761D02*
X95756666Y-48369761D01*
X94994761Y-48369761D01*
X94804285Y-48465000D01*
X94709047Y-48560238D01*
X94613809Y-48750714D01*
X94613809Y-49036428D01*
X94709047Y-49226904D01*
X94804285Y-49322142D01*
X94994761Y-49417380D01*
X95756666Y-49417380D01*
X93375714Y-48369761D02*
X92994761Y-48369761D01*
X92804285Y-48465000D01*
X92613809Y-48655476D01*
X92518571Y-49036428D01*
X92518571Y-49703095D01*
X92613809Y-50084047D01*
X92804285Y-50274523D01*
X92994761Y-50369761D01*
X93375714Y-50369761D01*
X93566190Y-50274523D01*
X93756666Y-50084047D01*
X93851904Y-49703095D01*
X93851904Y-49036428D01*
X93756666Y-48655476D01*
X93566190Y-48465000D01*
X93375714Y-48369761D01*
X91851904Y-48369761D02*
X91375714Y-50369761D01*
X90994761Y-48941190D01*
X90613809Y-50369761D01*
X90137619Y-48369761D01*
X88328095Y-50369761D02*
X89470952Y-50369761D01*
X88899523Y-50369761D02*
X88899523Y-48369761D01*
X89090000Y-48655476D01*
X89280476Y-48845952D01*
X89470952Y-48941190D01*
X98923333Y-58679285D02*
X99018571Y-58774523D01*
X99304285Y-58869761D01*
X99494761Y-58869761D01*
X99780476Y-58774523D01*
X99970952Y-58584047D01*
X100066190Y-58393571D01*
X100161428Y-58012619D01*
X100161428Y-57726904D01*
X100066190Y-57345952D01*
X99970952Y-57155476D01*
X99780476Y-56965000D01*
X99494761Y-56869761D01*
X99304285Y-56869761D01*
X99018571Y-56965000D01*
X98923333Y-57060238D01*
X97209047Y-57536428D02*
X97209047Y-58869761D01*
X97685238Y-56774523D02*
X98161428Y-58203095D01*
X96923333Y-58203095D01*
X95423333Y-61179285D02*
X95518571Y-61274523D01*
X95804285Y-61369761D01*
X95994761Y-61369761D01*
X96280476Y-61274523D01*
X96470952Y-61084047D01*
X96566190Y-60893571D01*
X96661428Y-60512619D01*
X96661428Y-60226904D01*
X96566190Y-59845952D01*
X96470952Y-59655476D01*
X96280476Y-59465000D01*
X95994761Y-59369761D01*
X95804285Y-59369761D01*
X95518571Y-59465000D01*
X95423333Y-59560238D01*
X94756666Y-59369761D02*
X93518571Y-59369761D01*
X94185238Y-60131666D01*
X93899523Y-60131666D01*
X93709047Y-60226904D01*
X93613809Y-60322142D01*
X93518571Y-60512619D01*
X93518571Y-60988809D01*
X93613809Y-61179285D01*
X93709047Y-61274523D01*
X93899523Y-61369761D01*
X94470952Y-61369761D01*
X94661428Y-61274523D01*
X94756666Y-61179285D01*
X91923333Y-63679285D02*
X92018571Y-63774523D01*
X92304285Y-63869761D01*
X92494761Y-63869761D01*
X92780476Y-63774523D01*
X92970952Y-63584047D01*
X93066190Y-63393571D01*
X93161428Y-63012619D01*
X93161428Y-62726904D01*
X93066190Y-62345952D01*
X92970952Y-62155476D01*
X92780476Y-61965000D01*
X92494761Y-61869761D01*
X92304285Y-61869761D01*
X92018571Y-61965000D01*
X91923333Y-62060238D01*
X91161428Y-62060238D02*
X91066190Y-61965000D01*
X90875714Y-61869761D01*
X90399523Y-61869761D01*
X90209047Y-61965000D01*
X90113809Y-62060238D01*
X90018571Y-62250714D01*
X90018571Y-62441190D01*
X90113809Y-62726904D01*
X91256666Y-63869761D01*
X90018571Y-63869761D01*
X88423333Y-66179285D02*
X88518571Y-66274523D01*
X88804285Y-66369761D01*
X88994761Y-66369761D01*
X89280476Y-66274523D01*
X89470952Y-66084047D01*
X89566190Y-65893571D01*
X89661428Y-65512619D01*
X89661428Y-65226904D01*
X89566190Y-64845952D01*
X89470952Y-64655476D01*
X89280476Y-64465000D01*
X88994761Y-64369761D01*
X88804285Y-64369761D01*
X88518571Y-64465000D01*
X88423333Y-64560238D01*
X86518571Y-66369761D02*
X87661428Y-66369761D01*
X87090000Y-66369761D02*
X87090000Y-64369761D01*
X87280476Y-64655476D01*
X87470952Y-64845952D01*
X87661428Y-64941190D01*
D12*
X106554285Y-71582857D02*
X107054285Y-71582857D01*
X107054285Y-72368571D02*
X107054285Y-70868571D01*
X106340000Y-70868571D01*
X105768571Y-72368571D02*
X105768571Y-71368571D01*
X105768571Y-70868571D02*
X105840000Y-70940000D01*
X105768571Y-71011428D01*
X105697142Y-70940000D01*
X105768571Y-70868571D01*
X105768571Y-71011428D01*
X105054285Y-72368571D02*
X105054285Y-71368571D01*
X105054285Y-71654285D02*
X104982857Y-71511428D01*
X104911428Y-71440000D01*
X104768571Y-71368571D01*
X104625714Y-71368571D01*
X104197142Y-72297142D02*
X104054285Y-72368571D01*
X103768571Y-72368571D01*
X103625714Y-72297142D01*
X103554285Y-72154285D01*
X103554285Y-72082857D01*
X103625714Y-71940000D01*
X103768571Y-71868571D01*
X103982857Y-71868571D01*
X104125714Y-71797142D01*
X104197142Y-71654285D01*
X104197142Y-71582857D01*
X104125714Y-71440000D01*
X103982857Y-71368571D01*
X103768571Y-71368571D01*
X103625714Y-71440000D01*
X103125714Y-71368571D02*
X102554285Y-71368571D01*
X102911428Y-70868571D02*
X102911428Y-72154285D01*
X102840000Y-72297142D01*
X102697142Y-72368571D01*
X102554285Y-72368571D01*
X102125714Y-72297142D02*
X101911428Y-72368571D01*
X101554285Y-72368571D01*
X101411428Y-72297142D01*
X101340000Y-72225714D01*
X101268571Y-72082857D01*
X101268571Y-71940000D01*
X101340000Y-71797142D01*
X101411428Y-71725714D01*
X101554285Y-71654285D01*
X101840000Y-71582857D01*
X101982857Y-71511428D01*
X102054285Y-71440000D01*
X102125714Y-71297142D01*
X102125714Y-71154285D01*
X102054285Y-71011428D01*
X101982857Y-70940000D01*
X101840000Y-70868571D01*
X101482857Y-70868571D01*
X101268571Y-70940000D01*
X100840000Y-71368571D02*
X100268571Y-71368571D01*
X100625714Y-70868571D02*
X100625714Y-72154285D01*
X100554285Y-72297142D01*
X100411428Y-72368571D01*
X100268571Y-72368571D01*
X99197142Y-72297142D02*
X99340000Y-72368571D01*
X99625714Y-72368571D01*
X99768571Y-72297142D01*
X99840000Y-72154285D01*
X99840000Y-71582857D01*
X99768571Y-71440000D01*
X99625714Y-71368571D01*
X99340000Y-71368571D01*
X99197142Y-71440000D01*
X99125714Y-71582857D01*
X99125714Y-71725714D01*
X99840000Y-71868571D01*
X98482857Y-71368571D02*
X98482857Y-72868571D01*
X98482857Y-71440000D02*
X98340000Y-71368571D01*
X98054285Y-71368571D01*
X97911428Y-71440000D01*
X97840000Y-71511428D01*
X97768571Y-71654285D01*
X97768571Y-72082857D01*
X97840000Y-72225714D01*
X97911428Y-72297142D01*
X98054285Y-72368571D01*
X98340000Y-72368571D01*
X98482857Y-72297142D01*
X96340000Y-72368571D02*
X97197142Y-72368571D01*
X96768571Y-72368571D02*
X96768571Y-70868571D01*
X96911428Y-71082857D01*
X97054285Y-71225714D01*
X97197142Y-71297142D01*
X95768571Y-71011428D02*
X95697142Y-70940000D01*
X95554285Y-70868571D01*
X95197142Y-70868571D01*
X95054285Y-70940000D01*
X94982857Y-71011428D01*
X94911428Y-71154285D01*
X94911428Y-71297142D01*
X94982857Y-71511428D01*
X95840000Y-72368571D01*
X94911428Y-72368571D01*
X93268571Y-71368571D02*
X92911428Y-72368571D01*
X92554285Y-71368571D01*
X91197142Y-72368571D02*
X92054285Y-72368571D01*
X91625714Y-72368571D02*
X91625714Y-70868571D01*
X91768571Y-71082857D01*
X91911428Y-71225714D01*
X92054285Y-71297142D01*
X90554285Y-72225714D02*
X90482857Y-72297142D01*
X90554285Y-72368571D01*
X90625714Y-72297142D01*
X90554285Y-72225714D01*
X90554285Y-72368571D01*
X89554285Y-70868571D02*
X89411428Y-70868571D01*
X89268571Y-70940000D01*
X89197142Y-71011428D01*
X89125714Y-71154285D01*
X89054285Y-71440000D01*
X89054285Y-71797142D01*
X89125714Y-72082857D01*
X89197142Y-72225714D01*
X89268571Y-72297142D01*
X89411428Y-72368571D01*
X89554285Y-72368571D01*
X89697142Y-72297142D01*
X89768571Y-72225714D01*
X89840000Y-72082857D01*
X89911428Y-71797142D01*
X89911428Y-71440000D01*
X89840000Y-71154285D01*
X89768571Y-71011428D01*
X89697142Y-70940000D01*
X89554285Y-70868571D01*
X110875714Y-74918571D02*
X110875714Y-73418571D01*
X110304285Y-73418571D01*
X110161428Y-73490000D01*
X110090000Y-73561428D01*
X110018571Y-73704285D01*
X110018571Y-73918571D01*
X110090000Y-74061428D01*
X110161428Y-74132857D01*
X110304285Y-74204285D01*
X110875714Y-74204285D01*
X108518571Y-74775714D02*
X108590000Y-74847142D01*
X108804285Y-74918571D01*
X108947142Y-74918571D01*
X109161428Y-74847142D01*
X109304285Y-74704285D01*
X109375714Y-74561428D01*
X109447142Y-74275714D01*
X109447142Y-74061428D01*
X109375714Y-73775714D01*
X109304285Y-73632857D01*
X109161428Y-73490000D01*
X108947142Y-73418571D01*
X108804285Y-73418571D01*
X108590000Y-73490000D01*
X108518571Y-73561428D01*
X107375714Y-74132857D02*
X107161428Y-74204285D01*
X107090000Y-74275714D01*
X107018571Y-74418571D01*
X107018571Y-74632857D01*
X107090000Y-74775714D01*
X107161428Y-74847142D01*
X107304285Y-74918571D01*
X107875714Y-74918571D01*
X107875714Y-73418571D01*
X107375714Y-73418571D01*
X107232857Y-73490000D01*
X107161428Y-73561428D01*
X107090000Y-73704285D01*
X107090000Y-73847142D01*
X107161428Y-73990000D01*
X107232857Y-74061428D01*
X107375714Y-74132857D01*
X107875714Y-74132857D01*
X104590000Y-74918571D02*
X104590000Y-73418571D01*
X104590000Y-74847142D02*
X104732857Y-74918571D01*
X105018571Y-74918571D01*
X105161428Y-74847142D01*
X105232857Y-74775714D01*
X105304285Y-74632857D01*
X105304285Y-74204285D01*
X105232857Y-74061428D01*
X105161428Y-73990000D01*
X105018571Y-73918571D01*
X104732857Y-73918571D01*
X104590000Y-73990000D01*
X103304285Y-74847142D02*
X103447142Y-74918571D01*
X103732857Y-74918571D01*
X103875714Y-74847142D01*
X103947142Y-74704285D01*
X103947142Y-74132857D01*
X103875714Y-73990000D01*
X103732857Y-73918571D01*
X103447142Y-73918571D01*
X103304285Y-73990000D01*
X103232857Y-74132857D01*
X103232857Y-74275714D01*
X103947142Y-74418571D01*
X102661428Y-74847142D02*
X102518571Y-74918571D01*
X102232857Y-74918571D01*
X102090000Y-74847142D01*
X102018571Y-74704285D01*
X102018571Y-74632857D01*
X102090000Y-74490000D01*
X102232857Y-74418571D01*
X102447142Y-74418571D01*
X102590000Y-74347142D01*
X102661428Y-74204285D01*
X102661428Y-74132857D01*
X102590000Y-73990000D01*
X102447142Y-73918571D01*
X102232857Y-73918571D01*
X102090000Y-73990000D01*
X101375714Y-74918571D02*
X101375714Y-73918571D01*
X101375714Y-73418571D02*
X101447142Y-73490000D01*
X101375714Y-73561428D01*
X101304285Y-73490000D01*
X101375714Y-73418571D01*
X101375714Y-73561428D01*
X100018571Y-73918571D02*
X100018571Y-75132857D01*
X100090000Y-75275714D01*
X100161428Y-75347142D01*
X100304285Y-75418571D01*
X100518571Y-75418571D01*
X100661428Y-75347142D01*
X100018571Y-74847142D02*
X100161428Y-74918571D01*
X100447142Y-74918571D01*
X100590000Y-74847142D01*
X100661428Y-74775714D01*
X100732857Y-74632857D01*
X100732857Y-74204285D01*
X100661428Y-74061428D01*
X100590000Y-73990000D01*
X100447142Y-73918571D01*
X100161428Y-73918571D01*
X100018571Y-73990000D01*
X99304285Y-73918571D02*
X99304285Y-74918571D01*
X99304285Y-74061428D02*
X99232857Y-73990000D01*
X99090000Y-73918571D01*
X98875714Y-73918571D01*
X98732857Y-73990000D01*
X98661428Y-74132857D01*
X98661428Y-74918571D01*
X97375714Y-74847142D02*
X97518571Y-74918571D01*
X97804285Y-74918571D01*
X97947142Y-74847142D01*
X98018571Y-74704285D01*
X98018571Y-74132857D01*
X97947142Y-73990000D01*
X97804285Y-73918571D01*
X97518571Y-73918571D01*
X97375714Y-73990000D01*
X97304285Y-74132857D01*
X97304285Y-74275714D01*
X98018571Y-74418571D01*
X96018571Y-74918571D02*
X96018571Y-73418571D01*
X96018571Y-74847142D02*
X96161428Y-74918571D01*
X96447142Y-74918571D01*
X96590000Y-74847142D01*
X96661428Y-74775714D01*
X96732857Y-74632857D01*
X96732857Y-74204285D01*
X96661428Y-74061428D01*
X96590000Y-73990000D01*
X96447142Y-73918571D01*
X96161428Y-73918571D01*
X96018571Y-73990000D01*
X94161428Y-74918571D02*
X94161428Y-73418571D01*
X94161428Y-73990000D02*
X94018571Y-73918571D01*
X93732857Y-73918571D01*
X93590000Y-73990000D01*
X93518571Y-74061428D01*
X93447142Y-74204285D01*
X93447142Y-74632857D01*
X93518571Y-74775714D01*
X93590000Y-74847142D01*
X93732857Y-74918571D01*
X94018571Y-74918571D01*
X94161428Y-74847142D01*
X92947142Y-73918571D02*
X92590000Y-74918571D01*
X92232857Y-73918571D02*
X92590000Y-74918571D01*
X92732857Y-75275714D01*
X92804285Y-75347142D01*
X92947142Y-75418571D01*
X90518571Y-74918571D02*
X90518571Y-73418571D01*
X90375714Y-74347142D02*
X89947142Y-74918571D01*
X89947142Y-73918571D02*
X90518571Y-74490000D01*
X88661428Y-74918571D02*
X88661428Y-74132857D01*
X88732857Y-73990000D01*
X88875714Y-73918571D01*
X89161428Y-73918571D01*
X89304285Y-73990000D01*
X88661428Y-74847142D02*
X88804285Y-74918571D01*
X89161428Y-74918571D01*
X89304285Y-74847142D01*
X89375714Y-74704285D01*
X89375714Y-74561428D01*
X89304285Y-74418571D01*
X89161428Y-74347142D01*
X88804285Y-74347142D01*
X88661428Y-74275714D01*
X87947142Y-74918571D02*
X87947142Y-73918571D01*
X87947142Y-74061428D02*
X87875714Y-73990000D01*
X87732857Y-73918571D01*
X87518571Y-73918571D01*
X87375714Y-73990000D01*
X87304285Y-74132857D01*
X87304285Y-74918571D01*
X87304285Y-74132857D02*
X87232857Y-73990000D01*
X87090000Y-73918571D01*
X86875714Y-73918571D01*
X86732857Y-73990000D01*
X86661428Y-74132857D01*
X86661428Y-74918571D01*
X85732857Y-74918571D02*
X85875714Y-74847142D01*
X85947142Y-74775714D01*
X86018571Y-74632857D01*
X86018571Y-74204285D01*
X85947142Y-74061428D01*
X85875714Y-73990000D01*
X85732857Y-73918571D01*
X85518571Y-73918571D01*
X85375714Y-73990000D01*
X85304285Y-74061428D01*
X85232857Y-74204285D01*
X85232857Y-74632857D01*
X85304285Y-74775714D01*
X85375714Y-74847142D01*
X85518571Y-74918571D01*
X85732857Y-74918571D01*
G04 #@! TO.C,L3*
X134220000Y-93365000D02*
X134220000Y-94815000D01*
X134220000Y-94815000D02*
X132170000Y-94815000D01*
X132170000Y-94815000D02*
X132170000Y-93365000D01*
X132170000Y-93365000D02*
X134220000Y-93365000D01*
G04 #@! TO.C,L2*
X115570000Y-93365000D02*
X115570000Y-94815000D01*
X115570000Y-94815000D02*
X113520000Y-94815000D01*
X113520000Y-94815000D02*
X113520000Y-93365000D01*
X113520000Y-93365000D02*
X115570000Y-93365000D01*
G04 #@! TO.C,L1*
X96520000Y-93365000D02*
X96520000Y-94815000D01*
X96520000Y-94815000D02*
X94470000Y-94815000D01*
X94470000Y-94815000D02*
X94470000Y-93365000D01*
X94470000Y-93365000D02*
X96520000Y-93365000D01*
G04 #@! TO.C,L4*
X153670000Y-93365000D02*
X153670000Y-94815000D01*
X153670000Y-94815000D02*
X151620000Y-94815000D01*
X151620000Y-94815000D02*
X151620000Y-93365000D01*
X151620000Y-93365000D02*
X153670000Y-93365000D01*
G04 #@! TO.C,L5*
X96520000Y-112415000D02*
X96520000Y-113865000D01*
X96520000Y-113865000D02*
X94470000Y-113865000D01*
X94470000Y-113865000D02*
X94470000Y-112415000D01*
X94470000Y-112415000D02*
X96520000Y-112415000D01*
G04 #@! TO.C,L6*
X115570000Y-112415000D02*
X115570000Y-113865000D01*
X115570000Y-113865000D02*
X113520000Y-113865000D01*
X113520000Y-113865000D02*
X113520000Y-112415000D01*
X113520000Y-112415000D02*
X115570000Y-112415000D01*
G04 #@! TO.C,L7*
X134620000Y-112415000D02*
X134620000Y-113865000D01*
X134620000Y-113865000D02*
X132570000Y-113865000D01*
X132570000Y-113865000D02*
X132570000Y-112415000D01*
X132570000Y-112415000D02*
X134620000Y-112415000D01*
G04 #@! TO.C,L8*
X153670000Y-112415000D02*
X153670000Y-113865000D01*
X153670000Y-113865000D02*
X151620000Y-113865000D01*
X151620000Y-113865000D02*
X151620000Y-112415000D01*
X151620000Y-112415000D02*
X153670000Y-112415000D01*
G04 #@! TO.C,L9*
X96520000Y-131465000D02*
X96520000Y-132915000D01*
X96520000Y-132915000D02*
X94470000Y-132915000D01*
X94470000Y-132915000D02*
X94470000Y-131465000D01*
X94470000Y-131465000D02*
X96520000Y-131465000D01*
G04 #@! TO.C,L10*
X115570000Y-131465000D02*
X115570000Y-132915000D01*
X115570000Y-132915000D02*
X113520000Y-132915000D01*
X113520000Y-132915000D02*
X113520000Y-131465000D01*
X113520000Y-131465000D02*
X115570000Y-131465000D01*
G04 #@! TO.C,L11*
X134620000Y-131465000D02*
X134620000Y-132915000D01*
X134620000Y-132915000D02*
X132570000Y-132915000D01*
X132570000Y-132915000D02*
X132570000Y-131465000D01*
X132570000Y-131465000D02*
X134620000Y-131465000D01*
G04 #@! TO.C,L12*
X153670000Y-131465000D02*
X153670000Y-132915000D01*
X153670000Y-132915000D02*
X151620000Y-132915000D01*
X151620000Y-132915000D02*
X151620000Y-131465000D01*
X151620000Y-131465000D02*
X153670000Y-131465000D01*
D11*
G04 #@! TO.C,D1*
X88090000Y-59565000D02*
X88590000Y-60465000D01*
X88590000Y-60465000D02*
X87590000Y-60465000D01*
X87590000Y-60465000D02*
X88090000Y-59565000D01*
X88590000Y-59465000D02*
X87590000Y-59465000D01*
G04 #@! TO.C,D2*
X92090000Y-56965000D02*
X91090000Y-56965000D01*
X91090000Y-57965000D02*
X91590000Y-57065000D01*
X92090000Y-57965000D02*
X91090000Y-57965000D01*
X91590000Y-57065000D02*
X92090000Y-57965000D01*
G04 #@! TO.C,D3*
X95590000Y-54465000D02*
X94590000Y-54465000D01*
X94590000Y-55465000D02*
X95090000Y-54565000D01*
X95590000Y-55465000D02*
X94590000Y-55465000D01*
X95090000Y-54565000D02*
X95590000Y-55465000D01*
G04 #@! TO.C,D4*
X98590000Y-52065000D02*
X99090000Y-52965000D01*
X99090000Y-52965000D02*
X98090000Y-52965000D01*
X98090000Y-52965000D02*
X98590000Y-52065000D01*
X99090000Y-51965000D02*
X98090000Y-51965000D01*
G04 #@! TO.C,D5*
X103090000Y-59565000D02*
X103590000Y-60465000D01*
X103590000Y-60465000D02*
X102590000Y-60465000D01*
X102590000Y-60465000D02*
X103090000Y-59565000D01*
X103590000Y-59465000D02*
X102590000Y-59465000D01*
G04 #@! TO.C,D6*
X107090000Y-56965000D02*
X106090000Y-56965000D01*
X106090000Y-57965000D02*
X106590000Y-57065000D01*
X107090000Y-57965000D02*
X106090000Y-57965000D01*
X106590000Y-57065000D02*
X107090000Y-57965000D01*
G04 #@! TO.C,D7*
X110090000Y-54565000D02*
X110590000Y-55465000D01*
X110590000Y-55465000D02*
X109590000Y-55465000D01*
X109590000Y-55465000D02*
X110090000Y-54565000D01*
X110590000Y-54465000D02*
X109590000Y-54465000D01*
G04 #@! TO.C,D8*
X114090000Y-51965000D02*
X113090000Y-51965000D01*
X113090000Y-52965000D02*
X113590000Y-52065000D01*
X114090000Y-52965000D02*
X113090000Y-52965000D01*
X113590000Y-52065000D02*
X114090000Y-52965000D01*
G04 #@! TO.C,D9*
X118590000Y-59465000D02*
X117590000Y-59465000D01*
X117590000Y-60465000D02*
X118090000Y-59565000D01*
X118590000Y-60465000D02*
X117590000Y-60465000D01*
X118090000Y-59565000D02*
X118590000Y-60465000D01*
G04 #@! TO.C,D10*
X121590000Y-57065000D02*
X122090000Y-57965000D01*
X122090000Y-57965000D02*
X121090000Y-57965000D01*
X121090000Y-57965000D02*
X121590000Y-57065000D01*
X122090000Y-56965000D02*
X121090000Y-56965000D01*
G04 #@! TO.C,D11*
X125590000Y-54465000D02*
X124590000Y-54465000D01*
X124590000Y-55465000D02*
X125090000Y-54565000D01*
X125590000Y-55465000D02*
X124590000Y-55465000D01*
X125090000Y-54565000D02*
X125590000Y-55465000D01*
G04 #@! TO.C,D12*
X128590000Y-52065000D02*
X129090000Y-52965000D01*
X129090000Y-52965000D02*
X128090000Y-52965000D01*
X128090000Y-52965000D02*
X128590000Y-52065000D01*
X129090000Y-51965000D02*
X128090000Y-51965000D01*
G04 #@! TD*
G04 #@! TO.C,U1*
G04 #@! TD*
%LPC*%
D13*
G04 #@! TO.C,H2*
X83090000Y-67465000D03*
G04 #@! TD*
D14*
G04 #@! TO.C,L3*
X128390000Y-95840000D03*
X128390000Y-94090000D03*
X133190000Y-94090000D03*
X133190000Y-95840000D03*
G04 #@! TD*
G04 #@! TO.C,L2*
X109740000Y-95840000D03*
X109740000Y-94090000D03*
X114540000Y-94090000D03*
X114540000Y-95840000D03*
G04 #@! TD*
G04 #@! TO.C,L1*
X90690000Y-95840000D03*
X90690000Y-94090000D03*
X95490000Y-94090000D03*
X95490000Y-95840000D03*
G04 #@! TD*
G04 #@! TO.C,L4*
X147840000Y-95840000D03*
X147840000Y-94090000D03*
X152640000Y-94090000D03*
X152640000Y-95840000D03*
G04 #@! TD*
G04 #@! TO.C,L5*
X90690000Y-114890000D03*
X90690000Y-113140000D03*
X95490000Y-113140000D03*
X95490000Y-114890000D03*
G04 #@! TD*
G04 #@! TO.C,L6*
X109740000Y-114890000D03*
X109740000Y-113140000D03*
X114540000Y-113140000D03*
X114540000Y-114890000D03*
G04 #@! TD*
G04 #@! TO.C,L7*
X128790000Y-114890000D03*
X128790000Y-113140000D03*
X133590000Y-113140000D03*
X133590000Y-114890000D03*
G04 #@! TD*
G04 #@! TO.C,L8*
X147840000Y-114890000D03*
X147840000Y-113140000D03*
X152640000Y-113140000D03*
X152640000Y-114890000D03*
G04 #@! TD*
G04 #@! TO.C,L9*
X90690000Y-133940000D03*
X90690000Y-132190000D03*
X95490000Y-132190000D03*
X95490000Y-133940000D03*
G04 #@! TD*
G04 #@! TO.C,L10*
X109740000Y-133940000D03*
X109740000Y-132190000D03*
X114540000Y-132190000D03*
X114540000Y-133940000D03*
G04 #@! TD*
G04 #@! TO.C,L11*
X128790000Y-133940000D03*
X128790000Y-132190000D03*
X133590000Y-132190000D03*
X133590000Y-133940000D03*
G04 #@! TD*
G04 #@! TO.C,L12*
X147840000Y-133940000D03*
X147840000Y-132190000D03*
X152640000Y-132190000D03*
X152640000Y-133940000D03*
G04 #@! TD*
D13*
G04 #@! TO.C,H1*
X83090000Y-47465000D03*
G04 #@! TD*
G04 #@! TO.C,H4*
X160240000Y-78965000D03*
G04 #@! TD*
G04 #@! TO.C,H3*
X83090000Y-78965000D03*
G04 #@! TD*
G04 #@! TO.C,H6*
X160240000Y-137065000D03*
G04 #@! TD*
G04 #@! TO.C,H5*
X83090000Y-137065000D03*
G04 #@! TD*
D15*
G04 #@! TO.C,D1*
X88090000Y-56965000D03*
D16*
X88090000Y-62965000D03*
G04 #@! TD*
G04 #@! TO.C,D2*
X91590000Y-60465000D03*
D15*
X91590000Y-54465000D03*
G04 #@! TD*
D16*
G04 #@! TO.C,D3*
X95090000Y-57965000D03*
D15*
X95090000Y-51965000D03*
G04 #@! TD*
G04 #@! TO.C,D4*
X98590000Y-49465000D03*
D16*
X98590000Y-55465000D03*
G04 #@! TD*
D15*
G04 #@! TO.C,D5*
X103090000Y-56965000D03*
D16*
X103090000Y-62965000D03*
G04 #@! TD*
G04 #@! TO.C,D6*
X106590000Y-60465000D03*
D15*
X106590000Y-54465000D03*
G04 #@! TD*
G04 #@! TO.C,D7*
X110090000Y-51965000D03*
D16*
X110090000Y-57965000D03*
G04 #@! TD*
G04 #@! TO.C,D8*
X113590000Y-55465000D03*
D15*
X113590000Y-49465000D03*
G04 #@! TD*
D16*
G04 #@! TO.C,D9*
X118090000Y-62965000D03*
D15*
X118090000Y-56965000D03*
G04 #@! TD*
G04 #@! TO.C,D10*
X121590000Y-54465000D03*
D16*
X121590000Y-60465000D03*
G04 #@! TD*
G04 #@! TO.C,D11*
X125090000Y-57965000D03*
D15*
X125090000Y-51965000D03*
G04 #@! TD*
G04 #@! TO.C,D12*
X128590000Y-49465000D03*
D16*
X128590000Y-55465000D03*
G04 #@! TD*
D17*
G04 #@! TO.C,SW1*
X93090000Y-88965000D03*
D18*
X87590000Y-88965000D03*
X98590000Y-88965000D03*
D19*
X95630000Y-83885000D03*
X89280000Y-86425000D03*
G04 #@! TD*
G04 #@! TO.C,SW2*
X108330000Y-86425000D03*
X114680000Y-83885000D03*
D18*
X117640000Y-88965000D03*
X106640000Y-88965000D03*
D17*
X112140000Y-88965000D03*
G04 #@! TD*
G04 #@! TO.C,SW3*
X131190000Y-88965000D03*
D18*
X125690000Y-88965000D03*
X136690000Y-88965000D03*
D19*
X133730000Y-83885000D03*
X127380000Y-86425000D03*
G04 #@! TD*
G04 #@! TO.C,SW4*
X146430000Y-86425000D03*
X152780000Y-83885000D03*
D18*
X155740000Y-88965000D03*
X144740000Y-88965000D03*
D17*
X150240000Y-88965000D03*
G04 #@! TD*
D19*
G04 #@! TO.C,SW5*
X89280000Y-105475000D03*
X95630000Y-102935000D03*
D18*
X98590000Y-108015000D03*
X87590000Y-108015000D03*
D17*
X93090000Y-108015000D03*
G04 #@! TD*
G04 #@! TO.C,SW6*
X112140000Y-108015000D03*
D18*
X106640000Y-108015000D03*
X117640000Y-108015000D03*
D19*
X114680000Y-102935000D03*
X108330000Y-105475000D03*
G04 #@! TD*
G04 #@! TO.C,SW7*
X127380000Y-105475000D03*
X133730000Y-102935000D03*
D18*
X136690000Y-108015000D03*
X125690000Y-108015000D03*
D17*
X131190000Y-108015000D03*
G04 #@! TD*
G04 #@! TO.C,SW8*
X150240000Y-108015000D03*
D18*
X144740000Y-108015000D03*
X155740000Y-108015000D03*
D19*
X152780000Y-102935000D03*
X146430000Y-105475000D03*
G04 #@! TD*
G04 #@! TO.C,SW9*
X89280000Y-124525000D03*
X95630000Y-121985000D03*
D18*
X98590000Y-127065000D03*
X87590000Y-127065000D03*
D17*
X93090000Y-127065000D03*
G04 #@! TD*
G04 #@! TO.C,SW10*
X112140000Y-127065000D03*
D18*
X106640000Y-127065000D03*
X117640000Y-127065000D03*
D19*
X114680000Y-121985000D03*
X108330000Y-124525000D03*
G04 #@! TD*
D17*
G04 #@! TO.C,SW11*
X131190000Y-127065000D03*
D18*
X125690000Y-127065000D03*
X136690000Y-127065000D03*
D19*
X133730000Y-121985000D03*
X127380000Y-124525000D03*
G04 #@! TD*
G04 #@! TO.C,SW12*
X146430000Y-124525000D03*
X152780000Y-121985000D03*
D18*
X155740000Y-127065000D03*
X144740000Y-127065000D03*
D17*
X150240000Y-127065000D03*
G04 #@! TD*
D20*
G04 #@! TO.C,SW13*
X124340000Y-44465000D03*
X130840000Y-44465000D03*
G04 #@! TD*
D21*
G04 #@! TO.C,U1*
X160468000Y-64976400D03*
X157928000Y-64976400D03*
X155388000Y-64976400D03*
X152848000Y-64976400D03*
X150308000Y-64976400D03*
X147768000Y-64976400D03*
X145228000Y-64976400D03*
X142688000Y-64976400D03*
X140148000Y-64976400D03*
X137608000Y-64976400D03*
X135068000Y-64976400D03*
X132528000Y-64976400D03*
X132528000Y-49756400D03*
X135068000Y-49756400D03*
X137608000Y-49756400D03*
X140148000Y-49756400D03*
X142688000Y-49756400D03*
X145228000Y-49756400D03*
X147768000Y-49756400D03*
X150308000Y-49756400D03*
X152848000Y-49756400D03*
X155388000Y-49756400D03*
X157928000Y-49756400D03*
X160468000Y-49756400D03*
G04 #@! TD*
M02*
