G04 #@! TF.GenerationSoftware,KiCad,Pcbnew,5.1.6*
G04 #@! TF.CreationDate,2020-06-26T00:36:41+09:00*
G04 #@! TF.ProjectId,firststep12,66697273-7473-4746-9570-31322e6b6963,rev?*
G04 #@! TF.SameCoordinates,Original*
G04 #@! TF.FileFunction,Soldermask,Top*
G04 #@! TF.FilePolarity,Negative*
%FSLAX46Y46*%
G04 Gerber Fmt 4.6, Leading zero omitted, Abs format (unit mm)*
G04 Created by KiCad (PCBNEW 5.1.6) date 2020-06-26 00:36:41*
%MOMM*%
%LPD*%
G01*
G04 APERTURE LIST*
%ADD10C,4.900000*%
%ADD11C,4.100000*%
%ADD12C,2.000000*%
G04 APERTURE END LIST*
D10*
G04 #@! TO.C,H2*
X83090000Y-67465000D03*
G04 #@! TD*
G04 #@! TO.C,H1*
X83090000Y-47465000D03*
G04 #@! TD*
G04 #@! TO.C,H4*
X160240000Y-78965000D03*
G04 #@! TD*
G04 #@! TO.C,H3*
X83090000Y-78965000D03*
G04 #@! TD*
G04 #@! TO.C,H6*
X160240000Y-137065000D03*
G04 #@! TD*
G04 #@! TO.C,H5*
X83090000Y-137065000D03*
G04 #@! TD*
D11*
G04 #@! TO.C,SW1*
X93090000Y-88965000D03*
D12*
X87590000Y-88965000D03*
X98590000Y-88965000D03*
G04 #@! TD*
G04 #@! TO.C,SW2*
X117640000Y-88965000D03*
X106640000Y-88965000D03*
D11*
X112140000Y-88965000D03*
G04 #@! TD*
G04 #@! TO.C,SW3*
X131190000Y-88965000D03*
D12*
X125690000Y-88965000D03*
X136690000Y-88965000D03*
G04 #@! TD*
G04 #@! TO.C,SW4*
X155740000Y-88965000D03*
X144740000Y-88965000D03*
D11*
X150240000Y-88965000D03*
G04 #@! TD*
D12*
G04 #@! TO.C,SW5*
X98590000Y-108015000D03*
X87590000Y-108015000D03*
D11*
X93090000Y-108015000D03*
G04 #@! TD*
G04 #@! TO.C,SW6*
X112140000Y-108015000D03*
D12*
X106640000Y-108015000D03*
X117640000Y-108015000D03*
G04 #@! TD*
G04 #@! TO.C,SW7*
X136690000Y-108015000D03*
X125690000Y-108015000D03*
D11*
X131190000Y-108015000D03*
G04 #@! TD*
G04 #@! TO.C,SW8*
X150240000Y-108015000D03*
D12*
X144740000Y-108015000D03*
X155740000Y-108015000D03*
G04 #@! TD*
G04 #@! TO.C,SW9*
X98590000Y-127065000D03*
X87590000Y-127065000D03*
D11*
X93090000Y-127065000D03*
G04 #@! TD*
G04 #@! TO.C,SW10*
X112140000Y-127065000D03*
D12*
X106640000Y-127065000D03*
X117640000Y-127065000D03*
G04 #@! TD*
D11*
G04 #@! TO.C,SW11*
X131190000Y-127065000D03*
D12*
X125690000Y-127065000D03*
X136690000Y-127065000D03*
G04 #@! TD*
G04 #@! TO.C,SW12*
X155740000Y-127065000D03*
X144740000Y-127065000D03*
D11*
X150240000Y-127065000D03*
G04 #@! TD*
M02*
