M48
; DRILL file {KiCad 5.1.6} date Fri Jun 26 00:36:25 2020
; FORMAT={-:-/ absolute / metric / decimal}
; #@! TF.CreationDate,2020-06-26T00:36:25+09:00
; #@! TF.GenerationSoftware,Kicad,Pcbnew,5.1.6
; #@! TF.FileFunction,NonPlated,1,2,NPTH
FMAT,2
METRIC
T1C1.900
T2C4.000
%
G90
G05
T1
X106.64Y-88.965
X117.64Y-88.965
X106.64Y-108.015
X117.64Y-108.015
X144.74Y-108.015
X155.74Y-108.015
X87.59Y-127.065
X98.59Y-127.065
X125.69Y-108.015
X136.69Y-108.015
X125.69Y-88.965
X136.69Y-88.965
X125.69Y-127.065
X136.69Y-127.065
X87.59Y-88.965
X98.59Y-88.965
X87.59Y-108.015
X98.59Y-108.015
X144.74Y-88.965
X155.74Y-88.965
X106.64Y-127.065
X117.64Y-127.065
X144.74Y-127.065
X155.74Y-127.065
T2
X112.14Y-88.965
X112.14Y-108.015
X150.24Y-108.015
X93.09Y-127.065
X131.19Y-108.015
X131.19Y-88.965
X131.19Y-127.065
X93.09Y-88.965
X93.09Y-108.015
X150.24Y-88.965
X112.14Y-127.065
X150.24Y-127.065
T0
M30
