M48
; DRILL file {KiCad 5.1.6} date Fri Jun 26 00:36:25 2020
; FORMAT={-:-/ absolute / metric / decimal}
; #@! TF.CreationDate,2020-06-26T00:36:25+09:00
; #@! TF.GenerationSoftware,Kicad,Pcbnew,5.1.6
; #@! TF.FileFunction,Plated,1,2,PTH
FMAT,2
METRIC
T1C0.400
T2C0.800
T3C0.813
T4C1.300
T5C4.800
%
G90
G05
T1
X90.495Y-130.939
X99.969Y-131.795
X102.099Y-93.196
X102.138Y-91.115
X104.069Y-113.179
X106.116Y-128.865
X106.56Y-109.59
X108.77Y-109.887
X109.53Y-98.265
X109.738Y-92.977
X109.74Y-112.008
X109.773Y-131.081
X114.916Y-117.594
X115.747Y-89.42
X115.94Y-95.718
X116.1Y-134.848
X116.162Y-113.629
X126.646Y-94.346
X126.646Y-100.337
X128.077Y-112.022
X128.838Y-131.058
X129.769Y-117.879
X130.793Y-79.41
X134.326Y-97.268
X134.991Y-133.724
X138.136Y-77.471
X138.238Y-137.099
X142.206Y-99.691
X143.769Y-71.061
X145.655Y-113.902
X146.429Y-95.785
T3
X110.09Y-51.965
X110.09Y-57.965
X103.09Y-56.965
X103.09Y-62.965
X128.59Y-49.465
X128.59Y-55.465
X98.59Y-49.465
X98.59Y-55.465
X88.09Y-56.965
X88.09Y-62.965
X132.528Y-49.756
X132.528Y-64.976
X135.068Y-49.756
X135.068Y-64.976
X137.608Y-49.756
X137.608Y-64.976
X140.148Y-49.756
X140.148Y-64.976
X142.688Y-49.756
X142.688Y-64.976
X145.228Y-49.756
X145.228Y-64.976
X147.768Y-49.756
X147.768Y-64.976
X150.308Y-49.756
X150.308Y-64.976
X152.848Y-49.756
X152.848Y-64.976
X155.388Y-49.756
X155.388Y-64.976
X157.928Y-49.756
X157.928Y-64.976
X160.468Y-49.756
X160.468Y-64.976
X113.59Y-49.465
X113.59Y-55.465
X106.59Y-54.465
X106.59Y-60.465
X91.59Y-54.465
X91.59Y-60.465
X125.09Y-51.965
X125.09Y-57.965
X121.59Y-54.465
X121.59Y-60.465
X95.09Y-51.965
X95.09Y-57.965
X118.09Y-56.965
X118.09Y-62.965
T4
X124.34Y-44.465
X130.84Y-44.465
T5
X160.24Y-78.965
X83.09Y-78.965
X160.24Y-137.065
X83.09Y-137.065
X83.09Y-47.465
X83.09Y-67.465
T2
G00X108.13Y-124.525
M15
G01X108.53Y-124.525
M16
G05
G00X114.48Y-121.985
M15
G01X114.88Y-121.985
M16
G05
G00X146.23Y-124.525
M15
G01X146.63Y-124.525
M16
G05
G00X152.58Y-121.985
M15
G01X152.98Y-121.985
M16
G05
G00X108.13Y-86.425
M15
G01X108.53Y-86.425
M16
G05
G00X114.48Y-83.885
M15
G01X114.88Y-83.885
M16
G05
G00X108.13Y-105.475
M15
G01X108.53Y-105.475
M16
G05
G00X114.48Y-102.935
M15
G01X114.88Y-102.935
M16
G05
G00X146.23Y-105.475
M15
G01X146.63Y-105.475
M16
G05
G00X152.58Y-102.935
M15
G01X152.98Y-102.935
M16
G05
G00X89.08Y-124.525
M15
G01X89.48Y-124.525
M16
G05
G00X95.43Y-121.985
M15
G01X95.83Y-121.985
M16
G05
G00X127.18Y-105.475
M15
G01X127.58Y-105.475
M16
G05
G00X133.53Y-102.935
M15
G01X133.93Y-102.935
M16
G05
G00X127.18Y-86.425
M15
G01X127.58Y-86.425
M16
G05
G00X133.53Y-83.885
M15
G01X133.93Y-83.885
M16
G05
G00X127.18Y-124.525
M15
G01X127.58Y-124.525
M16
G05
G00X133.53Y-121.985
M15
G01X133.93Y-121.985
M16
G05
G00X89.08Y-86.425
M15
G01X89.48Y-86.425
M16
G05
G00X95.43Y-83.885
M15
G01X95.83Y-83.885
M16
G05
G00X89.08Y-105.475
M15
G01X89.48Y-105.475
M16
G05
G00X95.43Y-102.935
M15
G01X95.83Y-102.935
M16
G05
G00X146.23Y-86.425
M15
G01X146.63Y-86.425
M16
G05
G00X152.58Y-83.885
M15
G01X152.98Y-83.885
M16
G05
T0
M30
