G04 #@! TF.GenerationSoftware,KiCad,Pcbnew,5.1.6*
G04 #@! TF.CreationDate,2020-06-26T00:36:41+09:00*
G04 #@! TF.ProjectId,firststep12,66697273-7473-4746-9570-31322e6b6963,rev?*
G04 #@! TF.SameCoordinates,Original*
G04 #@! TF.FileFunction,Soldermask,Bot*
G04 #@! TF.FilePolarity,Negative*
%FSLAX46Y46*%
G04 Gerber Fmt 4.6, Leading zero omitted, Abs format (unit mm)*
G04 Created by KiCad (PCBNEW 5.1.6) date 2020-06-26 00:36:41*
%MOMM*%
%LPD*%
G01*
G04 APERTURE LIST*
%ADD10C,4.900000*%
%ADD11R,1.700000X1.100000*%
%ADD12R,1.497000X1.497000*%
%ADD13C,1.497000*%
%ADD14C,4.100000*%
%ADD15C,2.000000*%
%ADD16O,2.600000X2.100000*%
%ADD17C,2.100000*%
%ADD18C,1.624000*%
G04 APERTURE END LIST*
D10*
G04 #@! TO.C,H2*
X83090000Y-67465000D03*
G04 #@! TD*
D11*
G04 #@! TO.C,L3*
X128390000Y-95840000D03*
X128390000Y-94090000D03*
X133190000Y-94090000D03*
X133190000Y-95840000D03*
G04 #@! TD*
G04 #@! TO.C,L2*
X109740000Y-95840000D03*
X109740000Y-94090000D03*
X114540000Y-94090000D03*
X114540000Y-95840000D03*
G04 #@! TD*
G04 #@! TO.C,L1*
X90690000Y-95840000D03*
X90690000Y-94090000D03*
X95490000Y-94090000D03*
X95490000Y-95840000D03*
G04 #@! TD*
G04 #@! TO.C,L4*
X147840000Y-95840000D03*
X147840000Y-94090000D03*
X152640000Y-94090000D03*
X152640000Y-95840000D03*
G04 #@! TD*
G04 #@! TO.C,L5*
X90690000Y-114890000D03*
X90690000Y-113140000D03*
X95490000Y-113140000D03*
X95490000Y-114890000D03*
G04 #@! TD*
G04 #@! TO.C,L6*
X109740000Y-114890000D03*
X109740000Y-113140000D03*
X114540000Y-113140000D03*
X114540000Y-114890000D03*
G04 #@! TD*
G04 #@! TO.C,L7*
X128790000Y-114890000D03*
X128790000Y-113140000D03*
X133590000Y-113140000D03*
X133590000Y-114890000D03*
G04 #@! TD*
G04 #@! TO.C,L8*
X147840000Y-114890000D03*
X147840000Y-113140000D03*
X152640000Y-113140000D03*
X152640000Y-114890000D03*
G04 #@! TD*
G04 #@! TO.C,L9*
X90690000Y-133940000D03*
X90690000Y-132190000D03*
X95490000Y-132190000D03*
X95490000Y-133940000D03*
G04 #@! TD*
G04 #@! TO.C,L10*
X109740000Y-133940000D03*
X109740000Y-132190000D03*
X114540000Y-132190000D03*
X114540000Y-133940000D03*
G04 #@! TD*
G04 #@! TO.C,L11*
X128790000Y-133940000D03*
X128790000Y-132190000D03*
X133590000Y-132190000D03*
X133590000Y-133940000D03*
G04 #@! TD*
G04 #@! TO.C,L12*
X147840000Y-133940000D03*
X147840000Y-132190000D03*
X152640000Y-132190000D03*
X152640000Y-133940000D03*
G04 #@! TD*
D10*
G04 #@! TO.C,H1*
X83090000Y-47465000D03*
G04 #@! TD*
G04 #@! TO.C,H4*
X160240000Y-78965000D03*
G04 #@! TD*
G04 #@! TO.C,H3*
X83090000Y-78965000D03*
G04 #@! TD*
G04 #@! TO.C,H6*
X160240000Y-137065000D03*
G04 #@! TD*
G04 #@! TO.C,H5*
X83090000Y-137065000D03*
G04 #@! TD*
D12*
G04 #@! TO.C,D1*
X88090000Y-56965000D03*
D13*
X88090000Y-62965000D03*
G04 #@! TD*
G04 #@! TO.C,D2*
X91590000Y-60465000D03*
D12*
X91590000Y-54465000D03*
G04 #@! TD*
D13*
G04 #@! TO.C,D3*
X95090000Y-57965000D03*
D12*
X95090000Y-51965000D03*
G04 #@! TD*
G04 #@! TO.C,D4*
X98590000Y-49465000D03*
D13*
X98590000Y-55465000D03*
G04 #@! TD*
D12*
G04 #@! TO.C,D5*
X103090000Y-56965000D03*
D13*
X103090000Y-62965000D03*
G04 #@! TD*
G04 #@! TO.C,D6*
X106590000Y-60465000D03*
D12*
X106590000Y-54465000D03*
G04 #@! TD*
G04 #@! TO.C,D7*
X110090000Y-51965000D03*
D13*
X110090000Y-57965000D03*
G04 #@! TD*
G04 #@! TO.C,D8*
X113590000Y-55465000D03*
D12*
X113590000Y-49465000D03*
G04 #@! TD*
D13*
G04 #@! TO.C,D9*
X118090000Y-62965000D03*
D12*
X118090000Y-56965000D03*
G04 #@! TD*
G04 #@! TO.C,D10*
X121590000Y-54465000D03*
D13*
X121590000Y-60465000D03*
G04 #@! TD*
G04 #@! TO.C,D11*
X125090000Y-57965000D03*
D12*
X125090000Y-51965000D03*
G04 #@! TD*
G04 #@! TO.C,D12*
X128590000Y-49465000D03*
D13*
X128590000Y-55465000D03*
G04 #@! TD*
D14*
G04 #@! TO.C,SW1*
X93090000Y-88965000D03*
D15*
X87590000Y-88965000D03*
X98590000Y-88965000D03*
D16*
X95630000Y-83885000D03*
X89280000Y-86425000D03*
G04 #@! TD*
G04 #@! TO.C,SW2*
X108330000Y-86425000D03*
X114680000Y-83885000D03*
D15*
X117640000Y-88965000D03*
X106640000Y-88965000D03*
D14*
X112140000Y-88965000D03*
G04 #@! TD*
G04 #@! TO.C,SW3*
X131190000Y-88965000D03*
D15*
X125690000Y-88965000D03*
X136690000Y-88965000D03*
D16*
X133730000Y-83885000D03*
X127380000Y-86425000D03*
G04 #@! TD*
G04 #@! TO.C,SW4*
X146430000Y-86425000D03*
X152780000Y-83885000D03*
D15*
X155740000Y-88965000D03*
X144740000Y-88965000D03*
D14*
X150240000Y-88965000D03*
G04 #@! TD*
D16*
G04 #@! TO.C,SW5*
X89280000Y-105475000D03*
X95630000Y-102935000D03*
D15*
X98590000Y-108015000D03*
X87590000Y-108015000D03*
D14*
X93090000Y-108015000D03*
G04 #@! TD*
G04 #@! TO.C,SW6*
X112140000Y-108015000D03*
D15*
X106640000Y-108015000D03*
X117640000Y-108015000D03*
D16*
X114680000Y-102935000D03*
X108330000Y-105475000D03*
G04 #@! TD*
G04 #@! TO.C,SW7*
X127380000Y-105475000D03*
X133730000Y-102935000D03*
D15*
X136690000Y-108015000D03*
X125690000Y-108015000D03*
D14*
X131190000Y-108015000D03*
G04 #@! TD*
G04 #@! TO.C,SW8*
X150240000Y-108015000D03*
D15*
X144740000Y-108015000D03*
X155740000Y-108015000D03*
D16*
X152780000Y-102935000D03*
X146430000Y-105475000D03*
G04 #@! TD*
G04 #@! TO.C,SW9*
X89280000Y-124525000D03*
X95630000Y-121985000D03*
D15*
X98590000Y-127065000D03*
X87590000Y-127065000D03*
D14*
X93090000Y-127065000D03*
G04 #@! TD*
G04 #@! TO.C,SW10*
X112140000Y-127065000D03*
D15*
X106640000Y-127065000D03*
X117640000Y-127065000D03*
D16*
X114680000Y-121985000D03*
X108330000Y-124525000D03*
G04 #@! TD*
D14*
G04 #@! TO.C,SW11*
X131190000Y-127065000D03*
D15*
X125690000Y-127065000D03*
X136690000Y-127065000D03*
D16*
X133730000Y-121985000D03*
X127380000Y-124525000D03*
G04 #@! TD*
G04 #@! TO.C,SW12*
X146430000Y-124525000D03*
X152780000Y-121985000D03*
D15*
X155740000Y-127065000D03*
X144740000Y-127065000D03*
D14*
X150240000Y-127065000D03*
G04 #@! TD*
D17*
G04 #@! TO.C,SW13*
X124340000Y-44465000D03*
X130840000Y-44465000D03*
G04 #@! TD*
D18*
G04 #@! TO.C,U1*
X160468000Y-64976400D03*
X157928000Y-64976400D03*
X155388000Y-64976400D03*
X152848000Y-64976400D03*
X150308000Y-64976400D03*
X147768000Y-64976400D03*
X145228000Y-64976400D03*
X142688000Y-64976400D03*
X140148000Y-64976400D03*
X137608000Y-64976400D03*
X135068000Y-64976400D03*
X132528000Y-64976400D03*
X132528000Y-49756400D03*
X135068000Y-49756400D03*
X137608000Y-49756400D03*
X140148000Y-49756400D03*
X142688000Y-49756400D03*
X145228000Y-49756400D03*
X147768000Y-49756400D03*
X150308000Y-49756400D03*
X152848000Y-49756400D03*
X155388000Y-49756400D03*
X157928000Y-49756400D03*
X160468000Y-49756400D03*
G04 #@! TD*
M02*
