  0
SECTION
  2
HEADER
  9
$ACADVER
  1
AC1009
  9
$EXTMIN
 10
0.0
 20
0.0
 30
0.0
  9
$EXTMAX
 10
1000.0
 20
1000.0
 30
0.0
  9
$FILLMODE
 70
 0
  9
$SPLFRAME
 70
 1
  0
ENDSEC
  0
SECTION
  2
TABLES
  0
TABLE
  2
LAYER
 70
1
  0
LAYER
  2
0
 70
     0
 62
     7
  6
CONTINUOUS
  0
ENDTAB
  0
ENDSEC
  0
SECTION
  2
ENTITIES
  0
LINE
  8
0
 62
     0
 10
84.2959
 20
67.2853
 30
0.0
 11
84.4532
 21
67.2786
 31
0.0
  0
LINE
  8
0
 62
     0
 10
84.4532
 20
67.2786
 30
0.0
 11
84.6088
 21
67.2606
 31
0.0
  0
LINE
  8
0
 62
     0
 10
84.6088
 20
67.2606
 30
0.0
 11
84.763
 21
67.2303
 31
0.0
  0
LINE
  8
0
 62
     0
 10
84.763
 20
67.2303
 30
0.0
 11
84.9147
 21
67.1876
 31
0.0
  0
LINE
  8
0
 62
     0
 10
84.9147
 20
67.1876
 30
0.0
 11
85.0621
 21
67.1326
 31
0.0
  0
LINE
  8
0
 62
     0
 10
85.0621
 20
67.1326
 30
0.0
 11
85.2039
 21
67.0676
 31
0.0
  0
LINE
  8
0
 62
     0
 10
85.2039
 20
67.0676
 30
0.0
 11
85.3405
 21
66.9907
 31
0.0
  0
LINE
  8
0
 62
     0
 10
85.3405
 20
66.9907
 30
0.0
 11
85.4714
 21
66.9036
 31
0.0
  0
LINE
  8
0
 62
     0
 10
85.4714
 20
66.9036
 30
0.0
 11
85.5941
 21
66.8059
 31
0.0
  0
LINE
  8
0
 62
     0
 10
85.5941
 20
66.8059
 30
0.0
 11
85.7098
 21
66.6997
 31
0.0
  0
LINE
  8
0
 62
     0
 10
85.7098
 20
66.6997
 30
0.0
 11
85.816
 21
66.584
 31
0.0
  0
LINE
  8
0
 62
     0
 10
85.816
 20
66.584
 30
0.0
 11
85.9151
 21
66.4616
 31
0.0
  0
LINE
  8
0
 62
     0
 10
85.9151
 20
66.4616
 30
0.0
 11
86.0019
 21
66.3303
 31
0.0
  0
LINE
  8
0
 62
     0
 10
86.0019
 20
66.3303
 30
0.0
 11
86.0792
 21
66.1928
 31
0.0
  0
LINE
  8
0
 62
     0
 10
86.0792
 20
66.1928
 30
0.0
 11
86.1441
 21
66.0506
 31
0.0
  0
LINE
  8
0
 62
     0
 10
86.1441
 20
66.0506
 30
0.0
 11
86.1991
 21
65.9045
 31
0.0
  0
LINE
  8
0
 62
     0
 10
86.1991
 20
65.9045
 30
0.0
 11
86.2404
 21
65.7518
 31
0.0
  0
LINE
  8
0
 62
     0
 10
86.2404
 20
65.7518
 30
0.0
 11
86.2722
 21
65.5987
 31
0.0
  0
LINE
  8
0
 62
     0
 10
86.2722
 20
65.5987
 30
0.0
 11
86.2902
 21
65.4417
 31
0.0
  0
LINE
  8
0
 62
     0
 10
86.2902
 20
65.4417
 30
0.0
 11
86.2954
 21
65.2847
 31
0.0
  0
LINE
  8
0
 62
     0
 10
86.2954
 20
65.2847
 30
0.0
 11
86.2969
 21
2.13458
 31
0.0
  0
LINE
  8
0
 62
     0
 10
86.2969
 20
2.13458
 30
0.0
 11
86.2902
 21
1.97749
 31
0.0
  0
LINE
  8
0
 62
     0
 10
86.2902
 20
1.97749
 30
0.0
 11
86.2722
 21
1.82177
 31
0.0
  0
LINE
  8
0
 62
     0
 10
86.2722
 20
1.82177
 30
0.0
 11
86.2404
 21
1.66743
 31
0.0
  0
LINE
  8
0
 62
     0
 10
86.2404
 20
1.66743
 30
0.0
 11
86.1991
 21
1.51584
 31
0.0
  0
LINE
  8
0
 62
     0
 10
86.1991
 20
1.51584
 30
0.0
 11
86.1441
 21
1.36839
 31
0.0
  0
LINE
  8
0
 62
     0
 10
86.1441
 20
1.36839
 30
0.0
 11
86.0792
 21
1.22645
 31
0.0
  0
LINE
  8
0
 62
     0
 10
86.0792
 20
1.22645
 30
0.0
 11
86.0019
 21
1.09003
 31
0.0
  0
LINE
  8
0
 62
     0
 10
86.0019
 20
1.09003
 30
0.0
 11
85.9151
 21
0.959115
 31
0.0
  0
LINE
  8
0
 62
     0
 10
85.9151
 20
0.959115
 30
0.0
 11
85.816
 21
0.836468
 31
0.0
  0
LINE
  8
0
 62
     0
 10
85.816
 20
0.836468
 30
0.0
 11
85.7098
 21
0.720714
 31
0.0
  0
LINE
  8
0
 62
     0
 10
85.7098
 20
0.720714
 30
0.0
 11
85.5941
 21
0.614606
 31
0.0
  0
LINE
  8
0
 62
     0
 10
85.5941
 20
0.614606
 30
0.0
 11
85.4714
 21
0.515387
 31
0.0
  0
LINE
  8
0
 62
     0
 10
85.4714
 20
0.515387
 30
0.0
 11
85.3405
 21
0.428569
 31
0.0
  0
LINE
  8
0
 62
     0
 10
85.3405
 20
0.428569
 30
0.0
 11
85.2039
 21
0.3514
 31
0.0
  0
LINE
  8
0
 62
     0
 10
85.2039
 20
0.3514
 30
0.0
 11
85.0621
 21
0.286632
 31
0.0
  0
LINE
  8
0
 62
     0
 10
85.0621
 20
0.286632
 30
0.0
 11
84.9147
 21
0.23151
 31
0.0
  0
LINE
  8
0
 62
     0
 10
84.9147
 20
0.23151
 30
0.0
 11
84.763
 21
0.190169
 31
0.0
  0
LINE
  8
0
 62
     0
 10
84.763
 20
0.190169
 30
0.0
 11
84.6088
 21
0.158474
 31
0.0
  0
LINE
  8
0
 62
     0
 10
84.6088
 20
0.158474
 30
0.0
 11
84.4532
 21
0.14056
 31
0.0
  0
LINE
  8
0
 62
     0
 10
84.4532
 20
0.14056
 30
0.0
 11
84.2959
 21
0.135048
 31
0.0
  0
LINE
  8
0
 62
     0
 10
84.2959
 20
0.135048
 30
0.0
 11
2.096
 21
0.13367
 31
0.0
  0
LINE
  8
0
 62
     0
 10
2.096
 20
0.13367
 30
0.0
 11
1.9389
 21
0.14056
 31
0.0
  0
LINE
  8
0
 62
     0
 10
1.9389
 20
0.14056
 30
0.0
 11
1.7818
 21
0.158474
 31
0.0
  0
LINE
  8
0
 62
     0
 10
1.7818
 20
0.158474
 30
0.0
 11
1.62884
 21
0.190169
 31
0.0
  0
LINE
  8
0
 62
     0
 10
1.62884
 20
0.190169
 30
0.0
 11
1.47588
 21
0.23151
 31
0.0
  0
LINE
  8
0
 62
     0
 10
1.47588
 20
0.23151
 30
0.0
 11
1.32981
 21
0.286632
 31
0.0
  0
LINE
  8
0
 62
     0
 10
1.32981
 20
0.286632
 30
0.0
 11
1.18787
 21
0.3514
 31
0.0
  0
LINE
  8
0
 62
     0
 10
1.18787
 20
0.3514
 30
0.0
 11
1.05006
 21
0.428569
 31
0.0
  0
LINE
  8
0
 62
     0
 10
1.05006
 20
0.428569
 30
0.0
 11
0.919152
 21
0.515387
 31
0.0
  0
LINE
  8
0
 62
     0
 10
0.919152
 20
0.515387
 30
0.0
 11
0.796505
 21
0.614606
 31
0.0
  0
LINE
  8
0
 62
     0
 10
0.796505
 20
0.614606
 30
0.0
 11
0.680752
 21
0.720714
 31
0.0
  0
LINE
  8
0
 62
     0
 10
0.680752
 20
0.720714
 30
0.0
 11
0.574643
 21
0.836468
 31
0.0
  0
LINE
  8
0
 62
     0
 10
0.574643
 20
0.836468
 30
0.0
 11
0.4768
 21
0.959115
 31
0.0
  0
LINE
  8
0
 62
     0
 10
0.4768
 20
0.959115
 30
0.0
 11
0.389985
 21
1.09003
 31
0.0
  0
LINE
  8
0
 62
     0
 10
0.389985
 20
1.09003
 30
0.0
 11
0.312815
 21
1.22645
 31
0.0
  0
LINE
  8
0
 62
     0
 10
0.312815
 20
1.22645
 30
0.0
 11
0.248047
 21
1.36839
 31
0.0
  0
LINE
  8
0
 62
     0
 10
0.248047
 20
1.36839
 30
0.0
 11
0.192925
 21
1.51584
 31
0.0
  0
LINE
  8
0
 62
     0
 10
0.192925
 20
1.51584
 30
0.0
 11
0.150206
 21
1.66743
 31
0.0
  0
LINE
  8
0
 62
     0
 10
0.150206
 20
1.66743
 30
0.0
 11
0.119889
 21
1.82177
 31
0.0
  0
LINE
  8
0
 62
     0
 10
0.119889
 20
1.82177
 30
0.0
 11
0.101975
 21
1.97749
 31
0.0
  0
LINE
  8
0
 62
     0
 10
0.101975
 20
1.97749
 30
0.0
 11
0.0950846
 21
2.13458
 31
0.0
  0
LINE
  8
0
 62
     0
 10
0.0950846
 20
2.13458
 30
0.0
 11
0.0950846
 21
65.2847
 31
0.0
  0
LINE
  8
0
 62
     0
 10
0.0950846
 20
65.2847
 30
0.0
 11
0.101975
 21
65.4417
 31
0.0
  0
LINE
  8
0
 62
     0
 10
0.101975
 20
65.4417
 30
0.0
 11
0.119889
 21
65.5987
 31
0.0
  0
LINE
  8
0
 62
     0
 10
0.119889
 20
65.5987
 30
0.0
 11
0.150206
 21
65.7518
 31
0.0
  0
LINE
  8
0
 62
     0
 10
0.150206
 20
65.7518
 30
0.0
 11
0.192925
 21
65.9045
 31
0.0
  0
LINE
  8
0
 62
     0
 10
0.192925
 20
65.9045
 30
0.0
 11
0.248047
 21
66.0506
 31
0.0
  0
LINE
  8
0
 62
     0
 10
0.248047
 20
66.0506
 30
0.0
 11
0.312815
 21
66.1928
 31
0.0
  0
LINE
  8
0
 62
     0
 10
0.312815
 20
66.1928
 30
0.0
 11
0.389985
 21
66.3303
 31
0.0
  0
LINE
  8
0
 62
     0
 10
0.389985
 20
66.3303
 30
0.0
 11
0.4768
 21
66.4616
 31
0.0
  0
LINE
  8
0
 62
     0
 10
0.4768
 20
66.4616
 30
0.0
 11
0.574643
 21
66.584
 31
0.0
  0
LINE
  8
0
 62
     0
 10
0.574643
 20
66.584
 30
0.0
 11
0.680752
 21
66.6997
 31
0.0
  0
LINE
  8
0
 62
     0
 10
0.680752
 20
66.6997
 30
0.0
 11
0.796505
 21
66.8059
 31
0.0
  0
LINE
  8
0
 62
     0
 10
0.796505
 20
66.8059
 30
0.0
 11
0.919152
 21
66.9036
 31
0.0
  0
LINE
  8
0
 62
     0
 10
0.919152
 20
66.9036
 30
0.0
 11
1.05006
 21
66.9907
 31
0.0
  0
LINE
  8
0
 62
     0
 10
1.05006
 20
66.9907
 30
0.0
 11
1.18787
 21
67.0676
 31
0.0
  0
LINE
  8
0
 62
     0
 10
1.18787
 20
67.0676
 30
0.0
 11
1.32981
 21
67.1326
 31
0.0
  0
LINE
  8
0
 62
     0
 10
1.32981
 20
67.1326
 30
0.0
 11
1.47588
 21
67.1876
 31
0.0
  0
LINE
  8
0
 62
     0
 10
1.47588
 20
67.1876
 30
0.0
 11
1.62884
 21
67.2303
 31
0.0
  0
LINE
  8
0
 62
     0
 10
1.62884
 20
67.2303
 30
0.0
 11
1.7818
 21
67.2606
 31
0.0
  0
LINE
  8
0
 62
     0
 10
1.7818
 20
67.2606
 30
0.0
 11
1.9389
 21
67.2786
 31
0.0
  0
LINE
  8
0
 62
     0
 10
1.9389
 20
67.2786
 30
0.0
 11
2.096
 21
67.2853
 31
0.0
  0
LINE
  8
0
 62
     0
 10
2.096
 20
67.2853
 30
0.0
 11
84.2959
 21
67.2853
 31
0.0
  0
LINE
  8
0
 62
     0
 10
64.7707
 20
21.66
 30
0.0
 11
78.77
 21
21.66
 31
0.0
  0
LINE
  8
0
 62
     0
 10
78.77
 20
21.66
 30
0.0
 11
78.77
 21
7.6605
 31
0.0
  0
LINE
  8
0
 62
     0
 10
78.77
 20
7.6605
 30
0.0
 11
64.7707
 21
7.6605
 31
0.0
  0
LINE
  8
0
 62
     0
 10
64.7707
 20
7.6605
 30
0.0
 11
64.7707
 21
21.66
 31
0.0
  0
LINE
  8
0
 62
     0
 10
45.7207
 20
21.66
 30
0.0
 11
59.72
 21
21.66
 31
0.0
  0
LINE
  8
0
 62
     0
 10
59.72
 20
21.66
 30
0.0
 11
59.72
 21
7.6605
 31
0.0
  0
LINE
  8
0
 62
     0
 10
59.72
 20
7.6605
 30
0.0
 11
45.7207
 21
7.6605
 31
0.0
  0
LINE
  8
0
 62
     0
 10
45.7207
 20
7.6605
 30
0.0
 11
45.7207
 21
21.66
 31
0.0
  0
LINE
  8
0
 62
     0
 10
26.6706
 20
21.66
 30
0.0
 11
40.67
 21
21.66
 31
0.0
  0
LINE
  8
0
 62
     0
 10
40.67
 20
21.66
 30
0.0
 11
40.67
 21
7.6605
 31
0.0
  0
LINE
  8
0
 62
     0
 10
40.67
 20
7.6605
 30
0.0
 11
26.6706
 21
7.6605
 31
0.0
  0
LINE
  8
0
 62
     0
 10
26.6706
 20
7.6605
 30
0.0
 11
26.6706
 21
21.66
 31
0.0
  0
LINE
  8
0
 62
     0
 10
7.61919
 20
21.66
 30
0.0
 11
21.6201
 21
21.66
 31
0.0
  0
LINE
  8
0
 62
     0
 10
21.6201
 20
21.66
 30
0.0
 11
21.6201
 21
7.6605
 31
0.0
  0
LINE
  8
0
 62
     0
 10
21.6201
 20
7.6605
 30
0.0
 11
7.61919
 21
7.6605
 31
0.0
  0
LINE
  8
0
 62
     0
 10
7.61919
 20
7.6605
 30
0.0
 11
7.61919
 21
21.66
 31
0.0
  0
LINE
  8
0
 62
     0
 10
64.7707
 20
40.7099
 30
0.0
 11
78.77
 21
40.7099
 31
0.0
  0
LINE
  8
0
 62
     0
 10
78.77
 20
40.7099
 30
0.0
 11
78.77
 21
26.7105
 31
0.0
  0
LINE
  8
0
 62
     0
 10
78.77
 20
26.7105
 30
0.0
 11
64.7707
 21
26.7105
 31
0.0
  0
LINE
  8
0
 62
     0
 10
64.7707
 20
26.7105
 30
0.0
 11
64.7707
 21
40.7099
 31
0.0
  0
LINE
  8
0
 62
     0
 10
45.7207
 20
40.7099
 30
0.0
 11
59.72
 21
40.7099
 31
0.0
  0
LINE
  8
0
 62
     0
 10
59.72
 20
40.7099
 30
0.0
 11
59.72
 21
26.7105
 31
0.0
  0
LINE
  8
0
 62
     0
 10
59.72
 20
26.7105
 30
0.0
 11
45.7207
 21
26.7105
 31
0.0
  0
LINE
  8
0
 62
     0
 10
45.7207
 20
26.7105
 30
0.0
 11
45.7207
 21
40.7099
 31
0.0
  0
LINE
  8
0
 62
     0
 10
26.6706
 20
40.7099
 30
0.0
 11
40.67
 21
40.7099
 31
0.0
  0
LINE
  8
0
 62
     0
 10
40.67
 20
40.7099
 30
0.0
 11
40.67
 21
26.7105
 31
0.0
  0
LINE
  8
0
 62
     0
 10
40.67
 20
26.7105
 30
0.0
 11
26.6706
 21
26.7105
 31
0.0
  0
LINE
  8
0
 62
     0
 10
26.6706
 20
26.7105
 30
0.0
 11
26.6706
 21
40.7099
 31
0.0
  0
LINE
  8
0
 62
     0
 10
7.61919
 20
40.7099
 30
0.0
 11
21.6201
 21
40.7099
 31
0.0
  0
LINE
  8
0
 62
     0
 10
21.6201
 20
40.7099
 30
0.0
 11
21.6201
 21
26.7105
 31
0.0
  0
LINE
  8
0
 62
     0
 10
21.6201
 20
26.7105
 30
0.0
 11
7.61919
 21
26.7105
 31
0.0
  0
LINE
  8
0
 62
     0
 10
7.61919
 20
26.7105
 30
0.0
 11
7.61919
 21
40.7099
 31
0.0
  0
LINE
  8
0
 62
     0
 10
64.7707
 20
59.7613
 30
0.0
 11
78.77
 21
59.7613
 31
0.0
  0
LINE
  8
0
 62
     0
 10
78.77
 20
59.7613
 30
0.0
 11
78.77
 21
45.7606
 31
0.0
  0
LINE
  8
0
 62
     0
 10
78.77
 20
45.7606
 30
0.0
 11
64.7707
 21
45.7606
 31
0.0
  0
LINE
  8
0
 62
     0
 10
64.7707
 20
45.7606
 30
0.0
 11
64.7707
 21
59.7613
 31
0.0
  0
LINE
  8
0
 62
     0
 10
45.7207
 20
59.7613
 30
0.0
 11
59.72
 21
59.7613
 31
0.0
  0
LINE
  8
0
 62
     0
 10
59.72
 20
59.7613
 30
0.0
 11
59.72
 21
45.7606
 31
0.0
  0
LINE
  8
0
 62
     0
 10
59.72
 20
45.7606
 30
0.0
 11
45.7207
 21
45.7606
 31
0.0
  0
LINE
  8
0
 62
     0
 10
45.7207
 20
45.7606
 30
0.0
 11
45.7207
 21
59.7613
 31
0.0
  0
LINE
  8
0
 62
     0
 10
26.6706
 20
59.7613
 30
0.0
 11
40.67
 21
59.7613
 31
0.0
  0
LINE
  8
0
 62
     0
 10
40.67
 20
59.7613
 30
0.0
 11
40.67
 21
45.7606
 31
0.0
  0
LINE
  8
0
 62
     0
 10
40.67
 20
45.7606
 30
0.0
 11
26.6706
 21
45.7606
 31
0.0
  0
LINE
  8
0
 62
     0
 10
26.6706
 20
45.7606
 30
0.0
 11
26.6706
 21
59.7613
 31
0.0
  0
LINE
  8
0
 62
     0
 10
7.61919
 20
59.7613
 30
0.0
 11
21.6201
 21
59.7613
 31
0.0
  0
LINE
  8
0
 62
     0
 10
21.6201
 20
59.7613
 30
0.0
 11
21.6201
 21
45.7606
 31
0.0
  0
LINE
  8
0
 62
     0
 10
21.6201
 20
45.7606
 30
0.0
 11
7.61919
 21
45.7606
 31
0.0
  0
LINE
  8
0
 62
     0
 10
7.61919
 20
45.7606
 30
0.0
 11
7.61919
 21
59.7613
 31
0.0
  0
ENDSEC
  0
EOF
